<svg width="150" height="150" viewBox="0 0 150 150" fill="none" xmlns="http://www.w3.org/2000/svg">
<path fill-rule="evenodd" clip-rule="evenodd" d="M145.667 68.712H139.212C137.711 53.8478 131.1 39.9647 120.507 29.4302C109.913 18.8957 95.9935 12.3621 81.1212 10.9438V4.1665H68.2121V10.621C53.348 12.1222 39.4649 18.7332 28.9304 29.3266C18.3959 39.92 11.8623 53.8397 10.444 68.712H3.66669V81.621H10.1212C11.5519 96.5431 18.1317 110.502 28.7315 121.102C39.3314 131.701 53.2901 138.281 68.2121 139.712V146.167H81.1212V139.712C96.0432 138.281 110.002 131.701 120.602 121.102C131.202 110.502 137.782 96.5431 139.212 81.621H145.667V68.712ZM82.0674 126.971V133.854C95.0928 132.202 107.2 126.268 116.484 116.984C125.768 107.699 131.703 95.5926 133.354 82.5672H126.472V67.7658H133.354C131.703 54.7404 125.768 42.6335 116.484 33.3494C107.2 24.0653 95.0928 18.1307 82.0674 16.4789V23.3615H67.266V16.4789C54.2406 18.1307 42.1337 24.0653 32.8496 33.3494C23.5655 42.6335 17.6308 54.7404 15.979 67.7658H22.8617V82.5672H15.979C17.6308 95.5926 23.5655 107.699 32.8496 116.984C42.1337 126.268 54.2406 132.202 67.266 133.854V126.971H82.0674Z" fill="url(#paint0_linear_3887_35802)"/>
<path d="M113.536 72.2958C110.799 70.6102 101.971 68.4549 89.5831 68.4549L83.0392 60.8207C81.659 59.2106 79.6439 58.2837 77.5232 58.2837H57.935C55.8538 58.2837 53.8414 59.0282 52.2612 60.3825L44.5391 67.0018L36.3025 68.1784C35.1329 68.3454 34.181 69.204 33.8944 70.3503L32.915 74.2668L54.7108 84.4378H115.738V76.2237C115.738 74.6174 114.904 73.1384 113.536 72.2958Z" fill="#F67777"/>
<path d="M115.737 77.1719C115.737 74.2659 111.378 71.3599 91.0361 71.3599H34.3677C33.5652 71.3599 32.9147 72.0105 32.9147 72.8128V81.5309L60.5226 85.8898H115.738V77.1719H115.737Z" fill="#EF5A5A"/>
<path d="M115.737 82.9841H47.6038L34.6825 80.113C33.9064 79.9426 33.1231 80.4315 32.9485 81.2161C32.7753 81.9994 33.2693 82.7755 34.0525 82.9494L47.1296 85.8554C47.2331 85.8788 47.3381 85.8901 47.4445 85.8901H115.737C116.54 85.8901 117.19 85.2394 117.19 84.4372C117.19 83.6348 116.54 82.9841 115.737 82.9841Z" fill="#D24848"/>
<path d="M102.659 90.2483C106.672 90.2483 109.924 86.9956 109.924 82.9833C109.924 78.9709 106.672 75.7183 102.659 75.7183C98.6468 75.7183 95.3942 78.9709 95.3942 82.9833C95.3942 86.9956 98.6468 90.2483 102.659 90.2483Z" fill="#EDEDEE"/>
<path d="M102.66 91.7023C97.8526 91.7023 93.942 87.7917 93.942 82.9842C93.942 78.1767 97.8526 74.2661 102.66 74.2661C107.468 74.2661 111.378 78.1767 111.378 82.9842C111.378 87.7917 107.468 91.7023 102.66 91.7023ZM102.66 77.1721C99.4548 77.1721 96.848 79.7789 96.848 82.9842C96.848 86.1895 99.4548 88.7963 102.66 88.7963C105.865 88.7963 108.472 86.1896 108.472 82.9842C108.472 79.7789 105.866 77.1721 102.66 77.1721Z" fill="#504B5A"/>
<path d="M102.659 85.8897C104.264 85.8897 105.565 84.5886 105.565 82.9837C105.565 81.3787 104.264 80.0776 102.659 80.0776C101.054 80.0776 99.7532 81.3787 99.7532 82.9837C99.7532 84.5886 101.054 85.8897 102.659 85.8897Z" fill="#DCDBDE"/>
<path d="M47.4443 90.2483C51.4567 90.2483 54.7093 86.9956 54.7093 82.9833C54.7093 78.9709 51.4567 75.7183 47.4443 75.7183C43.4319 75.7183 40.1793 78.9709 40.1793 82.9833C40.1793 86.9956 43.4319 90.2483 47.4443 90.2483Z" fill="#EDEDEE"/>
<path d="M47.445 91.7023C42.6374 91.7023 38.7268 87.7917 38.7268 82.9842C38.7268 78.1767 42.6374 74.2661 47.445 74.2661C52.2525 74.2661 56.1631 78.1767 56.1631 82.9842C56.1629 87.7917 52.2523 91.7023 47.445 91.7023ZM47.445 77.1721C44.2397 77.1721 41.6329 79.7789 41.6329 82.9842C41.6329 86.1895 44.2397 88.7963 47.445 88.7963C50.6503 88.7963 53.2571 86.1896 53.2571 82.9842C53.2571 79.7789 50.6503 77.1721 47.445 77.1721Z" fill="#504B5A"/>
<path d="M47.4443 85.8897C49.0493 85.8897 50.3504 84.5886 50.3504 82.9837C50.3504 81.3787 49.0493 80.0776 47.4443 80.0776C45.8394 80.0776 44.5383 81.3787 44.5383 82.9837C44.5383 84.5886 45.8394 85.8897 47.4443 85.8897Z" fill="#DCDBDE"/>
<path d="M91.0359 80.0782H60.5225C59.72 80.0782 59.0695 79.4276 59.0695 78.6253C59.0695 77.8229 59.7202 77.1724 60.5225 77.1724H91.0359C91.8383 77.1724 92.4888 77.8229 92.4888 78.6253C92.489 79.4279 91.8383 80.0782 91.0359 80.0782Z" fill="#D24848"/>
<path d="M115.737 80.0782H114.284C113.482 80.0782 112.831 79.4276 112.831 78.6253C112.831 77.8229 113.482 77.1724 114.284 77.1724H115.737C116.54 77.1724 117.19 77.8229 117.19 78.6253C117.19 79.4279 116.54 80.0782 115.737 80.0782Z" fill="#D24848"/>
<path d="M44.5389 67.0008L52.2611 60.3815C53.8413 59.0272 55.8537 58.2827 57.9349 58.2827H77.523C79.6439 58.2827 81.6587 59.2094 83.039 60.8197L89.5829 68.4539H55.1808C53.9002 68.4539 52.6219 68.3481 51.3586 68.1375L44.5389 67.0008Z" fill="#EF5A5A"/>
<path d="M75.9236 60.7819C75.3715 60.1194 74.5536 59.7363 73.6911 59.7363H60.2721C59.5014 59.7363 58.7622 60.0425 58.2174 60.5875L53.8584 64.9464C53.473 65.3318 53.2564 65.8544 53.2564 66.3994C53.2564 67.5341 54.1764 68.4543 55.3113 68.4543H80.7665C81.3825 68.4543 81.7189 67.7358 81.3247 67.2625L75.9236 60.7819Z" fill="#625D6B"/>
<path d="M63.4282 68.4543H59.069L61.9751 59.7363H64.8811L63.4282 68.4543Z" fill="#504B5A"/>
<path d="M114.178 72.813H112.831C112.029 72.813 111.378 73.4635 111.378 74.2659C111.378 75.0684 112.029 75.7189 112.831 75.7189H115.672C115.546 74.5889 115.02 73.5665 114.178 72.813Z" fill="#EDEDEE"/>
<path d="M83.0391 60.8202C82.6909 60.414 82.3017 60.0517 81.8809 59.7363H79.5097C78.8937 59.7363 78.5573 60.4546 78.9515 60.928L84.3526 67.409C84.9047 68.0716 85.7226 68.4546 86.5849 68.4546H89.5828L83.0391 60.8202Z" fill="#625D6B"/>
<path d="M32.9147 72.8133V74.2662H35.8208C36.6232 74.2662 37.2737 73.6157 37.2737 72.8133C37.2737 72.0109 36.6231 71.3604 35.8208 71.3604H34.3677C33.5651 71.3602 32.9147 72.0109 32.9147 72.8133Z" fill="#FF6464"/>
<defs>
<linearGradient id="paint0_linear_3887_35802" x1="3.47425" y1="13.2101" x2="152.978" y2="137.316" gradientUnits="userSpaceOnUse">
<stop stop-color="#2880BD"/>
<stop offset="1" stop-color="#0D4D73"/>
</linearGradient>
</defs>
</svg>
