<svg width="123" height="123" viewBox="0 0 123 123" fill="none" xmlns="http://www.w3.org/2000/svg">
    <path
        d="M106.977 46.8207C105.525 45.3801 103.171 45.3801 101.719 46.8207C100.268 48.2613 100.268 50.5974 101.719 52.0383C105.03 55.3238 105.03 60.6703 101.719 63.9561C100.268 65.397 100.268 67.7329 101.719 69.1737C103.171 70.6146 105.525 70.6148 106.977 69.1737C113.187 63.0107 113.187 52.9833 106.977 46.8207Z"
        fill="#FFE6B9" />
    <path
        d="M115.989 41.2154C114.537 39.7743 112.183 39.7748 110.731 41.2154C109.279 42.6562 109.279 44.9921 110.731 46.433C117.173 52.8251 117.173 63.1707 110.731 69.5638C109.279 71.0044 109.279 73.3405 110.731 74.7814C112.183 76.2222 114.537 76.2222 115.989 74.7814C125.336 65.5059 125.338 50.4919 115.989 41.2154Z"
        fill="#FFCD76" />
    <path
        d="M21.2804 46.8209C19.8285 45.38 17.4746 45.38 16.0227 46.8209C9.79785 52.9977 9.79736 62.9961 16.0227 69.1739C17.4746 70.6148 19.8285 70.6148 21.2804 69.1739C22.7324 67.7333 22.7324 65.3972 21.2804 63.9563C17.9617 60.6626 17.9614 55.3324 21.2804 52.0385C22.7324 50.5976 22.7324 48.2617 21.2804 46.8209Z"
        fill="#FFCD76" />
    <path
        d="M12.2685 46.433C13.7204 44.9924 13.7204 42.6562 12.2685 41.2154C10.8166 39.7746 8.4627 39.7746 7.01077 41.2154C-2.33655 50.4911 -2.3373 65.5047 7.01077 74.7814C8.46221 76.222 10.8163 76.2225 12.2685 74.7814C13.7204 73.3408 13.7204 71.0046 12.2685 69.5638C5.82727 63.1717 5.82653 52.8258 12.2685 46.433Z"
        fill="#FFE6B9" />
    <path
        d="M23.0589 0.70752H3.88834C1.83512 0.70752 0.170532 2.3594 0.170532 4.39695V23.4211C0.170532 25.4587 1.83512 27.1106 3.88834 27.1106C5.94157 27.1106 7.60616 25.4587 7.60616 23.4211V8.08638H23.0589C25.1121 8.08638 26.7767 6.4345 26.7767 4.39695C26.7767 2.3594 25.1121 0.70752 23.0589 0.70752Z"
        fill="#2880BD" />
    <path
        d="M119.111 0.70752H99.9408C97.8876 0.70752 96.223 2.3594 96.223 4.39695C96.223 6.4345 97.8876 8.08638 99.9408 8.08638H115.394V23.4211C115.394 25.4587 117.058 27.1106 119.111 27.1106C121.165 27.1106 122.829 25.4587 122.829 23.4211V4.39695C122.829 2.35916 121.165 0.70752 119.111 0.70752Z"
        fill="#0D4D73" />
    <path
        d="M119.111 96.2554C117.058 96.2554 115.394 97.9073 115.394 99.9448V115.28H99.9408C97.8876 115.28 96.223 116.931 96.223 118.969C96.223 121.007 97.8876 122.658 99.9408 122.658H119.111C121.165 122.658 122.829 121.007 122.829 118.969V99.9448C122.829 97.9073 121.165 96.2554 119.111 96.2554Z"
        fill="#0D4D73" />
    <path
        d="M23.0589 115.28H7.60616V99.9448C7.60616 97.9073 5.94157 96.2554 3.88834 96.2554C1.83512 96.2554 0.170532 97.9073 0.170532 99.9448V118.969C0.170532 121.007 1.83512 122.658 3.88834 122.658H23.0589C25.1121 122.658 26.7767 121.007 26.7767 118.969C26.7767 116.931 25.1121 115.28 23.0589 115.28Z"
        fill="#2880BD" />
    <path
        d="M61.5312 99.2705C77.8679 99.2705 91.1114 93.4295 91.1114 86.2241C91.1114 79.0188 77.8679 73.1777 61.5312 73.1777C45.1946 73.1777 31.951 79.0188 31.951 86.2241C31.951 93.4295 45.1946 99.2705 61.5312 99.2705Z"
        fill="url(#paint0_linear_3887_9176)" />
    <path
        d="M66.4612 84.5936H63.1745V81.332C63.1745 80.8995 63.0013 80.4847 62.6932 80.1788C62.385 79.873 61.967 79.7012 61.5311 79.7012C61.0953 79.7012 60.6773 79.873 60.3691 80.1788C60.0609 80.4847 59.8878 80.8995 59.8878 81.332V84.5936H56.6011C56.1653 84.5936 55.7473 84.7654 55.4391 85.0712C55.1309 85.3771 54.9578 85.7919 54.9578 86.2244C54.9578 86.6569 55.1309 87.0717 55.4391 87.3775C55.7473 87.6834 56.1653 87.8552 56.6011 87.8552H59.8878V91.1168C59.8878 91.5493 60.0609 91.9641 60.3691 92.2699C60.6773 92.5758 61.0953 92.7476 61.5311 92.7476C61.967 92.7476 62.385 92.5758 62.6932 92.2699C63.0013 91.9641 63.1745 91.5493 63.1745 91.1168V87.8552H66.4612C66.897 87.8552 67.315 87.6834 67.6232 87.3775C67.9314 87.0717 68.1045 86.6569 68.1045 86.2244C68.1045 85.7919 67.9314 85.3771 67.6232 85.0712C67.315 84.7654 66.897 84.5936 66.4612 84.5936Z"
        fill="#B4CDE1" />
    <path d="M91.1114 37.3003L61.5312 50.3467L31.951 37.3003L61.5312 24.2539L91.1114 37.3003Z"
        fill="url(#paint1_linear_3887_9176)" />
    <path d="M31.951 37.3003V73.1779L61.5312 86.2243V50.3467L31.951 37.3003Z" fill="url(#paint2_linear_3887_9176)" />
    <path d="M91.1116 37.3003V73.1779L61.5314 86.2243V50.3467L91.1116 37.3003Z" fill="url(#paint3_linear_3887_9176)" />
    <defs>
        <linearGradient id="paint0_linear_3887_9176" x1="31.951" y1="86.2241" x2="91.1114" y2="86.2241"
            gradientUnits="userSpaceOnUse">
            <stop stop-color="#D3E6F5" />
            <stop offset="1" stop-color="#F0F7FC" />
        </linearGradient>
        <linearGradient id="paint1_linear_3887_9176" x1="61.5312" y1="50.3467" x2="61.5312" y2="24.2539"
            gradientUnits="userSpaceOnUse">
            <stop stop-color="#54A5FF" />
            <stop offset="1" stop-color="#8AD3FE" />
        </linearGradient>
        <linearGradient id="paint2_linear_3887_9176" x1="31.951" y1="61.7623" x2="61.5312" y2="61.7623"
            gradientUnits="userSpaceOnUse">
            <stop stop-color="#54A5FF" />
            <stop offset="1" stop-color="#8AD3FE" />
        </linearGradient>
        <linearGradient id="paint3_linear_3887_9176" x1="61.5314" y1="61.7623" x2="91.1116" y2="61.7623"
            gradientUnits="userSpaceOnUse">
            <stop stop-color="#54A5FF" />
            <stop offset="1" stop-color="#8AD3FE" />
        </linearGradient>
    </defs>
</svg>