<svg width="150" height="150" viewBox="0 0 150 150" fill="none" xmlns="http://www.w3.org/2000/svg">
    <g clip-path="url(#clip0_3887_7470)">
        <path
            d="M49.5627 111.116C43.8751 112.436 39.361 116.657 37.7607 122.196L33.5692 136.707C31.6209 143.46 36.7471 150.161 43.8243 150.161H106.31C113.387 150.161 118.513 143.46 116.565 136.707L112.373 122.196C110.77 116.655 106.259 112.436 100.571 111.116L75.0695 105.311L49.5678 111.116H49.5627Z"
            fill="url(#paint0_linear_3887_7470)" />
        <path opacity="0.5"
            d="M75.0646 127.574C83.483 127.574 90.3061 120.833 90.3061 112.516V108.782L75.0646 105.313L59.823 108.782V112.516C59.823 120.833 66.6461 127.574 75.0646 127.574Z"
            fill="url(#paint1_linear_3887_7470)" />
        <path
            d="M85.2255 99.9678V112.516C85.2255 118.06 80.6759 122.555 75.0645 122.555C69.453 122.555 64.9034 118.06 64.9034 112.516V99.9678H85.2255Z"
            fill="url(#paint2_linear_3887_7470)" />
        <path
            d="M50.1421 75.027C45.0311 63.9217 52.055 55.5445 59.1118 52.7688V52.7864C59.1956 51.7549 59.3277 50.8213 59.4725 50.0308C59.7621 48.4221 61.1745 47.2651 62.8282 47.2651H83.6558C96.6645 47.2651 105.202 62.2528 100.371 75.3783L97.0658 84.3529H54.4352L50.1421 75.027Z"
            fill="url(#paint3_linear_3887_7470)" />
        <path
            d="M57.2828 94.9486H92.8465C98.4579 94.9486 103.008 90.4538 103.008 84.9099C103.008 82.1368 100.734 79.8906 97.927 79.8906H52.2023C49.3953 79.8906 47.1218 82.1368 47.1218 84.9099C47.1218 90.4538 51.6714 94.9486 57.2828 94.9486Z"
            fill="url(#paint4_linear_3887_7470)" />
        <path
            d="M85.2257 67.3428H64.9036C59.2921 67.3428 54.7425 71.8376 54.7425 77.3814V86.2279C54.7425 92.8836 57.42 99.2681 62.183 103.974L64.3218 106.087C66.8621 108.597 70.3092 110.007 73.9012 110.007H76.2255C79.8174 110.007 83.2646 108.597 85.8048 106.087L87.9437 103.974C92.7067 99.2681 95.3842 92.8836 95.3842 86.2279V77.3814C95.3842 71.8376 90.8371 67.3428 85.2257 67.3428Z"
            fill="url(#paint5_linear_3887_7470)" />
        <path
            d="M113.169 120.295H103.007C101.603 120.295 100.467 119.17 100.467 117.785C100.467 116.4 101.603 115.275 103.007 115.275H113.169C114.571 115.275 115.709 114.149 115.709 112.766V102.727C115.709 101.342 116.844 100.217 118.249 100.217C119.654 100.217 120.789 101.342 120.789 102.727V112.766C120.789 116.917 117.37 120.295 113.169 120.295Z"
            fill="url(#paint6_linear_3887_7470)" />
        <path
            d="M31.8801 54.7941C30.4753 54.7941 29.3398 53.6697 29.3398 52.2844V42.2458C29.3398 38.0948 32.759 34.7168 36.9606 34.7168H47.1217C48.5264 34.7168 49.6619 35.8411 49.6619 37.2265C49.6619 38.6118 48.5264 39.7361 47.1217 39.7361H36.9606C35.5584 39.7361 34.4204 40.8629 34.4204 42.2458V52.2844C34.4204 53.6697 33.2849 54.7941 31.8801 54.7941Z"
            fill="url(#paint7_linear_3887_7470)" />
        <path
            d="M47.1217 120.295H36.9606C32.759 120.295 29.3398 116.917 29.3398 112.766V102.727C29.3398 101.342 30.4753 100.217 31.8801 100.217C33.2849 100.217 34.4204 101.342 34.4204 102.727V112.766C34.4204 114.149 35.5584 115.275 36.9606 115.275H47.1217C48.5264 115.275 49.6619 116.4 49.6619 117.785C49.6619 119.17 48.5264 120.295 47.1217 120.295Z"
            fill="url(#paint8_linear_3887_7470)" />
        <path
            d="M118.249 54.7941C116.844 54.7941 115.709 53.6697 115.709 52.2844V42.2458C115.709 40.8629 114.571 39.7361 113.169 39.7361H103.007C101.603 39.7361 100.467 38.6118 100.467 37.2265C100.467 35.8411 101.603 34.7168 103.007 34.7168H113.169C117.37 34.7168 120.789 38.0948 120.789 42.2458V52.2844C120.789 53.6697 119.654 54.7941 118.249 54.7941Z"
            fill="url(#paint9_linear_3887_7470)" />
        <path fill-rule="evenodd" clip-rule="evenodd"
            d="M69.0776 14.9777C69.258 14.5395 69.4385 14.0625 69.619 13.5469L70.1088 12.8121C70.0315 13.3535 69.9498 13.8949 69.8639 14.4363C69.778 14.9777 69.7006 15.5234 69.6319 16.0734L68.6135 16.1121C68.7424 15.7855 68.8971 15.4074 69.0776 14.9777ZM69.6319 16.0992C69.5116 16.1164 69.3913 16.125 69.2709 16.125C69.2108 16.125 69.228 16.1207 69.3225 16.1121C69.417 16.1035 69.5202 16.0949 69.6319 16.0863V16.0992ZM78.5719 15.9684C78.6697 15.9127 78.7682 15.8403 78.8674 15.7512L78.7901 15.7254C78.7385 15.7168 78.7256 15.7125 78.7514 15.7125C78.7772 15.7039 78.7643 15.7039 78.7127 15.7125H78.6869C78.6698 15.7641 78.6483 15.8156 78.6225 15.8672L78.5719 15.9684ZM99.2692 17.069C99.0339 17.0899 98.831 17.1233 98.6607 17.1691C98.4372 17.2293 98.2997 17.3109 98.2482 17.4141C98.1966 17.5086 98.2911 17.6246 98.5318 17.7621C98.7722 17.5326 99.018 17.3016 99.2692 17.069ZM107.258 17.3496C107.137 17.4098 106.996 17.4312 106.832 17.4141C106.678 17.3969 106.523 17.3496 106.368 17.2723C106.214 17.1863 106.093 17.0875 106.007 16.9758C105.921 16.8555 105.887 16.7266 105.904 16.5891C105.921 16.4516 106.012 16.327 106.175 16.2152C106.338 16.1035 106.42 16.0219 106.42 15.9703C106.42 15.9445 106.519 15.8844 106.716 15.7898L107.026 15.6738C107.198 15.9145 107.331 16.1336 107.425 16.3312C107.528 16.5203 107.558 16.7223 107.516 16.9371C107.473 17.152 107.387 17.2895 107.258 17.3496ZM108.444 10.8656C108.547 10.8656 108.62 10.9258 108.663 11.0461L108.753 11.1105C108.762 11.1535 108.809 11.248 108.895 11.3941C108.981 11.5402 108.998 11.6434 108.946 11.7035C108.723 12.0473 108.487 12.3395 108.237 12.5801C108.126 12.6746 108.023 12.7563 107.928 12.825C107.833 12.8938 107.743 12.9711 107.657 13.057L107.619 12.9926C107.395 12.6402 107.361 12.2535 107.516 11.8324C107.576 11.6434 107.662 11.4758 107.773 11.3297C107.885 11.1836 107.997 11.0719 108.108 10.9945C108.229 10.9086 108.341 10.8656 108.444 10.8656ZM88.0242 17.2214C88.0214 17.1901 88.0201 17.1591 88.0203 17.1285C88.0098 17.0839 88.0014 17.0373 87.9951 16.9887L88.0242 17.2214ZM88.0337 17.298C88.0296 17.2723 88.0264 17.2467 88.0242 17.2214L88.0337 17.298Z"
            fill="url(#paint10_linear_3887_7470)" />
        <path fill-rule="evenodd" clip-rule="evenodd"
            d="M36.7676 0.146484H113.232C117.116 0.146484 120.264 3.29448 120.264 7.17773V20.6543C120.264 24.5375 117.116 27.6855 113.232 27.6855H36.7676C32.8843 27.6855 29.7363 24.5375 29.7363 20.6543V7.17773C29.7363 3.29448 32.8843 0.146484 36.7676 0.146484ZM72.9319 10.8398C72.8545 10.5391 72.6698 10.3113 72.3776 10.1566C72.601 9.78711 72.5538 9.48203 72.2358 9.24141C72.0983 9.13828 71.9307 9.06094 71.733 9.00937C71.5354 8.95781 71.342 8.93633 71.153 8.94492C70.9725 8.95352 70.7877 9.00508 70.5987 9.09961C70.4096 9.18555 70.2334 9.26289 70.0702 9.33164C69.0733 10.2684 68.158 11.4199 67.3245 12.7863C66.9377 13.4223 66.5338 14.1699 66.1127 15.0293C65.7002 15.8801 65.3823 16.6105 65.1588 17.2207C64.7463 18.3723 64.6776 19.077 64.9526 19.3348C65.0987 19.5926 65.2963 19.7387 65.5455 19.773C65.7948 19.816 66.044 19.7988 66.2932 19.7215C66.6885 19.6184 67.1354 19.1199 67.6338 18.2262C67.694 18.1832 67.8057 18.1574 67.969 18.1488C68.0377 18.1402 68.1151 18.1273 68.201 18.1102C68.287 18.0844 68.3557 18.0543 68.4073 18.0199C68.4588 17.977 68.5877 17.8824 68.794 17.7363C69.0002 17.5816 69.2323 17.457 69.4901 17.3625V17.3883C69.4729 17.5516 69.4557 17.7578 69.4385 18.007C69.4299 18.2477 69.4041 18.4453 69.3612 18.6C69.258 18.9867 69.2838 19.2402 69.4385 19.3605C69.6963 19.584 70.0444 19.6957 70.4827 19.6957C70.8952 19.6957 71.2217 19.5582 71.4623 19.2832C71.4795 19.1887 71.4967 19.0984 71.5139 19.0125C71.5311 18.9352 71.5483 18.8492 71.5655 18.7547L71.6428 18.484C71.703 18.166 71.7545 17.848 71.7975 17.5301C71.8491 17.2121 71.9393 16.7352 72.0682 16.0992C72.1971 15.4547 72.3303 14.6598 72.4678 13.7145C72.6053 12.7605 72.76 11.8023 72.9319 10.8398ZM77.6428 9.16406C78.8803 8.91484 79.8428 9.06953 80.5303 9.62812C80.8569 9.89453 81.0717 10.2812 81.1748 10.7883C81.2865 11.2953 81.2307 11.8625 81.0072 12.4898C80.9127 12.782 80.7494 13.0012 80.5174 13.1473C80.2854 13.2934 80.0448 13.3793 79.7955 13.4051C79.5549 13.4223 79.3358 13.3922 79.1381 13.3148C78.9405 13.2289 78.833 13.1086 78.8158 12.9539L78.6998 12.6961C78.4936 12.3867 78.1369 12.348 77.6299 12.5801C77.1916 12.7777 76.7533 13.1215 76.3151 13.6113C75.851 14.1355 75.5502 14.6082 75.4127 15.0293C75.258 15.4934 75.1807 15.7984 75.1807 15.9445C75.1635 16.2711 75.2795 16.5633 75.5287 16.8211C75.8897 17.0531 76.2506 17.1605 76.6115 17.1434C76.9725 17.1176 77.2947 17.0359 77.5783 16.8984C77.8619 16.7523 78.094 16.5891 78.2744 16.4086C78.4549 16.2281 78.5451 16.0992 78.5451 16.0219L78.5719 15.9684C78.2547 16.149 77.945 16.154 77.6428 15.9832C77.4881 15.8887 77.3506 15.7898 77.2303 15.6867C77.11 15.575 76.9983 15.5234 76.8951 15.532C76.7061 15.4289 76.6631 15.227 76.7662 14.9262C76.8092 14.8059 76.8865 14.6941 76.9983 14.591C77.1186 14.4793 77.269 14.402 77.4494 14.359C78.3088 13.9895 79.1037 13.9035 79.8342 14.1012C80.1608 14.1871 80.3842 14.3633 80.5045 14.6297C80.6334 14.8875 80.6893 15.1797 80.6721 15.5063C80.6549 15.8328 80.5819 16.1637 80.4529 16.4988C80.3326 16.834 80.1994 17.1047 80.0533 17.3109C79.9072 17.5086 79.701 17.7449 79.4346 18.0199C79.1768 18.2949 78.8502 18.5613 78.4549 18.8191C77.4838 19.4465 76.444 19.7473 75.3354 19.7215C73.7283 19.6957 72.7787 19.0383 72.4865 17.7492C72.392 17.3367 72.349 16.8727 72.3576 16.357C72.4436 14.8617 72.8904 13.4652 73.6983 12.1676C74.085 11.5488 74.6049 10.9387 75.258 10.3371C75.6705 9.96758 76.1346 9.68398 76.6502 9.48633C76.9252 9.37461 77.2561 9.26719 77.6428 9.16406ZM84.78 17.3496C84.5393 17.3496 84.1698 17.3238 83.6714 17.2723C83.594 17.2723 83.5725 17.1949 83.6069 17.0402C83.6929 16.6621 83.9378 16.1293 84.3417 15.4418C84.6253 15.4246 84.7972 15.4117 84.8573 15.4031C84.9003 15.3945 84.9604 15.3816 85.0378 15.3645C85.1237 15.3387 85.2784 15.3043 85.5019 15.2613C85.8542 15.1324 86.1249 14.9262 86.314 14.6426C86.5116 14.359 86.6448 14.1055 86.7136 13.882C86.7909 13.65 86.7651 13.5211 86.6362 13.4953C86.5159 13.4695 86.3526 13.4738 86.1464 13.5082C85.9487 13.534 85.7296 13.5641 85.489 13.5984C85.2569 13.6242 85.0593 13.5984 84.896 13.5211L84.9475 13.2375C84.9905 13.0398 85.0636 12.8551 85.1667 12.6832C85.2698 12.5113 85.3815 12.3309 85.5019 12.1418C85.5964 11.9699 85.7511 11.8324 85.9659 11.7293C86.0776 11.6777 86.387 11.5789 86.894 11.4328C87.2893 11.3727 87.6159 11.2137 87.8737 10.9559C88.1401 10.698 88.3163 10.423 88.4022 10.1309C88.4968 9.83867 88.4839 9.57656 88.3636 9.34453C88.2518 9.1039 88.0155 8.9793 87.6546 8.9707C86.6147 8.80742 85.2011 9.08242 83.4136 9.7957C83.2761 9.84726 83.1858 9.9375 83.1429 10.0664C83.0999 10.1953 83.0741 10.3414 83.0655 10.5047C83.0569 10.668 83.044 10.8355 83.0268 11.0074C83.0183 11.1793 82.9796 11.334 82.9108 11.4715C82.5843 12.1246 82.2921 12.7477 82.0343 13.3406C81.2436 15.1625 80.8483 16.9758 80.8483 18.7805C80.8226 19.2703 81.1878 19.584 81.944 19.7215C82.6315 19.8074 83.2675 19.8289 83.8518 19.7859C84.2042 19.7602 84.6897 19.6699 85.3085 19.5152C85.6952 19.3691 86.0304 19.1113 86.314 18.7418C86.4257 18.5957 86.4944 18.4625 86.5202 18.3422C86.5546 18.2133 86.5331 18.1359 86.4557 18.1102C86.3097 18.0586 86.228 17.9941 86.2108 17.9168C86.1936 17.8395 86.1893 17.7621 86.1979 17.6848C86.2065 17.5988 86.1979 17.5172 86.1722 17.4398C86.1464 17.3625 86.0561 17.298 85.9015 17.2465C85.403 17.3152 85.0292 17.3496 84.78 17.3496ZM92.3392 12.941C92.2705 12.752 92.1416 12.5973 91.9525 12.477C91.5572 12.2363 91.0545 12.159 90.4443 12.2449C89.7912 12.3395 89.34 12.6359 89.0908 13.1344C88.9189 13.6242 89.0564 13.9809 89.5033 14.2043C89.7009 14.3074 89.933 14.3719 90.1994 14.3977C90.4658 14.4148 90.7279 14.402 90.9857 14.359C91.2521 14.3074 91.5013 14.2172 91.7334 14.0883C91.9654 13.9594 92.1416 13.7832 92.2619 13.5598C92.3822 13.3277 92.408 13.1215 92.3392 12.941ZM91.2306 16.3957C91.1619 16.9027 90.8697 17.3066 90.3541 17.6074C89.8728 17.891 89.3873 17.9855 88.8974 17.891C88.6654 17.848 88.4634 17.7535 88.2916 17.6074C88.1581 17.488 88.0677 17.3284 88.0203 17.1285C88.0201 17.1591 88.0214 17.1901 88.0242 17.2214L88.0337 17.298C88.0296 17.2723 88.0264 17.2467 88.0242 17.2214L87.9951 16.9887C88.0014 17.0373 88.0098 17.0839 88.0203 17.1285C88.0217 16.9286 88.0863 16.7445 88.2142 16.5762C88.3775 16.3613 88.588 16.1809 88.8459 16.0348C89.1037 15.8801 89.383 15.7684 89.6837 15.6996C89.9931 15.6223 90.2724 15.5965 90.5216 15.6223C90.7709 15.6395 90.9642 15.7082 91.1017 15.8285C91.2478 15.9488 91.2865 16.125 91.2177 16.357L91.2306 16.3957ZM100.04 11.9098C99.9454 12.2793 99.5845 12.5543 98.9571 12.7348C98.39 12.8895 97.8829 12.8723 97.4361 12.6832C97.2298 12.5887 97.0794 12.4512 96.9849 12.2707C96.8989 12.0902 96.9118 11.8582 97.0235 11.5746C97.4275 10.8012 97.8915 10.148 98.4157 9.61523C98.5962 9.42617 98.7767 9.27578 98.9571 9.16406C99.1978 8.975 99.5028 8.82031 99.8724 8.7C100.25 8.57109 100.642 8.50234 101.045 8.49375C101.982 8.47656 102.717 8.73438 103.25 9.26719C103.74 9.68828 103.954 10.234 103.894 10.9043C103.817 11.7551 103.19 12.9066 102.012 14.359C101.522 14.9605 100.959 15.5449 100.324 16.1121C99.9621 16.4339 99.6107 16.7529 99.2692 17.069C99.3425 17.0625 99.419 17.0572 99.4985 17.0531C99.8337 17.0273 100.165 17.023 100.491 17.0402C101.273 17.0832 101.729 17.1949 101.858 17.3754C101.969 17.4441 102.038 17.573 102.064 17.7621C102.098 17.9512 102.09 18.1574 102.038 18.3809C101.918 18.8879 101.694 19.2703 101.368 19.5281C101.144 19.7516 100.547 19.9234 99.5759 20.0438C98.6048 20.1641 97.7454 20.177 96.9978 20.0824C96.6368 20.0309 96.3489 19.9492 96.1341 19.8375C95.9193 19.7258 95.8419 19.5883 95.9021 19.425C95.9622 19.2703 95.9622 19.15 95.9021 19.0641C95.8419 18.9781 95.7775 18.8879 95.7087 18.7934C95.5454 18.5441 95.554 18.252 95.7345 17.9168C96.0009 17.4699 96.2372 17.1348 96.4435 16.9113C96.6497 16.6879 96.8603 16.4473 97.0751 16.1895C97.2985 15.9316 97.5521 15.6523 97.8357 15.3516C98.1278 15.0508 98.4157 14.7543 98.6993 14.4621C99.3353 13.7918 99.8767 13.1516 100.324 12.5414C100.53 12.2406 100.689 11.9613 100.8 11.7035C100.912 11.4457 100.959 11.1578 100.942 10.8398C100.839 10.9516 100.745 11.0461 100.659 11.1234C100.573 11.1922 100.495 11.2652 100.427 11.3426C100.246 11.5145 100.117 11.7035 100.04 11.9098ZM109.398 8.53242C109.234 8.48945 108.964 8.46797 108.585 8.46797C107.786 8.43359 107.017 8.66992 106.278 9.17695C105.934 9.40898 105.633 9.68828 105.376 10.0148C105.118 10.3328 104.929 10.6594 104.808 10.9945C104.697 11.3297 104.645 11.6305 104.654 11.8969C104.662 12.1633 104.727 12.4641 104.847 12.7992C104.967 13.1258 105.238 13.5383 105.659 14.0367L104.834 14.5137C104.19 14.9262 103.726 15.373 103.442 15.8543C103.064 16.4816 102.922 17.2121 103.017 18.0457C103.111 18.6301 103.296 19.0641 103.571 19.3477C103.855 19.6398 104.185 19.8375 104.564 19.9406C104.942 20.0523 105.346 20.0953 105.775 20.0695C106.205 20.0523 106.583 20.0266 106.91 19.9922C107.236 19.9578 107.571 19.8676 107.915 19.7215C108.259 19.5754 108.59 19.3691 108.908 19.1027C109.234 18.8449 109.514 18.5227 109.746 18.1359C109.986 17.7406 110.124 17.3023 110.158 16.8211C110.201 16.3398 110.145 15.8887 109.991 15.4676C109.801 14.9863 109.548 14.634 109.23 14.4105C109.496 14.2301 109.75 14.041 109.991 13.8434C110.781 13.173 111.284 12.4039 111.499 11.5359C111.662 10.943 111.615 10.3973 111.357 9.89883C111.091 9.3918 110.704 9.18555 110.197 9.28008C110.033 8.89336 109.767 8.64414 109.398 8.53242Z"
            fill="url(#paint11_linear_3887_7470)" />
        <g opacity="0.6">
            <path
                d="M43.74 9.00536C45.2155 9.00536 46.4116 7.80923 46.4116 6.33373C46.4116 4.85824 45.2155 3.66211 43.74 3.66211C42.2645 3.66211 41.0684 4.85824 41.0684 6.33373C41.0684 7.80923 42.2645 9.00536 43.74 9.00536Z"
                fill="black" />
            <path
                d="M48.911 17.4168L47.389 11.4447C47.1166 10.3792 46.1593 9.63421 45.0618 9.63421H42.4182C41.3207 9.63421 40.3594 10.3792 40.0911 11.4447L38.569 17.4168C38.3447 18.302 39.0136 19.1631 39.9269 19.1631H41.0644V22.9683C41.0644 23.6332 41.6011 24.1699 42.266 24.1699H45.21C45.8749 24.1699 46.4117 23.6332 46.4117 22.9683V19.1631H47.5532C48.4664 19.1631 49.1353 18.302 48.911 17.4168Z"
                fill="black" />
        </g>
        <path
            d="M55.7768 9.63821H53.2333C51.9075 9.63821 50.8301 10.7157 50.8301 12.0415V16.3593C50.8301 16.9561 51.2627 17.4488 51.8314 17.5449V22.9683C51.8314 23.6332 52.3682 24.1699 53.0331 24.1699H55.9771C56.642 24.1699 57.1787 23.6332 57.1787 22.9683V17.5449C57.7475 17.4488 58.18 16.9561 58.18 16.3593V12.0415C58.18 10.7117 57.1066 9.63821 55.7768 9.63821Z"
            fill="url(#paint12_linear_3887_7470)" />
        <path
            d="M54.5071 9.00536C55.9826 9.00536 57.1787 7.80923 57.1787 6.33373C57.1787 4.85824 55.9826 3.66211 54.5071 3.66211C53.0316 3.66211 51.8354 4.85824 51.8354 6.33373C51.8354 7.80923 53.0316 9.00536 54.5071 9.00536Z"
            fill="url(#paint13_linear_3887_7470)" />
    </g>
    <defs>
        <linearGradient id="paint0_linear_3887_7470" x1="75.0644" y1="108.631" x2="75.0644" y2="148.357"
            gradientUnits="userSpaceOnUse">
            <stop stop-color="#4793EB" />
            <stop offset="0.31" stop-color="#438FEB" />
            <stop offset="0.602" stop-color="#3A83EB" />
            <stop offset="0.884" stop-color="#2B71EB" />
            <stop offset="1" stop-color="#2367EC" />
        </linearGradient>
        <linearGradient id="paint1_linear_3887_7470" x1="75.0646" y1="107.289" x2="75.0646" y2="124.605"
            gradientUnits="userSpaceOnUse">
            <stop stop-color="#2B50D2" />
            <stop offset="1" stop-color="#182EA5" />
        </linearGradient>
        <linearGradient id="paint2_linear_3887_7470" x1="64.9034" y1="111.261" x2="85.2255" y2="111.261"
            gradientUnits="userSpaceOnUse">
            <stop stop-color="#F1D2BD" />
            <stop offset="1" stop-color="#FEB592" />
        </linearGradient>
        <linearGradient id="paint3_linear_3887_7470" x1="49.8398" y1="50.9669" x2="97.2286" y2="84.1121"
            gradientUnits="userSpaceOnUse">
            <stop stop-color="#3E4154" />
            <stop offset="1" stop-color="#1B2129" />
        </linearGradient>
        <linearGradient id="paint4_linear_3887_7470" x1="47.1218" y1="87.4196" x2="103.008" y2="87.4196"
            gradientUnits="userSpaceOnUse">
            <stop stop-color="#F1D2BD" />
            <stop offset="0.13" stop-color="#FEB592" />
            <stop offset="0.87" stop-color="#FEB592" />
            <stop offset="1" stop-color="#F1D2BD" />
        </linearGradient>
        <linearGradient id="paint5_linear_3887_7470" x1="75.0646" y1="67.3428" x2="75.0646" y2="110.007"
            gradientUnits="userSpaceOnUse">
            <stop stop-color="#F1D2BD" />
            <stop offset="0.314" stop-color="#F2CFB9" />
            <stop offset="0.608" stop-color="#F5C7AD" />
            <stop offset="0.894" stop-color="#FBBB9B" />
            <stop offset="1" stop-color="#FEB592" />
        </linearGradient>
        <linearGradient id="paint6_linear_3887_7470" x1="66.9827" y1="69.9428" x2="107.831" y2="113.594"
            gradientUnits="userSpaceOnUse">
            <stop stop-color="#F0F2F2" />
            <stop offset="1" stop-color="#CACFD0" />
        </linearGradient>
        <linearGradient id="paint7_linear_3887_7470" x1="39.3993" y1="44.1304" x2="80.2477" y2="87.7814"
            gradientUnits="userSpaceOnUse">
            <stop stop-color="#F0F2F2" />
            <stop offset="1" stop-color="#CACFD0" />
        </linearGradient>
        <linearGradient id="paint8_linear_3887_7470" x1="18.8917" y1="50.752" x2="98.0375" y2="135.328"
            gradientUnits="userSpaceOnUse">
            <stop stop-color="#F0F2F2" />
            <stop offset="1" stop-color="#CACFD0" />
        </linearGradient>
        <linearGradient id="paint9_linear_3887_7470" x1="104.275" y1="27.653" x2="122.883" y2="46.4877"
            gradientUnits="userSpaceOnUse">
            <stop stop-color="#F0F2F2" />
            <stop offset="1" stop-color="#CACFD0" />
        </linearGradient>
        <linearGradient id="paint10_linear_3887_7470" x1="29.7363" y1="13.916" x2="120.264" y2="13.916"
            gradientUnits="userSpaceOnUse">
            <stop stop-color="#F0F2F2" />
            <stop offset="1" stop-color="#CACFD0" />
        </linearGradient>
        <linearGradient id="paint11_linear_3887_7470" x1="29.7363" y1="13.916" x2="120.264" y2="13.916"
            gradientUnits="userSpaceOnUse">
            <stop stop-color="#F0F2F2" />
            <stop offset="1" stop-color="#CACFD0" />
        </linearGradient>
        <linearGradient id="paint12_linear_3887_7470" x1="54.5048" y1="5.18031" x2="54.5048" y2="23.3448"
            gradientUnits="userSpaceOnUse">
            <stop stop-color="#4793EB" />
            <stop offset="0.31" stop-color="#438FEB" />
            <stop offset="0.602" stop-color="#3A83EB" />
            <stop offset="0.884" stop-color="#2B71EB" />
            <stop offset="1" stop-color="#2367EC" />
        </linearGradient>
        <linearGradient id="paint13_linear_3887_7470" x1="54.5048" y1="5.18031" x2="54.5048" y2="23.3448"
            gradientUnits="userSpaceOnUse">
            <stop stop-color="#4793EB" />
            <stop offset="0.31" stop-color="#438FEB" />
            <stop offset="0.602" stop-color="#3A83EB" />
            <stop offset="0.884" stop-color="#2B71EB" />
            <stop offset="1" stop-color="#2367EC" />
        </linearGradient>
        <clipPath id="clip0_3887_7470">
            <rect width="150" height="150" fill="white" />
        </clipPath>
    </defs>
</svg>