<svg width="123" height="123" viewBox="0 0 123 123" fill="none" xmlns="http://www.w3.org/2000/svg">
<path d="M23.0589 0.20752H3.88834C1.83512 0.20752 0.170532 1.8594 0.170532 3.89695V22.9211C0.170532 24.9587 1.83512 26.6106 3.88834 26.6106C5.94157 26.6106 7.60616 24.9587 7.60616 22.9211V7.58638H23.0589C25.1121 7.58638 26.7767 5.9345 26.7767 3.89695C26.7767 1.8594 25.1121 0.20752 23.0589 0.20752Z" fill="#2880BD"/>
<path d="M119.111 0.20752H99.941C97.8877 0.20752 96.2231 1.8594 96.2231 3.89695C96.2231 5.9345 97.8877 7.58638 99.941 7.58638H115.394V22.9211C115.394 24.9587 117.058 26.6106 119.111 26.6106C121.165 26.6106 122.829 24.9587 122.829 22.9211V3.89695C122.829 1.85916 121.165 0.20752 119.111 0.20752Z" fill="#0D4D73"/>
<path d="M119.111 95.7554C117.058 95.7554 115.394 97.4073 115.394 99.4448V114.78H99.941C97.8877 114.78 96.2231 116.431 96.2231 118.469C96.2231 120.507 97.8877 122.158 99.941 122.158H119.111C121.165 122.158 122.829 120.507 122.829 118.469V99.4448C122.829 97.4073 121.165 95.7554 119.111 95.7554Z" fill="#0D4D73"/>
<path d="M23.0589 114.78H7.60616V99.4448C7.60616 97.4073 5.94157 95.7554 3.88834 95.7554C1.83512 95.7554 0.170532 97.4073 0.170532 99.4448V118.469C0.170532 120.507 1.83512 122.158 3.88834 122.158H23.0589C25.1121 122.158 26.7767 120.507 26.7767 118.469C26.7767 116.431 25.1121 114.78 23.0589 114.78Z" fill="#2880BD"/>
<path d="M42.174 48.6538C40.1727 48.6538 38.4554 47.1399 38.2449 45.1056C38.0202 42.933 39.5992 40.9895 41.7718 40.7648L54.7247 39.4248L65.8734 27.9829C67.3977 26.4187 69.9014 26.386 71.466 27.9102C73.0303 29.4344 73.0628 31.9383 71.5386 33.5027L59.3898 45.9711C58.7437 46.6342 57.8852 47.0498 56.9641 47.145L42.5858 48.6325C42.4475 48.6468 42.31 48.6538 42.174 48.6538Z" fill="#FFB69E"/>
<path d="M52.6811 39.6362L41.7718 40.7647C39.5992 40.9895 38.0202 42.9329 38.2449 45.1055C38.4554 47.1398 40.1727 48.6537 42.174 48.6537C42.31 48.6537 42.4475 48.6467 42.5858 48.6324L53.8946 47.4626L52.6811 39.6362Z" fill="#4699F2"/>
<path d="M91.5785 71.891L77.4262 58.3959L58.2036 68.4037C55.8789 69.6143 53.0128 68.7107 51.8026 66.3858C50.5922 64.061 51.4956 61.1952 53.8205 59.9849L76.0576 48.4074C77.86 47.4693 80.0599 47.7822 81.5287 49.1865L98.1375 65.03C100.032 66.8411 100.1 69.8453 98.2885 71.7399C96.4752 73.6366 93.4709 73.7002 91.5785 71.891Z" fill="#414B82"/>
<path d="M92.885 93.689L73.7439 78.5257L53.8384 76.4737L55.7338 67.1733L76.7652 69.4547C77.5049 69.6056 78.1982 69.9306 78.7873 70.4032L98.8246 86.2855C100.869 87.9256 101.197 90.9125 99.5566 92.9571C97.9244 94.9916 94.9387 95.3365 92.885 93.689Z" fill="#5F6E9B"/>
<path d="M61.2107 54.5557L46.9818 42.5814C43.9884 40.0623 39.5416 40.3509 36.8991 43.2359L32.284 48.274C29.4852 51.3296 29.788 56.0995 32.951 58.7764L53.8611 76.4737L62.2333 66.558C65.2693 62.9627 64.8113 57.5858 61.2107 54.5557Z" fill="#64AFFF"/>
<path d="M36.6942 85.6287L28.1634 71.2367C27.5771 70.312 27.4006 69.1856 27.6754 68.126L32.1658 51.7484C32.7143 49.6341 34.8729 48.3647 36.987 48.9134C39.1013 49.4619 40.3705 51.6204 39.822 53.7347L35.7627 68.4511L43.3744 81.3937C44.5437 83.2383 43.9964 85.6819 42.1516 86.8514C40.3104 88.0187 37.8659 87.477 36.6942 85.6287Z" fill="#FFB69E"/>
<path d="M36.9249 64.2381L39.8221 53.7347C40.3706 51.6204 39.1014 49.4619 36.9871 48.9134C34.873 48.3647 32.7143 49.6341 32.1658 51.7484L29.3315 62.0861L36.9249 64.2381Z" fill="#4699F2"/>
<path d="M29.089 45.319C33.2888 45.0749 36.4955 41.4725 36.2514 37.2727C36.0073 33.073 32.4049 29.8662 28.2052 30.1103C24.0054 30.3544 20.7987 33.9568 21.0428 38.1566C21.2868 42.3563 24.8893 45.563 29.089 45.319Z" fill="#FFB69E"/>
</svg>
