<svg width="123" height="123" viewBox="0 0 123 123" fill="none" xmlns="http://www.w3.org/2000/svg">
<path d="M23.0589 0.20752H3.88834C1.83512 0.20752 0.170532 1.8594 0.170532 3.89695V22.9211C0.170532 24.9587 1.83512 26.6106 3.88834 26.6106C5.94157 26.6106 7.60616 24.9587 7.60616 22.9211V7.58638H23.0589C25.1121 7.58638 26.7767 5.9345 26.7767 3.89695C26.7767 1.8594 25.1121 0.20752 23.0589 0.20752Z" fill="#2880BD"/>
<path d="M119.111 0.20752H99.941C97.8877 0.20752 96.2231 1.8594 96.2231 3.89695C96.2231 5.9345 97.8877 7.58638 99.941 7.58638H115.394V22.9211C115.394 24.9587 117.058 26.6106 119.111 26.6106C121.165 26.6106 122.829 24.9587 122.829 22.9211V3.89695C122.829 1.85916 121.165 0.20752 119.111 0.20752Z" fill="#0D4D73"/>
<path d="M119.111 95.7554C117.058 95.7554 115.394 97.4073 115.394 99.4448V114.78H99.941C97.8877 114.78 96.2231 116.431 96.2231 118.469C96.2231 120.507 97.8877 122.158 99.941 122.158H119.111C121.165 122.158 122.829 120.507 122.829 118.469V99.4448C122.829 97.4073 121.165 95.7554 119.111 95.7554Z" fill="#0D4D73"/>
<path d="M23.0589 114.78H7.60616V99.4448C7.60616 97.4073 5.94157 95.7554 3.88834 95.7554C1.83512 95.7554 0.170532 97.4073 0.170532 99.4448V118.469C0.170532 120.507 1.83512 122.158 3.88834 122.158H23.0589C25.1121 122.158 26.7767 120.507 26.7767 118.469C26.7767 116.431 25.1121 114.78 23.0589 114.78Z" fill="#2880BD"/>
<path d="M54.224 40.7367L50.4773 41.4877L37.6511 39.0919C36.2593 38.832 34.9194 39.7496 34.6593 41.1419C34.3992 42.5342 35.3171 43.8736 36.7093 44.1337L50.0237 46.6207C50.1794 46.6498 50.3371 46.6644 50.4946 46.6644C50.6635 46.6644 50.8323 46.6476 50.9987 46.6143L54.6027 45.892L55.6672 42.8562L54.224 40.7367Z" fill="#B05733"/>
<path d="M64.2657 41.3393C63.9874 39.9506 62.6362 39.0505 61.2471 39.3288L54.2239 40.7366L54.7557 45.8613L62.2553 44.3579C63.644 44.0794 64.5441 42.728 64.2657 41.3393Z" fill="#FFDA52"/>
<path d="M28.7106 40.4547L33.7832 39.1504C34.6855 40.5991 34.0076 42.5107 32.3943 43.0671L32.2399 43.1204C30.5445 43.7053 28.7685 42.4771 28.7173 40.6845L28.7106 40.4547Z" fill="#FFA385"/>
<path d="M44.2171 35.5303C42.8008 35.5303 41.6526 36.6785 41.6526 38.0948V43.94L41.0534 43.0596L38.2946 48.0184C38.2946 48.0518 38.2915 48.0831 38.2898 48.1154L42.0967 53.7099C42.7289 54.6388 43.8937 55.05 44.9718 54.7181C46.0475 54.3868 46.7816 53.3928 46.7816 52.2672V38.0948C46.7817 36.6785 45.6335 35.5303 44.2171 35.5303Z" fill="#FFB69E"/>
<path d="M39.1092 40.2022C38.3122 39.0311 36.717 38.7279 35.5462 39.5247C34.3751 40.3215 34.0718 41.9166 34.8687 43.0877L39.064 49.2528L41.7009 46.5671L41.6526 43.9399L39.1092 40.2022Z" fill="#64AFFF"/>
<path d="M51.4792 94.7677C49.7994 94.5094 48.647 92.9381 48.9055 91.2583L51.4816 74.5095C51.4962 74.4138 51.5156 74.3189 51.5392 74.225L55.0475 60.3089C55.4631 58.6608 57.1356 57.6614 58.7839 58.0771C60.4319 58.4925 61.4312 60.1653 61.0157 61.8135L57.543 75.5889L54.989 92.194C54.7303 93.874 53.1591 95.0261 51.4792 94.7677Z" fill="#748488"/>
<path d="M69.1737 94.8039C67.8773 94.8041 66.6716 93.9785 66.2482 92.679L61.3414 77.6195C61.2225 77.255 61.173 76.8715 61.195 76.4887L62.0647 61.429C62.1626 59.7321 63.619 58.435 65.3144 58.5341C67.0112 58.6322 68.3073 60.087 68.2092 61.7838L67.373 76.2642L72.1001 90.7722C72.6266 92.3882 71.7434 94.125 70.1274 94.6515C69.8111 94.7548 69.4895 94.8039 69.1737 94.8039Z" fill="#55696E"/>
<path d="M70.1089 40.6502L64.6676 39.3504C62.5122 38.7719 60.2483 40.2283 59.6107 42.6033L54.224 63.1348L67.9417 66.6561L73.329 46.2035C73.967 43.7815 72.5277 41.2994 70.1089 40.6502Z" fill="#FFDA52"/>
<path d="M66.1242 40.818C68.8894 39.8346 70.3338 36.7958 69.3505 34.0307C68.3671 31.2655 65.3283 29.821 62.5631 30.8044C59.7979 31.7878 58.3535 34.8266 59.3368 37.5918C60.3202 40.3569 63.359 41.8014 66.1242 40.818Z" fill="#BA6746"/>
<path d="M43.804 94.804C43.7781 94.804 43.7524 94.8036 43.7263 94.803C42.0272 94.7609 40.6839 93.3496 40.726 91.6505L41.1301 75.3222L37.7247 61.814L44.3467 62.9028L47.2011 74.2255C47.2693 74.4962 47.3005 74.7749 47.2935 75.054L46.8791 91.8029C46.8377 93.4757 45.4682 94.8038 43.804 94.804Z" fill="#414B82"/>
<path d="M28.6126 94.6519C26.9966 94.1254 26.1134 92.3886 26.6399 90.7726L31.367 76.2645L30.5307 61.7842C30.4327 60.0874 31.7288 58.6324 33.4256 58.5345C35.1226 58.4366 36.5774 59.7326 36.6752 61.4293L37.5449 76.489C37.567 76.8718 37.5174 77.2552 37.3986 77.6198L32.4917 92.6794C31.9671 94.2901 30.2332 95.1801 28.6126 94.6519Z" fill="#5F6E9B"/>
<path d="M38.8305 42.4053C38.1941 40.0337 35.9355 38.5783 33.783 39.1502C33.8406 39.3587 33.8783 39.5752 33.8883 39.7982C33.9523 41.2254 32.6279 42.441 31.2454 42.441C29.9976 42.441 29.0253 41.581 28.7104 40.4545L25.71 41.2262L24.6807 42.0966L30.8008 66.458L44.3468 62.9028L38.8305 42.4053Z" fill="#64AFFF"/>
<path d="M27.4855 50.0122L28.8203 44.3001C29.1425 42.9209 28.2857 41.5415 26.9065 41.2193C25.527 40.8968 24.1479 41.7539 23.8257 43.1329L22.2183 50.0122L24.8903 50.5167L27.4855 50.0122Z" fill="#64AFFF"/>
<path d="M36.8541 49.9891C36.4014 48.647 34.9464 47.9262 33.6044 48.3789L27.3763 50.4799L27.4857 50.0121H22.2183L21.3334 53.7988C20.8779 55.7472 22.7431 57.456 24.6504 56.8123L35.2439 53.2388C36.586 52.7861 37.307 51.331 36.8541 49.9891Z" fill="#FFB69E"/>
<path d="M38.4522 37.9954C39.9199 35.4533 39.0489 32.2028 36.5068 30.735C33.9647 29.2673 30.7141 30.1383 29.2464 32.6804C27.7787 35.2224 28.6496 38.473 31.1917 39.9407C33.7338 41.4085 36.9844 40.5375 38.4522 37.9954Z" fill="#FFB69E"/>
<path d="M60.364 42.5121L56.2119 43.3987L44.1967 41.564C42.7981 41.3498 41.4883 42.3119 41.2745 43.7119C41.0606 45.1121 42.0224 46.4205 43.4226 46.6343L55.9015 48.5398C56.2075 48.5866 56.5203 48.5776 56.8241 48.5126L61.332 47.5499L61.6427 44.6983L60.364 42.5121Z" fill="#BA6746"/>
<path d="M70.6883 42.9299C70.3925 41.5447 69.0295 40.6616 67.6447 40.9575L60.3643 42.5123L61.3324 47.5502L68.716 45.9735C70.1009 45.6777 70.984 44.3151 70.6883 42.9299Z" fill="#F2C41B"/>
<path d="M88.6241 43.553L80.0455 38.2612L77.3011 30.3516L74.2468 30.0903C73.9686 30.6912 72.3324 32.1982 72.3324 32.1982L75.3483 40.8898C75.5482 41.4662 75.9411 41.956 76.4606 42.2763L85.8421 48.0632C86.2756 48.3307 86.756 48.4581 87.2304 48.4581C88.1191 48.4581 88.9873 48.011 89.488 47.1991C90.2566 45.9537 89.8697 44.3212 88.6241 43.553Z" fill="#004470"/>
<path d="M94.4746 92.4104L90.8797 78.3386C90.7875 77.9774 90.7593 77.6025 90.7969 77.2315L92.0127 65.213C92.1895 63.4659 93.7485 62.1917 95.4962 62.3696C97.2433 62.5464 98.3912 65.6165 98.3912 65.6165L97.1805 77.3106L100.636 90.8362C101.071 92.5376 100.044 94.2692 98.3423 94.7039C96.6367 95.1399 94.908 94.1076 94.4746 92.4104Z" fill="#292C2D"/>
<path d="M82.1467 94.791C80.3973 94.6383 79.1031 93.0964 79.2558 91.347L80.6238 75.6738C80.6457 75.4229 80.6973 75.1756 80.7776 74.9368L84.9711 62.4664C85.5306 60.8021 87.3324 59.9062 88.9983 60.4661C90.6626 61.0258 91.5582 62.8288 90.9986 64.4933L86.9259 76.6044L85.5908 91.8999C85.4384 93.6436 83.9019 94.944 82.1467 94.791Z" fill="#1B1D1E"/>
<path d="M97.0485 45.5348C96.904 43.373 95.0343 41.7378 92.8726 41.8824L85.8926 42.3491C83.7308 42.4936 82.0956 44.3633 82.2402 46.525L83.5829 66.6071L98.3912 65.617L97.0485 45.5348Z" fill="#004470"/>
<path d="M93.72 35.8846C94.5153 32.7769 92.6408 29.6128 89.533 28.8174C86.4253 28.022 83.2612 29.8966 82.4658 33.0043C81.6704 36.112 83.545 39.2761 86.6527 40.0715C89.7605 40.8669 92.9246 38.9923 93.72 35.8846Z" fill="#FFB69E"/>
<path d="M94.6883 45.8082C94.1194 44.4602 92.5657 43.8281 91.2171 44.3971L81.9305 48.3157L73.9213 45.971C73.9213 45.971 71.5773 47.7883 71.0187 48.0436L72.4978 51.0761L81.3472 53.6667C81.5906 53.738 81.8412 53.7734 82.0915 53.7734C82.4427 53.7734 82.7932 53.7035 83.1215 53.5649L93.277 49.2796C94.6254 48.7107 95.2572 47.1565 94.6883 45.8082Z" fill="#00558C"/>
<path d="M73.9211 29.0962L71.8173 30.7132L72.3326 32.1985L77.3012 30.352L76.8238 28.9761L73.9211 29.0962Z" fill="white"/>
<path d="M76.8239 28.9759C76.3441 27.5933 74.8344 26.8621 73.4519 27.3413C72.0694 27.821 71.3376 29.3306 71.8173 30.7132L76.8239 28.9759Z" fill="#FFB69E"/>
<path d="M72.4975 45.5547L70.655 47.5598L71.0088 50.6405L72.4975 51.0764L73.9212 45.9713L72.4975 45.5547Z" fill="white"/>
<path d="M72.4974 45.5546C71.0938 45.1436 69.6214 45.9488 69.2102 47.3532C68.7991 48.7575 69.6043 50.2294 71.0087 50.6406L72.4974 45.5546Z" fill="#FFB69E"/>
</svg>
