<svg width="123" height="123" viewBox="0 0 123 123" fill="none" xmlns="http://www.w3.org/2000/svg">
<path d="M66.0011 56.0169L62.945 69.1046L89.9314 95.8825C92.1596 98.0937 92.1596 101.68 89.9314 103.891C87.7007 106.105 84.087 106.105 81.8588 103.891L61.5 83.6877L59.4528 81.656L57.0064 91.5314C56.1885 94.8347 52.6516 96.6646 49.4692 95.484L32.9175 89.3522C29.9655 88.2601 28.466 84.9962 29.569 82.0668C30.6695 79.1349 33.9585 77.6468 36.9104 78.7414L47.4541 82.6472L55.5664 51.3608H47.3302L37.7234 60.8943C35.4952 63.1055 31.8815 63.1055 29.6508 60.8943C27.4226 58.6831 27.4226 55.097 29.6508 52.8834L40.9306 41.6921C42.0013 40.6295 43.4538 40.0318 44.9657 40.0318H59.1925C57.7079 38.1158 56.8205 35.7201 56.8205 33.1154C56.8205 29.3546 58.6621 26.0218 61.5 23.9557C63.3961 22.5734 65.7359 21.7568 68.2689 21.7568C74.5892 21.7568 79.7148 26.8409 79.7148 33.1154C79.7148 38.679 75.6823 43.3056 70.3608 44.2821L70.3484 44.314L78.1236 52.0274H89.2523C92.405 52.0274 94.9604 54.5633 94.9604 57.6919C94.9604 60.8205 92.405 63.354 89.2523 63.354H75.7591C74.2447 63.354 72.7948 62.7587 71.724 61.6962L66.0011 56.0169Z" fill="#6AA5D5"/>
<path d="M66.001 56.0169L62.945 69.1046L89.9313 95.8825C92.1596 98.0937 92.1596 101.68 89.9313 103.891C87.7007 106.105 84.0869 106.105 81.8587 103.891L61.5 83.6877V23.9557C63.3961 22.5734 65.7358 21.7568 68.2689 21.7568C74.5892 21.7568 79.7148 26.8409 79.7148 33.1154C79.7148 38.679 75.6822 43.3056 70.3608 44.2821L70.3484 44.314L78.1236 52.0274H89.2522C92.4049 52.0274 94.9603 54.5633 94.9603 57.6919C94.9603 60.8205 92.4049 63.354 89.2522 63.354H75.759C74.2447 63.354 72.7947 62.7587 71.724 61.6962L66.001 56.0169Z" fill="#4B90BF"/>
<path d="M106.977 46.8207C105.525 45.3801 103.171 45.3801 101.719 46.8207C100.268 48.2613 100.268 50.5974 101.719 52.0383C105.03 55.3238 105.03 60.6703 101.719 63.9561C100.268 65.397 100.268 67.7329 101.719 69.1737C103.171 70.6146 105.525 70.6148 106.977 69.1737C113.187 63.0107 113.187 52.9833 106.977 46.8207Z" fill="#FFE6B9"/>
<path d="M115.989 41.2154C114.537 39.7743 112.183 39.7748 110.731 41.2154C109.279 42.6562 109.279 44.9921 110.731 46.433C117.173 52.8251 117.173 63.1707 110.731 69.5638C109.279 71.0044 109.279 73.3405 110.731 74.7814C112.183 76.2222 114.537 76.2222 115.989 74.7814C125.336 65.5059 125.338 50.4919 115.989 41.2154Z" fill="#FFCD76"/>
<path d="M21.2804 46.8209C19.8285 45.38 17.4746 45.38 16.0227 46.8209C9.79785 52.9977 9.79736 62.9961 16.0227 69.1739C17.4746 70.6148 19.8285 70.6148 21.2804 69.1739C22.7324 67.7333 22.7324 65.3972 21.2804 63.9563C17.9617 60.6626 17.9614 55.3324 21.2804 52.0385C22.7324 50.5976 22.7324 48.2617 21.2804 46.8209Z" fill="#FFCD76"/>
<path d="M12.2685 46.433C13.7204 44.9924 13.7204 42.6562 12.2685 41.2154C10.8166 39.7746 8.4627 39.7746 7.01077 41.2154C-2.33655 50.4911 -2.3373 65.5047 7.01077 74.7814C8.46221 76.222 10.8163 76.2225 12.2685 74.7814C13.7204 73.3408 13.7204 71.0046 12.2685 69.5638C5.82727 63.1717 5.82653 52.8258 12.2685 46.433Z" fill="#FFE6B9"/>
<path d="M23.0589 0.70752H3.88834C1.83512 0.70752 0.170532 2.3594 0.170532 4.39695V23.4211C0.170532 25.4587 1.83512 27.1106 3.88834 27.1106C5.94157 27.1106 7.60616 25.4587 7.60616 23.4211V8.08638H23.0589C25.1121 8.08638 26.7767 6.4345 26.7767 4.39695C26.7767 2.3594 25.1121 0.70752 23.0589 0.70752Z" fill="#2880BD"/>
<path d="M119.111 0.70752H99.9408C97.8876 0.70752 96.223 2.3594 96.223 4.39695C96.223 6.4345 97.8876 8.08638 99.9408 8.08638H115.394V23.4211C115.394 25.4587 117.058 27.1106 119.111 27.1106C121.165 27.1106 122.829 25.4587 122.829 23.4211V4.39695C122.829 2.35916 121.165 0.70752 119.111 0.70752Z" fill="#0D4D73"/>
<path d="M119.111 96.2554C117.058 96.2554 115.394 97.9073 115.394 99.9448V115.28H99.9408C97.8876 115.28 96.223 116.931 96.223 118.969C96.223 121.007 97.8876 122.658 99.9408 122.658H119.111C121.165 122.658 122.829 121.007 122.829 118.969V99.9448C122.829 97.9073 121.165 96.2554 119.111 96.2554Z" fill="#0D4D73"/>
<path d="M23.0589 115.28H7.60616V99.9448C7.60616 97.9073 5.94157 96.2554 3.88834 96.2554C1.83512 96.2554 0.170532 97.9073 0.170532 99.9448V118.969C0.170532 121.007 1.83512 122.658 3.88834 122.658H23.0589C25.1121 122.658 26.7767 121.007 26.7767 118.969C26.7767 116.931 25.1121 115.28 23.0589 115.28Z" fill="#2880BD"/>
</svg>
