<svg width="102" height="123" viewBox="0 0 102 123" fill="none" xmlns="http://www.w3.org/2000/svg">
<path d="M51 111.173L43.6102 114.271L41.7726 122.5H60.2275L58.3898 114.271L51 111.173Z" fill="#80B4FB"/>
<path d="M52.8377 111.944L51.0001 111.173L49.1622 111.944V122.5H52.8377V111.944Z" fill="#61A2F9"/>
<path d="M49.2021 47.5105C49.1999 47.5091 48.9578 52.7591 48.9578 52.7591C48.9578 53.1599 48.6304 53.4697 48.2301 53.4475L34.5092 56.3059C34.3321 56.2876 34.1536 56.2745 33.9735 56.2671L20.3293 53.3922C19.929 53.4144 19.6016 53.1046 19.6016 52.7038V46.5726C19.5999 46.5738 22.1397 26.5999 22.1397 26.5999C22.6211 26.5012 23.1195 26.4495 23.6302 26.4495H28.574H28.5745C28.9748 26.4717 29.3022 26.1619 29.3022 25.7611V22.7886C30.816 23.8241 36.4245 23.8241 37.9383 22.7886V25.7611C37.9383 26.1619 38.2657 26.4717 38.6657 26.4495H38.6662H43.6101C44.4491 26.4495 45.2554 26.5894 46.0072 26.8472C43.7292 28.5099 47.3887 46.2719 49.2021 47.5105Z" fill="#F6E266"/>
<path d="M46.0072 26.847C45.2554 26.5894 44.4493 26.4493 43.6101 26.4493H38.6662H38.6657C38.4046 26.4638 38.1766 26.3356 38.0481 26.1343C37.7076 27.161 37.5587 28.2719 37.6433 29.423L38.2197 37.2513C38.3579 39.127 39.484 40.7409 40.9051 41.9435C41.4543 42.4084 41.7853 43.0804 41.7844 43.8L41.7841 43.9277C41.782 45.2499 40.7076 46.3198 39.3854 46.3162L23.3176 46.271C22.8563 46.7349 20.6553 46.7194 20.6569 46.7184L20.4708 51.8455C20.4708 52.247 20.7985 52.552 21.1988 52.5234L33.9735 56.2676C34.1537 56.2749 34.3324 56.2881 34.5092 56.3064L47.1047 52.3231C47.1047 52.3231 47.8327 52.0467 47.8327 51.6451L46.0072 26.847Z" fill="#F1D333"/>
<path d="M7.51482 51.1715H12.4587H12.4592C12.8592 51.1936 13.1869 50.8839 13.1869 50.4831V47.5107C14.7007 48.5463 20.3091 48.5463 21.8227 47.5107V50.4833C21.8227 50.8841 22.15 51.1939 22.5504 51.1717H22.5508H27.4947C30.2869 51.1717 32.7171 52.7203 33.974 55.0054L31.7828 96.7049L23.6305 122.5H9.04506C8.19987 122.5 7.51482 121.815 7.51482 120.97V84.496C7.51482 85.6555 6.57504 86.5953 5.41556 86.5953H2.22426C1.06478 86.5953 0.125 85.6555 0.125 84.496V58.5613C0.125 54.48 3.43353 51.1715 7.51482 51.1715Z" fill="#E28086"/>
<path d="M19.3424 88.2121C19.3424 87.1973 18.5196 86.3745 17.5045 86.3745C16.4894 86.3745 15.6666 87.1973 15.6666 88.2121V122.5H19.3421L19.3424 88.2121Z" fill="#DD636E"/>
<path d="M52.7975 47.5105C52.7996 47.5091 53.0417 52.7591 53.0417 52.7591C53.0417 53.1599 53.3691 53.4697 53.7694 53.4475L67.4904 56.3059C67.6674 56.2876 67.8459 56.2745 68.026 56.2671L81.6705 53.3922C82.0708 53.4144 82.3982 53.1046 82.3982 52.7038V46.5726C82.3999 46.5738 79.86 26.5999 79.86 26.5999C79.3787 26.5012 78.8802 26.4495 78.3696 26.4495H73.4257H73.4253C73.0249 26.4717 72.6975 26.1619 72.6975 25.7611V22.7886C71.1837 23.8241 65.5753 23.8241 64.0615 22.7886V25.7611C64.0615 26.1619 63.7341 26.4717 63.334 26.4495H63.3336H58.3897C57.5507 26.4495 56.7444 26.5894 55.9926 26.8472C58.2706 28.5099 54.611 46.2719 52.7975 47.5105Z" fill="#80BC93"/>
<path d="M79.8599 26.5995C79.3786 26.5008 78.8801 26.4491 78.3694 26.4491H73.4256C73.0253 26.4777 72.6976 26.1727 72.6976 25.7712V23.8745C71.5877 25.4255 70.9868 27.3589 71.1388 29.4229L71.7152 37.2511C71.8534 39.1264 72.979 40.7398 74.3997 41.9427C74.9489 42.4075 75.2801 43.0797 75.2792 43.7994L75.2789 43.9244C75.2773 45.2479 74.2019 46.3199 72.8785 46.3161L54.457 46.2708C54.0721 46.6575 53.6806 50.5782 53.9761 51.4589C54.018 51.5842 54.0605 51.7108 54.0793 51.8416C54.1296 52.1914 54.8001 52.4173 54.8001 52.4173C54.8001 52.4173 66.2397 52.7375 67.4902 55.0441C67.6673 55.0257 67.8457 55.0126 68.0259 55.0052C69.2826 52.7201 80.513 52.1726 80.513 52.1726C80.513 52.1726 81.241 51.8961 81.241 51.4946C81.2412 51.4944 77.3737 28.2267 79.8599 26.5995Z" fill="#69AF81"/>
<path d="M67.4904 55.044C66.2399 52.7377 63.7977 51.1715 60.9898 51.1715H56.046H56.0455C55.6452 51.1936 55.3178 50.8839 55.3178 50.4831V47.5107C53.804 48.5463 48.1956 48.5463 46.6818 47.5107V50.4833C46.6818 50.8841 46.3544 51.1939 45.954 51.1717H45.9536H41.0097C38.2018 51.1717 35.7597 52.7379 34.5092 55.0442L37.1474 82.4981L50.9999 93.3277L65.1374 83.0799L67.4904 55.044Z" fill="#9DC6FB"/>
<path d="M94.4851 51.1715H89.5412H89.5408C89.1407 51.1936 88.8131 50.8839 88.8131 50.4831V47.5107C87.2993 48.5463 81.6908 48.5463 80.1773 47.5107V50.4833C80.1773 50.8841 79.8499 51.1939 79.4496 51.1717H79.4491H74.5052C71.713 51.1717 69.2828 52.7203 68.0259 55.0054L70.2171 96.7049L78.3694 122.5H92.9549C93.8 122.5 94.4851 121.815 94.4851 120.97V84.496C94.4851 85.6555 95.4249 86.5953 96.5844 86.5953H99.7754C100.935 86.5953 101.875 85.6555 101.875 84.496V58.5613C101.875 54.48 98.5664 51.1715 94.4851 51.1715Z" fill="#F6E266"/>
<path d="M86.333 89.1311C86.333 88.1162 85.5102 87.2935 84.4951 87.2935C83.48 87.2935 82.6575 88.1162 82.6575 89.1311V122.5H86.333V89.1311Z" fill="#F1D333"/>
<path d="M33.9738 55.0051C32.7171 52.72 30.2867 51.1714 27.4945 51.1714H24.5886C21.8139 52.7236 20.0125 55.7847 20.2638 59.1988L20.8402 67.0271C20.9784 68.9026 22.1043 70.5162 23.5254 71.7191C24.0749 72.1842 24.4061 72.8559 24.4049 73.5758C24.4049 73.6125 24.4049 73.6496 24.4047 73.6871C24.4025 75.0155 23.3188 76.0887 21.9907 76.0765L18.7298 76.0468C14.6485 76.0468 11.34 79.3553 11.34 83.4366V109.371C11.34 110.531 12.2797 111.471 13.4392 111.471H16.2407L29.7403 92.8039C29.7403 92.8039 32.3001 79.9929 32.3023 79.9944C32.3023 79.9939 33.8566 55.0003 33.9738 55.0051Z" fill="#DD636E"/>
<path d="M16.2406 111.47L19.3424 107.181V88.2121C19.3424 87.1973 18.5196 86.3745 17.5045 86.3745C16.4894 86.3745 15.6666 87.1973 15.6666 88.2121V111.47H16.2406Z" fill="#DA4A54"/>
<path d="M67.4904 55.0439C66.2399 52.7376 63.7977 51.1714 60.9898 51.1714H59.3483C56.5733 52.7233 54.7714 55.7845 55.023 59.1988L55.5997 67.0271C55.7164 68.6131 57.4387 70.6261 58.4445 71.676C58.9053 72.1568 59.161 72.7959 59.161 73.4619C59.161 74.8894 58.0037 76.0468 56.5761 76.0468H53.4892C50.0858 76.0468 47.2215 78.3483 46.3634 81.4796L50.9999 90.0346L65.5491 84.1281L67.4904 55.0439Z" fill="#80B4FB"/>
<path d="M96.6511 51.4946C96.8608 52.1797 96.9742 52.9067 96.9742 53.6604V76.95C96.9742 79.5704 94.8499 81.6944 92.2298 81.6944C90.7689 81.6944 89.5846 82.8787 89.5846 84.3396V116.069C89.5846 116.914 88.8995 117.599 88.0544 117.599H77.4272L78.3694 122.5H92.9548C93.8 122.5 94.4851 121.815 94.4851 120.97V84.4959C94.4851 85.6553 95.4249 86.5951 96.5843 86.5951H99.7754C100.935 86.5951 101.875 85.6553 101.875 84.4959V58.5611C101.875 55.2335 99.6753 52.4204 96.6511 51.4946Z" fill="#F1D333"/>
<path d="M82.6575 117.599H86.333V122.5H82.6575V117.599Z" fill="#ECC32E"/>
<path d="M51 49.1387C48.5126 49.1387 43.4246 46.2786 43.1205 42.1516L42.5441 34.3233C42.1822 29.4085 46.0719 25.2217 51 25.2217C55.9281 25.2217 59.8178 29.4085 59.4559 34.3233L58.8795 42.1516C58.5754 46.2786 53.4874 49.1387 51 49.1387Z" fill="#FFCBBE"/>
<path d="M17.5048 49.1387C15.0173 49.1387 9.92933 46.2786 9.62528 42.1516L9.04888 34.3233C8.68693 29.4085 12.5766 25.2217 17.5048 25.2217C22.4329 25.2217 26.3226 29.4085 25.9607 34.3233L25.3843 42.1516C25.0802 46.2786 19.9922 49.1387 17.5048 49.1387Z" fill="#FFCBBE"/>
<path d="M33.6204 24.417C31.133 24.417 26.045 21.5569 25.7409 17.4299L25.1645 9.60163C24.8023 4.68684 28.6923 0.5 33.6202 0.5C38.5483 0.5 42.438 4.68684 42.076 9.60163L41.4996 17.4299C41.1956 21.5569 36.1078 24.417 33.6204 24.417Z" fill="#FFCBBE"/>
<path d="M84.4951 49.1387C86.9825 49.1387 92.0706 46.2786 92.3746 42.1516L92.951 34.3233C93.313 29.4085 89.4233 25.2217 84.4951 25.2217C79.567 25.2217 75.6773 29.4085 76.0392 34.3233L76.6156 42.1516C76.9197 46.2786 82.0077 49.1387 84.4951 49.1387Z" fill="#FFCBBE"/>
<path d="M68.3795 24.417C70.8669 24.417 75.955 21.5569 76.259 17.4299L76.8354 9.60163C77.1974 4.68684 73.3077 0.5 68.3795 0.5C63.4514 0.5 59.5617 4.68684 59.9236 9.60163L60.5 17.4299C60.8041 21.5569 65.8921 24.417 68.3795 24.417Z" fill="#FFCBBE"/>
<path d="M33.6205 78.9146C31.1331 78.9146 26.045 76.0545 25.741 71.9274L25.1646 64.0992C24.8027 59.1844 28.6924 54.9976 33.6205 54.9976C38.5486 54.9976 42.4383 59.1844 42.0764 64.0992L41.5 71.9274C41.1957 76.0545 36.1079 78.9146 33.6205 78.9146Z" fill="#FFCBBE"/>
<path d="M43.6102 114.272C43.6102 115.431 44.5499 116.371 45.7094 116.371H48.9005C50.06 116.371 50.9997 115.431 50.9997 114.272V88.3369C50.9997 84.2556 47.6912 80.9471 43.6099 80.9471H38.6661H38.6656C38.2655 80.9692 37.9379 80.6595 37.9379 80.2587V77.2861C36.4241 78.3217 30.8157 78.3217 29.3019 77.2861V80.2587C29.3019 80.6595 28.9745 80.9692 28.5741 80.9471H28.5737H23.6298C19.5485 80.9471 16.24 84.2556 16.24 88.3369V114.272C16.24 115.431 17.1798 116.371 18.3392 116.371H21.5303C22.6898 116.371 23.6296 115.431 23.6296 114.272V122.5H43.6092V114.272H43.6102Z" fill="#80BC93"/>
<path d="M37.1755 5.92605L36.5989 13.7543C36.2949 17.8813 31.2071 20.7414 28.7197 20.7414C28.1816 20.7414 27.5218 20.607 26.8153 20.3556C28.5102 22.8466 31.778 24.4169 33.6204 24.4169C36.1078 24.4169 41.1958 21.5568 41.4996 17.4296L42.0763 9.6013C42.3798 5.47999 39.693 1.87217 35.9119 0.813965C36.8319 2.28487 37.3135 4.05197 37.1755 5.92605Z" fill="#EAAC9D"/>
<path d="M35.9117 55.312C36.8319 56.7827 37.3135 58.5498 37.1755 60.4239L36.5989 68.2521C36.2951 72.3791 31.2071 75.2392 28.7197 75.2392C28.1816 75.2392 27.5218 75.1048 26.8153 74.8535C28.5104 77.3444 31.778 78.9147 33.6204 78.9147C36.1078 78.9147 41.1958 76.0546 41.4996 71.9276L42.0763 64.0993C42.3796 59.978 39.6927 56.3702 35.9117 55.312Z" fill="#EAAC9D"/>
<path d="M71.9348 5.92606L71.3584 13.7543C71.0544 17.8813 65.9663 20.7417 63.4789 20.7417C62.9409 20.7417 62.2811 20.6073 61.5746 20.3559C63.2695 22.8469 66.5373 24.4172 68.3797 24.4172C70.8671 24.4172 75.9551 21.5571 76.2591 17.43L76.8355 9.60179C77.1391 5.48048 74.4523 1.87266 70.6712 0.814453C71.5912 2.28489 72.0728 4.05198 71.9348 5.92606Z" fill="#EAAC9D"/>
<path d="M25.384 42.1517L25.9604 34.3235C26.264 30.2022 23.5771 26.5943 19.7961 25.5361C20.7163 27.0068 21.1979 28.7739 21.0599 30.648L20.4835 38.4762C20.1795 42.6033 15.0915 45.4634 12.6041 45.4634C12.066 45.4634 11.4062 45.329 10.6997 45.0776C12.3946 47.5686 15.6624 49.1388 17.5048 49.1388C19.9922 49.1388 25.0802 46.2788 25.384 42.1517Z" fill="#EAAC9D"/>
<path d="M58.8794 42.1517L59.4558 34.3235C59.7594 30.2022 57.0725 26.5943 53.2915 25.5361C54.2117 27.0068 54.6933 28.7739 54.5551 30.648L53.9787 38.4762C53.6746 42.6033 48.5866 45.4634 46.0992 45.4634C45.5611 45.4634 44.9013 45.329 44.1948 45.0776C45.8897 47.5686 49.1575 49.1388 50.9999 49.1388C53.4873 49.1388 58.5753 46.2788 58.8794 42.1517Z" fill="#EAAC9D"/>
<path d="M86.7867 25.5366C87.7069 27.0073 88.1885 28.7744 88.0505 30.6485L87.4739 38.4767C87.1699 42.6038 82.0818 45.4638 79.5944 45.4638C79.0564 45.4638 78.3966 45.3295 77.6901 45.0781C79.385 47.5691 82.6525 49.1393 84.4951 49.1393C86.9826 49.1393 92.0706 46.2792 92.3744 42.1522L92.951 34.324C93.2546 30.2024 90.5677 26.5946 86.7867 25.5366Z" fill="#EAAC9D"/>
<path d="M58.3897 114.272C58.3897 115.431 57.4499 116.371 56.2904 116.371H53.0991C51.9397 116.371 50.9999 115.431 50.9999 114.272V88.3369C50.9999 84.2556 54.3084 80.9471 58.3897 80.9471H63.3336H63.334C63.7341 80.9692 64.0617 80.6595 64.0617 80.2587V77.2861C65.5755 78.3217 71.184 78.3217 72.6978 77.2861V80.2587C72.6978 80.6595 73.0252 80.9692 73.4255 80.9471H73.426H78.3698C82.4511 80.9471 85.7596 84.2556 85.7596 88.3369V114.272C85.7596 115.431 84.8198 116.371 83.6604 116.371H80.4693C79.3098 116.371 78.3701 115.431 78.3701 114.272V122.5H58.3904V114.272H58.3897Z" fill="#E28086"/>
<path d="M45.7761 81.27C45.9858 81.9551 46.0992 82.6821 46.0992 83.4358V106.725C46.0992 109.346 43.975 111.47 41.3548 111.47C39.8939 111.47 38.7097 112.654 38.7097 114.115V114.953C38.7097 116.414 37.5254 117.599 36.0645 117.599H23.6307V122.5H43.6104V114.271C43.6104 115.431 44.5502 116.371 45.7096 116.371H48.9007C50.0602 116.371 51 115.431 51 114.271V88.3367C51 85.0091 48.8004 82.196 45.7761 81.27Z" fill="#69AF81"/>
<path d="M80.5354 81.27C80.7451 81.9551 80.8585 82.6821 80.8585 83.4358V106.725C80.8585 109.346 78.7342 111.47 76.1141 111.47C74.6532 111.47 73.4689 112.654 73.4689 114.115V114.953C73.4689 116.414 72.2847 117.599 70.8238 117.599H58.39V122.5H78.3697V114.271C78.3697 115.431 79.3097 116.371 80.4689 116.371H83.66C84.8195 116.371 85.7592 115.431 85.7592 114.271V88.3367C85.7592 85.0091 83.5597 82.196 80.5354 81.27Z" fill="#DD636E"/>
<path d="M5.67697 60.2588C4.6619 60.2588 3.83911 61.0816 3.83911 62.0964V86.5951H5.41534C6.55599 86.5951 7.4841 85.6855 7.51389 84.552C7.51389 84.5508 7.51388 84.5497 7.51412 84.5485C7.5146 84.5308 7.51484 84.5134 7.51484 84.4958V62.0964C7.51484 61.0816 6.69205 60.2588 5.67697 60.2588Z" fill="#DD636E"/>
<path d="M98.1606 86.5951V62.0964C98.1606 61.0816 97.3378 60.2588 96.3227 60.2588C95.3077 60.2588 94.4851 61.0816 94.4851 62.0964V84.4958C94.4851 84.5137 94.4853 84.5315 94.4858 84.5494V84.5508C94.5149 85.6848 95.4432 86.5953 96.5844 86.5953H98.1606V86.5951Z" fill="#F1D333"/>
<path d="M96.9742 60.3779V76.9504C96.9742 78.7544 95.9675 80.323 94.4851 81.1256V84.4963C94.4851 84.5142 94.4853 84.532 94.4858 84.5499V84.5513C94.5149 85.6853 95.4432 86.5955 96.5844 86.5955H98.1606V62.0967C98.1606 61.311 97.6676 60.6408 96.9742 60.3779Z" fill="#ECC32E"/>
<path d="M35.458 118.907C35.458 117.892 34.6352 117.069 33.6203 117.069C32.6055 117.069 31.7827 117.892 31.7827 118.907V122.5H35.4582V118.907H35.458Z" fill="#69AF81"/>
<path d="M34.9117 117.599H32.3292C31.9918 117.932 31.7826 118.395 31.7826 118.907V122.5H35.4581V118.907C35.4581 118.395 35.2489 117.932 34.9117 117.599Z" fill="#5EA570"/>
<path d="M21.5312 116.371C22.6907 116.371 23.6304 115.431 23.6304 114.272V91.8723C23.6304 90.8574 22.8077 90.0347 21.7928 90.0347C20.778 90.0347 19.955 90.8574 19.955 91.8723V116.371H21.5312Z" fill="#69AF81"/>
<path d="M45.7094 116.371H47.2856V91.8723C47.2856 90.8574 46.4628 90.0347 45.448 90.0347C44.4331 90.0347 43.6104 90.8574 43.6104 91.8723V114.272C43.6101 115.431 44.5501 116.371 45.7094 116.371Z" fill="#69AF81"/>
<path d="M46.0992 90.1533V106.726C46.0992 108.53 45.0925 110.098 43.6101 110.901V114.272C43.6101 115.431 44.5499 116.371 45.7094 116.371H47.2856V91.8723C47.2856 91.0867 46.7928 90.4161 46.0992 90.1533Z" fill="#5EA570"/>
<path d="M70.2174 118.907C70.2174 117.892 69.3946 117.069 68.3797 117.069C67.3649 117.069 66.5419 117.892 66.5419 118.907V122.5H70.2174V118.907Z" fill="#DD636E"/>
<path d="M69.6707 117.599H67.0882C66.7508 117.932 66.5416 118.395 66.5416 118.907V122.5H70.2171V118.907C70.2174 118.395 70.0081 117.932 69.6707 117.599Z" fill="#DA4A54"/>
<path d="M80.4686 116.371H82.0449V91.8723C82.0449 90.8574 81.2221 90.0347 80.2073 90.0347C79.1924 90.0347 78.3694 90.8574 78.3694 91.8723V114.272C78.3694 115.431 79.3094 116.371 80.4686 116.371Z" fill="#DD636E"/>
<path d="M80.8585 90.1533V106.726C80.8585 108.53 79.8517 110.098 78.3694 110.901V114.272C78.3694 115.431 79.3094 116.371 80.4686 116.371H82.0449V91.8723C82.0449 91.0867 81.5519 90.4161 80.8585 90.1533Z" fill="#DA4A54"/>
<path d="M58.3897 91.8723C58.3897 90.8574 57.5669 90.0347 56.5521 90.0347C55.5373 90.0347 54.7142 90.8574 54.7142 91.8723V116.371H56.2905C57.4311 116.371 58.359 115.461 58.389 114.328C58.389 114.327 58.389 114.326 58.389 114.324C58.3895 114.307 58.3897 114.289 58.3897 114.272V91.8723Z" fill="#DD636E"/>
<path d="M68.3794 78.9146C70.8668 78.9146 75.9548 76.0545 76.2589 71.9274L76.8353 64.0992C77.1972 59.1844 73.3075 54.9976 68.3794 54.9976C63.4513 54.9976 59.5616 59.1844 59.9235 64.0992L60.4999 71.9274C60.804 76.0545 65.892 78.9146 68.3794 78.9146Z" fill="#FFCBBE"/>
<path d="M70.671 55.312C71.5912 56.7827 72.0728 58.5498 71.9346 60.4239L71.3582 68.2521C71.0541 72.3791 65.9661 75.2392 63.4787 75.2392C62.9406 75.2392 62.2808 75.1048 61.5743 74.8535C63.2692 77.3444 66.537 78.9147 68.3794 78.9147C70.8668 78.9147 75.9549 76.0546 76.2589 71.9276L76.8353 64.0993C77.1389 59.978 74.452 56.3702 70.671 55.312Z" fill="#EAAC9D"/>
</svg>
