<svg width="123" height="123" viewBox="0 0 123 123" fill="none" xmlns="http://www.w3.org/2000/svg">
    <path
        d="M23.0588 0.70752H3.88822C1.835 0.70752 0.17041 2.3594 0.17041 4.39695V23.4211C0.17041 25.4587 1.835 27.1106 3.88822 27.1106C5.94145 27.1106 7.60604 25.4587 7.60604 23.4211V8.08638H23.0588C25.112 8.08638 26.7766 6.4345 26.7766 4.39695C26.7766 2.3594 25.112 0.70752 23.0588 0.70752Z"
        fill="#2880BD" />
    <path
        d="M119.111 0.70752H99.9408C97.8876 0.70752 96.223 2.3594 96.223 4.39695C96.223 6.4345 97.8876 8.08638 99.9408 8.08638H115.393V23.4211C115.393 25.4587 117.058 27.1106 119.111 27.1106C121.165 27.1106 122.829 25.4587 122.829 23.4211V4.39695C122.829 2.35916 121.165 0.70752 119.111 0.70752Z"
        fill="#0D4D73" />
    <path
        d="M119.111 96.2554C117.058 96.2554 115.393 97.9073 115.393 99.9448V115.28H99.9408C97.8876 115.28 96.223 116.931 96.223 118.969C96.223 121.007 97.8876 122.658 99.9408 122.658H119.111C121.165 122.658 122.829 121.007 122.829 118.969V99.9448C122.829 97.9073 121.165 96.2554 119.111 96.2554Z"
        fill="#0D4D73" />
    <path
        d="M23.0588 115.28H7.60604V99.9448C7.60604 97.9073 5.94145 96.2554 3.88822 96.2554C1.835 96.2554 0.17041 97.9073 0.17041 99.9448V118.969C0.17041 121.007 1.835 122.658 3.88822 122.658H23.0588C25.112 122.658 26.7766 121.007 26.7766 118.969C26.7766 116.931 25.112 115.28 23.0588 115.28Z"
        fill="#2880BD" />
    <path
        d="M100.511 49.4511C99.0646 46.8469 95.7806 45.9085 93.1764 47.3553L84.6182 52.1099L75.1383 37.6111C74.0823 35.996 72.3076 35.1347 70.5107 35.1706C70.4883 35.1703 47.9683 35.1689 47.9683 35.1689C46.0021 35.1689 44.1918 36.2387 43.2433 37.9609L36.4108 50.3673C34.9736 52.9769 35.9241 56.2573 38.5335 57.6944C39.3587 58.1488 40.2509 58.3645 41.1309 58.3645C43.0333 58.3645 44.878 57.3559 45.8606 55.5716L51.1555 45.9571H61.3429L45.7891 73.1075H26.9311C23.9519 73.1075 21.5369 75.5225 21.5369 78.5016C21.5369 81.4808 23.9519 83.8958 26.9311 83.8958H48.8672C50.7749 83.8958 52.5407 82.8882 53.5112 81.2458L57.386 74.6885L67.1684 82.3961L61.3033 96.9876C60.1923 99.7517 61.5323 102.893 64.2963 104.004C64.956 104.269 65.6367 104.395 66.3065 104.395C68.4439 104.395 70.4672 103.116 71.3131 101.011L78.685 82.671C79.5782 80.4491 78.8995 77.9043 77.0185 76.4223L66.1718 67.8763L73.6712 55.081L78.3354 62.2146C79.3655 63.7896 81.0879 64.6575 82.8542 64.6575C83.7425 64.6575 84.6423 64.4377 85.4698 63.978L98.4157 56.7858C101.02 55.3393 101.958 52.0553 100.511 49.4511Z"
        fill="#6AA5D5" />
    <path
        d="M78.475 38.5855C83.4402 38.5855 87.4652 34.5604 87.4652 29.5952C87.4652 24.63 83.4402 20.605 78.475 20.605C73.5098 20.605 69.4847 24.63 69.4847 29.5952C69.4847 34.5604 73.5098 38.5855 78.475 38.5855Z"
        fill="#6AA5D5" />
    <path
        d="M100.511 49.4512C99.0646 46.847 95.7806 45.9086 93.1764 47.3555L84.6182 52.11L75.1383 37.6113C75.1072 37.5636 75.0733 37.519 75.0409 37.4727L48.4459 83.8961H48.8672C50.7749 83.8961 52.5407 82.8885 53.5111 81.2461L57.3859 74.6888L67.1684 82.3964L61.3033 96.9879C60.1922 99.752 61.5322 102.894 64.2963 104.005C64.956 104.27 65.6366 104.395 66.3064 104.395C68.4439 104.395 70.4671 103.116 71.3131 101.011L78.6849 82.6713C79.5782 80.4494 78.8995 77.9046 77.0185 76.4226L66.1718 67.8766L73.6711 55.0813L78.3354 62.2149C79.3654 63.7899 81.0879 64.6578 82.8542 64.6578C83.7425 64.6578 84.6422 64.438 85.4698 63.9783L98.4157 56.7861C101.02 55.3394 101.958 52.0554 100.511 49.4512Z"
        fill="#4B90BF" />
    <path
        d="M83.7308 22.3037L74.8425 37.8189C75.9536 38.3105 77.1819 38.5856 78.475 38.5856C83.4402 38.5856 87.4652 34.5606 87.4652 29.5954C87.4652 26.593 85.9922 23.9365 83.7308 22.3037Z"
        fill="#4B90BF" />
</svg>