<svg width="150" height="150" viewBox="0 0 150 150" fill="none" xmlns="http://www.w3.org/2000/svg">
    <path d="M79.6875 37.5H140.625V138.281H79.6875V37.5Z" fill="#DFDFE0" />
    <path
        d="M140.625 138.281V46.875H102.398C98.2399 46.875 94.2517 48.527 91.3112 51.4675C88.3707 54.408 86.7188 58.3962 86.7188 62.5547V138.281H140.625Z"
        fill="#ECECEC" />
    <path d="M86.7188 60.9375H133.594V98.4375H86.7188V60.9375Z" fill="#4B90BF" />
    <path
        d="M93.75 98.4375V90.2344C93.75 88.0588 94.6143 85.9723 96.1526 84.4339C97.691 82.8955 99.7775 82.0313 101.953 82.0312C104.129 82.0313 106.215 82.8955 107.754 84.4339C109.292 85.9723 110.156 88.0588 110.156 90.2344V98.4375H93.75Z"
        fill="#40444F" />
    <path
        d="M131.25 91.4062H133.594V60.9375H94.432C96.0675 69.5055 100.639 77.2354 107.359 82.7965C114.079 88.3577 122.527 91.4023 131.25 91.4062Z"
        fill="#6AA5D5" />
    <path
        d="M107.812 28.125H140.625C141.868 28.125 143.06 28.6189 143.94 29.4979C144.819 30.377 145.312 31.5693 145.312 32.8125C145.312 34.0557 144.819 35.248 143.94 36.1271C143.06 37.0061 141.868 37.5 140.625 37.5H9.375C8.1318 37.5 6.93951 37.0061 6.06044 36.1271C5.18136 35.248 4.6875 34.0557 4.6875 32.8125C4.6875 31.5693 5.18136 30.377 6.06044 29.4979C6.93951 28.6189 8.1318 28.125 9.375 28.125H107.812Z"
        fill="#40444F" />
    <path
        d="M103.125 4.6875H44.5312C41.9424 4.6875 39.8438 6.78616 39.8438 9.375V32.8125C39.8438 35.4013 41.9424 37.5 44.5312 37.5H103.125C105.714 37.5 107.812 35.4013 107.812 32.8125V9.375C107.812 6.78616 105.714 4.6875 103.125 4.6875Z"
        fill="#ECECEC" />
    <g opacity="0.5">
        <path
            d="M103.125 4.6875H96.0938C97.337 4.6875 98.5292 5.18136 99.4083 6.06044C100.287 6.93951 100.781 8.1318 100.781 9.375V32.8125C100.781 34.0557 100.287 35.248 99.4083 36.1271C98.5292 37.0061 97.337 37.5 96.0938 37.5H103.125C104.368 37.5 105.56 37.0061 106.44 36.1271C107.319 35.248 107.812 34.0557 107.812 32.8125V9.375C107.812 8.1318 107.319 6.93951 106.44 6.06044C105.56 5.18136 104.368 4.6875 103.125 4.6875Z"
            fill="#B7B7B7" />
    </g>
    <path
        d="M103.125 39.8438H44.5312C42.6664 39.8438 40.878 39.103 39.5594 37.7843C38.2408 36.4657 37.5 34.6773 37.5 32.8125V9.375C37.5 7.5102 38.2408 5.72177 39.5594 4.40316C40.878 3.08454 42.6664 2.34375 44.5312 2.34375H103.125C104.99 2.34375 106.778 3.08454 108.097 4.40316C109.415 5.72177 110.156 7.5102 110.156 9.375V32.8125C110.156 34.6773 109.415 36.4657 108.097 37.7843C106.778 39.103 104.99 39.8438 103.125 39.8438ZM44.5312 7.03125C43.9096 7.03125 43.3135 7.27818 42.874 7.71772C42.4344 8.15726 42.1875 8.7534 42.1875 9.375V32.8125C42.1875 33.4341 42.4344 34.0302 42.874 34.4698C43.3135 34.9093 43.9096 35.1562 44.5312 35.1562H103.125C103.747 35.1562 104.343 34.9093 104.782 34.4698C105.222 34.0302 105.469 33.4341 105.469 32.8125V9.375C105.469 8.7534 105.222 8.15726 104.782 7.71772C104.343 7.27818 103.747 7.03125 103.125 7.03125H44.5312Z"
        fill="#D22627" />
    <path
        d="M47.3672 126.563H41.7797V121.875H47.3672C48.2867 121.873 49.1945 121.668 50.0261 121.276C50.8577 120.883 51.5927 120.312 52.1789 119.604C52.8474 118.811 53.3406 117.886 53.6262 116.889C53.9118 115.892 53.9833 114.846 53.8359 113.82L48.1617 95.5384L52.6148 94.0923L53.7867 97.711L58.3593 112.615C58.3904 112.721 58.4154 112.829 58.4343 112.938C58.713 114.656 58.6156 116.414 58.1491 118.09C57.6826 119.767 56.8579 121.322 55.732 122.649C54.7034 123.867 53.4229 124.847 51.9789 125.523C50.5348 126.199 48.9615 126.553 47.3672 126.563Z"
        fill="#40444F" />
    <path
        d="M11.7188 131.25V77.3438C11.7188 74.8573 12.7065 72.4728 14.4646 70.7146C16.2228 68.9565 18.6073 67.9687 21.0938 67.9688H35.1562C37.6427 67.9688 40.0272 68.9565 41.7854 70.7146C43.5435 72.4728 44.5312 74.8573 44.5312 77.3438V131.25H11.7188Z"
        fill="#D22627" />
    <path
        d="M44.5312 77.3438C44.5312 74.8573 43.5435 72.4728 41.7854 70.7146C40.0272 68.9565 37.6427 67.9688 35.1562 67.9688H21.0938C20.3895 67.9738 19.6882 68.0587 19.0031 68.2219C18.84 68.9069 18.7551 69.6083 18.75 70.3125V105.495C18.75 110.461 20.7227 115.223 24.2342 118.735C27.7457 122.246 32.5082 124.219 37.4742 124.219H44.5312V77.3438Z"
        fill="#DB4B40" />
    <path
        d="M11.7188 138.281H10.5469C9.61447 138.281 8.72026 137.911 8.06095 137.252C7.40165 136.592 7.03125 135.698 7.03125 134.766C7.03125 133.833 7.40165 132.939 8.06095 132.28C8.72026 131.62 9.61447 131.25 10.5469 131.25H45.7031C46.6355 131.25 47.5297 131.62 48.189 132.28C48.8484 132.939 49.2188 133.833 49.2188 134.766C49.2188 135.698 48.8484 136.592 48.189 137.252C47.5297 137.911 46.6355 138.281 45.7031 138.281H11.7188Z"
        fill="#AEAFB2" />
    <path
        d="M23.4375 75H32.8125C34.0557 75 35.248 75.4939 36.1271 76.3729C37.0061 77.252 37.5 78.4443 37.5 79.6875V89.0625H18.75V79.6875C18.75 78.4443 19.2439 77.252 20.1229 76.3729C21.002 75.4939 22.1943 75 23.4375 75Z"
        fill="#76D8FF" />
    <path
        d="M32.8125 75H28.125C29.3682 75 30.5605 75.4939 31.4396 76.3729C32.3186 77.252 32.8125 78.4443 32.8125 79.6875V89.0625H37.5V79.6875C37.5 78.4443 37.0061 77.252 36.1271 76.3729C35.248 75.4939 34.0557 75 32.8125 75Z"
        fill="#66C2ED" />
    <path d="M35.1562 96.0938H39.8438V100.781H35.1562V96.0938Z" fill="#A22F31" />
    <path d="M23.4375 96.0938H32.8125V100.781H23.4375V96.0938Z" fill="#A22F31" />
    <path d="M16.4062 96.0938H21.0938V100.781H16.4062V96.0938Z" fill="#A22F31" />
    <path
        d="M44.5312 82.0312H48.8672C49.8145 82.0552 50.7344 82.3536 51.5153 82.8903C52.2962 83.427 52.9046 84.1789 53.2664 85.0547L55.725 90.5227C56.1282 91.3198 56.33 92.2036 56.3127 93.0968C56.2954 93.99 56.0595 94.8653 55.6257 95.6462C55.1919 96.4271 54.5733 97.0899 53.8242 97.5765C53.075 98.0631 52.218 98.3587 51.3281 98.4375H44.5312V82.0312Z"
        fill="#CCCCCC" />
    <path d="M25.7812 37.5H32.8125V67.9688H25.7812V37.5Z" fill="#CCCCCC" />
    <path
        d="M141.797 138.281H8.20312C6.2615 138.281 4.6875 139.855 4.6875 141.797C4.6875 143.739 6.2615 145.312 8.20312 145.312H141.797C143.738 145.312 145.312 143.739 145.312 141.797C145.312 139.855 143.738 138.281 141.797 138.281Z"
        fill="#40444F" />
    <path
        d="M75 9.375C74.5079 9.37488 74.0282 9.52966 73.629 9.8174C73.2298 10.1051 72.9313 10.5112 72.7758 10.9781L66.4851 29.8477C66.3878 30.1397 66.349 30.4481 66.3709 30.7552C66.3927 31.0623 66.4749 31.3621 66.6127 31.6374C66.7505 31.9128 66.9411 32.1583 67.1738 32.3599C67.4065 32.5615 67.6766 32.7153 67.9687 32.8125C68.2608 32.9098 68.5692 32.9487 68.8763 32.9268C69.1834 32.9049 69.4832 32.8227 69.7585 32.6849C70.0338 32.5472 70.2793 32.3565 70.481 32.1238C70.6826 31.8912 70.8364 31.621 70.9336 31.3289L72.0023 28.125H77.9976L79.0664 31.3289C79.1636 31.621 79.3174 31.8912 79.519 32.1238C79.7206 32.3565 79.9661 32.5472 80.2414 32.6849C80.5168 32.8227 80.8166 32.9049 81.1237 32.9268C81.4307 32.9487 81.7391 32.9098 82.0312 32.8125C82.3234 32.7153 82.5935 32.5615 82.8261 32.3599C83.0588 32.1583 83.2495 31.9128 83.3873 31.6374C83.525 31.3621 83.6072 31.0623 83.6291 30.7552C83.651 30.4481 83.6122 30.1397 83.5148 29.8477L77.2242 10.9781C77.0687 10.5112 76.7702 10.1051 76.371 9.8174C75.9717 9.52966 75.4921 9.37488 75 9.375ZM73.5633 23.4375L75 19.1297L76.4367 23.4375H73.5633Z"
        fill="#D22627" />
    <path
        d="M93.75 18.75C93.2865 18.75 92.8333 18.6125 92.4479 18.355C92.0625 18.0975 91.7621 17.7314 91.5847 17.3032C91.4073 16.8749 91.3609 16.4037 91.4513 15.949C91.5417 15.4944 91.7649 15.0768 92.0927 14.749C92.4205 14.4212 92.8381 14.198 93.2928 14.1075C93.7474 14.0171 94.2187 14.0635 94.6469 14.2409C95.0752 14.4183 95.4412 14.7187 95.6988 15.1041C95.9563 15.4896 96.0938 15.9427 96.0938 16.4063H100.781C100.781 15.0156 100.369 13.6562 99.5963 12.4999C98.8237 11.3436 97.7255 10.4424 96.4407 9.91023C95.1559 9.37805 93.7422 9.2388 92.3783 9.51011C91.0143 9.78141 89.7615 10.4511 88.7782 11.4344C87.7948 12.4177 87.1252 13.6706 86.8539 15.0345C86.5826 16.3985 86.7218 17.8122 87.254 19.097C87.7862 20.3818 88.6874 21.4799 89.8437 22.2525C90.9999 23.0251 92.3594 23.4375 93.75 23.4375C94.2136 23.4375 94.6667 23.575 95.0521 23.8325C95.4375 24.09 95.7379 24.4561 95.9153 24.8843C96.0927 25.3126 96.1392 25.7839 96.0487 26.2385C95.9583 26.6931 95.7351 27.1108 95.4073 27.4385C95.0795 27.7663 94.6619 27.9895 94.2072 28.08C93.7526 28.1704 93.2814 28.124 92.8531 27.9466C92.4248 27.7692 92.0588 27.4688 91.8012 27.0834C91.5437 26.6979 91.4063 26.2448 91.4063 25.7813H86.7188C86.7188 27.1719 87.1311 28.5313 87.9037 29.6876C88.6763 30.8439 89.7745 31.7451 91.0593 32.2773C92.3441 32.8095 93.7578 32.9487 95.1217 32.6774C96.4857 32.4061 97.7385 31.7364 98.7218 30.7531C99.7052 29.7698 100.375 28.5169 100.646 27.153C100.917 25.7891 100.778 24.3753 100.246 23.0905C99.7138 21.8057 98.8126 20.7076 97.6564 19.935C96.5001 19.1624 95.1407 18.75 93.75 18.75Z"
        fill="#D22627" />
    <path
        d="M55.0781 9.375C52.9025 9.375 50.816 10.2393 49.2776 11.7776C47.7393 13.316 46.875 15.4025 46.875 17.5781V24.6094C46.875 26.785 47.7393 28.8715 49.2776 30.4099C50.816 31.9482 52.9025 32.8125 55.0781 32.8125C57.2537 32.8125 59.3402 31.9482 60.8786 30.4099C62.417 28.8715 63.2812 26.785 63.2812 24.6094V23.4375C63.2812 22.8159 63.0343 22.2198 62.5948 21.7802C62.1552 21.3407 61.5591 21.0938 60.9375 21.0938H53.9062V25.7812H58.3945C58.119 26.5645 57.5752 27.2249 56.8594 27.6455C56.1436 28.0662 55.3021 28.22 54.4838 28.0796C53.6655 27.9393 52.9233 27.5138 52.3886 26.8787C51.8539 26.2435 51.5613 25.4396 51.5625 24.6094V17.5781C51.5625 16.6457 51.9329 15.7515 52.5922 15.0922C53.2515 14.4329 54.1457 14.0625 55.0781 14.0625C56.0105 14.0625 56.9047 14.4329 57.564 15.0922C58.2234 15.7515 58.5938 16.6457 58.5938 17.5781V18.75H63.2812V17.5781C63.2812 15.4025 62.417 13.316 60.8786 11.7776C59.3402 10.2393 57.2537 9.375 55.0781 9.375Z"
        fill="#D22627" />
    <path
        d="M32.8125 67.9688V39.8438H32.557C31.3816 39.8438 30.2543 40.3107 29.4231 41.1419C28.5919 41.973 28.125 43.1003 28.125 44.2758V67.9688H32.8125Z"
        fill="#E0E0E0" />
</svg>