<svg width="133" height="150" viewBox="0 0 133 150" fill="none" xmlns="http://www.w3.org/2000/svg">
    <path
        d="M26.3048 147.77L29.7524 83.4954C30.3202 72.9125 39.0668 64.6221 49.6652 64.6221H100.335C110.934 64.6221 119.68 72.9122 120.248 83.4954L123.696 147.77H26.3048Z"
        fill="#76B5E7" />
    <path
        d="M120.248 83.4954C119.68 72.9125 110.934 64.6221 100.335 64.6221H91.4153C102.013 64.6221 110.76 72.9122 111.328 83.4954L114.776 147.77H123.696L120.248 83.4954Z"
        fill="#2196F3" />
    <path
        d="M132.214 147.026V122.207C132.214 111.344 124.855 101.862 114.332 99.1653L94.0635 93.9725C91.4326 93.2983 89.5928 90.9276 89.5928 88.2121V79.2783H60.4072V88.2121C60.4072 90.9279 58.5674 93.2983 55.9365 93.9725L35.6678 99.1656C25.1449 101.862 17.7856 111.344 17.7856 122.207V147.027C17.7856 148.669 19.1168 150 20.7589 150H129.242C130.883 150 132.214 148.669 132.214 147.026Z"
        fill="#F94144" />
    <path
        d="M114.332 99.1656L94.0635 93.9725C91.4326 93.2983 89.5928 90.9276 89.5928 88.2121V79.2783H80.6731V92.672C80.6731 95.3878 82.5129 97.7582 85.1438 98.4323L105.413 103.625C115.935 106.322 123.295 115.804 123.295 126.667V150H129.241C130.883 150 132.214 148.669 132.214 147.026V122.207C132.214 111.344 124.855 101.862 114.332 99.1656Z"
        fill="#D22627" />
    <path
        d="M57.4491 93.3487C61.2926 98.9216 67.718 102.577 75 102.577C82.282 102.577 88.7074 98.9216 92.5509 93.3487C90.7556 92.3043 89.5931 90.3686 89.5931 88.2121V79.2783H60.4075V88.2121C60.4072 90.3684 59.2444 92.304 57.4491 93.3487Z"
        fill="#FFDECF" />
    <path
        d="M85.1438 98.4323L86.9631 98.8984C89.151 97.4099 91.0488 95.527 92.5509 93.3487C90.7556 92.3043 89.5931 90.3686 89.5931 88.2121V79.2783H80.6733V92.672C80.673 95.3875 82.5129 97.7582 85.1438 98.4323Z"
        fill="#FFCDBE" />
    <path
        d="M93.2883 147.77C97.9081 141.221 102.624 133.871 107.201 125.688C111.852 117.373 115.704 109.375 118.906 101.898C119.492 100.531 118.837 98.9498 117.46 98.3887L107.492 94.3288C106.167 93.7894 104.656 94.3915 104.064 95.6934C100.892 102.671 97.2199 110.021 92.9555 117.618C86.4946 129.127 79.8235 139.162 73.464 147.769L71.7293 150H91.65L93.2883 147.77Z"
        fill="#3E3E3E" />
    <path
        d="M117.459 98.3887L107.491 94.3288C106.167 93.7894 104.655 94.3915 104.063 95.6934C103.953 95.9366 103.837 96.1838 103.725 96.4279L108.54 98.3887C109.917 98.9498 110.572 100.531 109.986 101.898C106.784 109.374 102.932 117.373 98.2811 125.688C93.7037 133.871 88.9878 141.221 84.3683 147.77L82.7306 150H91.6503L93.2883 147.769C97.9078 141.22 102.624 133.871 107.201 125.688C111.852 117.373 115.704 109.374 118.906 101.898C119.492 100.531 118.837 98.95 117.459 98.3887Z"
        fill="#383838" />
    <path
        d="M33.7433 147.77C37.8346 128.747 54.7521 114.487 75 114.487C95.248 114.487 112.165 128.747 116.257 147.77L116.625 150H102.354L101.765 147.77C98.0247 136.572 87.44 128.479 75 128.479C62.56 128.479 51.9753 136.572 48.235 147.77L47.6461 150H33.3273L33.7433 147.77Z"
        fill="#E9F5FF" />
    <path
        d="M66.0803 128.479C53.6402 128.479 43.0556 136.573 39.3152 147.77L38.7264 150H47.6461L48.2347 147.77C51.5189 137.938 60.08 130.502 70.5399 128.833C69.087 128.602 67.5979 128.479 66.0803 128.479Z"
        fill="#D7EBFD" />
    <path
        d="M116.257 147.77C112.165 128.747 95.2477 114.487 75 114.487C73.4936 114.487 72.0059 114.568 70.5402 114.722C88.774 116.637 103.55 130.162 107.337 147.77L107.706 150H116.625L116.257 147.77Z"
        fill="#D7EBFD" />
    <path
        d="M114.003 140.233L114.002 140.233C111.764 141.21 109.152 140.322 107.97 138.185C106.797 136.061 105.627 133.69 104.537 131.074C103.796 129.294 103.163 127.573 102.622 125.93C101.86 123.614 102.991 121.1 105.226 120.125C109.278 118.356 114.01 120.078 115.963 124.045C116.288 124.703 116.609 125.382 116.924 126.081C117.484 127.322 117.986 128.536 118.437 129.715C120.013 133.837 118.047 138.468 114.003 140.233Z"
        fill="#FFDECF" />
    <path
        d="M118.438 129.715C117.987 128.536 117.485 127.322 116.924 126.081C116.609 125.382 116.288 124.703 115.964 124.045C114.01 120.078 109.278 118.356 105.226 120.125C104.831 120.297 104.472 120.519 104.151 120.779C105.353 121.563 106.366 122.668 107.044 124.045C107.369 124.703 107.689 125.382 108.005 126.081C108.565 127.322 109.067 128.536 109.518 129.715C110.653 132.685 109.949 135.919 107.955 138.155C107.96 138.165 107.965 138.175 107.971 138.185C109.153 140.322 111.764 141.21 114.003 140.233L114.003 140.233C118.047 138.468 120.013 133.837 118.438 129.715Z"
        fill="#FFCDBE" />
    <path
        d="M35.9971 140.233L35.9977 140.233C38.2359 141.21 40.8481 140.322 42.0296 138.185C43.2035 136.061 44.3733 133.69 45.4629 131.074C46.2044 129.294 46.8369 127.573 47.3777 125.93C48.14 123.614 47.0089 121.1 44.7744 120.125C40.7221 118.356 35.9898 120.078 34.0365 124.045C33.7122 124.703 33.3914 125.382 33.0759 126.081C32.5157 127.322 32.0136 128.536 31.5627 129.715C29.9868 133.837 31.9529 138.468 35.9971 140.233Z"
        fill="#FFDECF" />
    <path
        d="M44.7741 120.124C42.128 118.969 39.1925 119.303 36.9296 120.779C38.4276 121.985 39.0853 124.023 38.4577 125.93C37.9169 127.573 37.2844 129.294 36.5429 131.074C35.4583 133.678 34.2941 136.039 33.1257 138.155C33.8994 139.022 34.8668 139.739 35.9968 140.233L35.9971 140.233C38.2354 141.21 40.8475 140.322 42.029 138.185C43.2027 136.061 44.3725 133.69 45.4623 131.074C46.2038 129.294 46.8363 127.573 47.3772 125.93C48.1398 123.614 47.0086 121.1 44.7741 120.124Z"
        fill="#FFCDBE" />
    <path
        d="M107.176 42.6583H42.8235V18.5098C42.8235 8.28691 51.1108 0 61.3333 0H88.6664C98.8893 0 107.176 8.28721 107.176 18.5098V42.6583H107.176Z"
        fill="#3E3E3E" />
    <path
        d="M88.6664 0H79.7467C89.9692 0 98.2564 8.28721 98.2564 18.5098V42.6583H107.176V18.5098C107.176 8.28721 98.8893 0 88.6664 0Z"
        fill="#383838" />
    <path
        d="M75 85.4946C69.7468 85.4946 64.7874 85.3009 60.4075 83.0635C49.9711 77.7321 42.8238 66.86 42.8238 54.3151V37.8168C49.3717 37.7468 59.2081 36.7809 70.0272 32.2267C75.0149 30.127 79.1991 27.691 82.5938 25.3674C83.3722 24.8345 84.4128 24.896 85.123 25.5166C87.3653 27.4753 90.1072 29.5815 93.3844 31.5869C98.5213 34.7301 103.351 36.6341 107.177 37.8168V54.3151C107.177 66.8046 100.092 77.6357 89.7314 82.9923C85.3172 85.2743 80.3086 85.4946 75 85.4946Z"
        fill="#FFDECF" />
    <path
        d="M75 85.4946C69.7468 85.4946 64.7874 85.3009 60.4075 83.0635C49.9711 77.7321 42.8238 66.86 42.8238 54.3151V37.8168C49.3717 37.7468 59.2081 36.7809 70.0272 32.2267C75.0149 30.127 79.1991 27.691 82.5938 25.3674C83.3722 24.8345 84.4128 24.896 85.123 25.5166C87.3653 27.4753 90.1072 29.5815 93.3844 31.5869C98.5213 34.7301 103.351 36.6341 107.177 37.8168V54.3151C107.177 66.8046 100.092 77.6357 89.7314 82.9923C85.3172 85.2743 80.3086 85.4946 75 85.4946Z"
        fill="#FFDECF" />
    <path
        d="M107.176 54.3151C107.176 47.329 107.176 44.803 107.176 37.8169C104.594 37.0183 101.552 35.8889 98.2679 34.2734L98.2567 54.3151C98.3174 56.5385 98.3751 67.1958 90.2707 75.5779C82.817 83.2868 71.3142 86.1184 60.4072 83.063C60.4078 83.0636 60.4087 83.0642 60.4093 83.0648C64.7889 85.3019 69.7477 86.5631 75 86.5631C80.3086 86.5631 85.3172 85.2746 89.7308 82.9927C100.092 77.6357 107.176 66.8044 107.176 54.3151Z"
        fill="#FFCDBE" />
    <path
        d="M108.373 54.4563H107.176V37.855H108.373C112.958 37.855 116.674 41.5713 116.674 46.1557C116.674 50.74 112.958 54.4563 108.373 54.4563Z"
        fill="#FFDECF" />
    <path
        d="M41.6268 54.4563H42.8238V37.855H41.6268C37.0424 37.855 33.3261 41.5713 33.3261 46.1557C33.3261 50.74 37.0424 54.4563 41.6268 54.4563Z"
        fill="#FFCDBE" />
    <path d="M69.7261 73.9836C69.7261 73.9836 74.4136 71.6398 79.1011 73.9836" stroke="#C95F5F" stroke-width="4.6875"
        stroke-miterlimit="10" stroke-linecap="round" />
    <path
        d="M62.8847 57.5846C59.5894 57.5846 57.1144 56.3752 56.9597 56.2979C55.8019 55.719 55.3332 54.3104 55.9121 53.1526C56.491 51.9994 57.8879 51.533 59.0457 52.0979C59.1511 52.1471 62.8261 53.8604 66.3347 52.1026C67.4925 51.5237 68.8988 51.9924 69.48 53.1502C70.0589 54.308 69.5902 55.7166 68.4324 56.2955C66.5011 57.2635 64.5839 57.5846 62.8847 57.5846Z"
        fill="#3E3E3E" />
    <path
        d="M86.3222 57.5846C83.0269 57.5846 80.5519 56.3752 80.3972 56.2979C79.2394 55.719 78.7707 54.3104 79.3496 53.1526C79.9285 51.9994 81.3254 51.533 82.4832 52.0979C82.5886 52.1471 86.2636 53.8604 89.7722 52.1026C90.93 51.5237 92.3386 51.9924 92.9175 53.1502C93.4965 54.308 93.0277 55.7166 91.8699 56.2955C89.9386 57.2635 88.0215 57.5846 86.3222 57.5846Z"
        fill="#3E3E3E" />
    <path
        d="M55.6613 49.5148C54.5363 49.5148 53.5425 48.7015 53.3527 47.5578C53.1394 46.2804 54.0019 45.0734 55.2793 44.8601L69.3418 42.5164C70.6191 42.3007 71.8261 43.1656 72.0371 44.4429C72.2504 45.7203 71.3879 46.9273 70.1105 47.1406L56.048 49.4843C55.9168 49.5054 55.7902 49.5148 55.6613 49.5148Z"
        fill="#995B3F" />
    <path
        d="M93.166 49.5148C93.0371 49.5148 92.9105 49.5054 92.7793 49.482L78.7168 47.1382C77.4394 46.925 76.5769 45.7179 76.7902 44.4406C77.0035 43.1632 78.2082 42.2961 79.4855 42.514L93.548 44.8578C94.8254 45.0711 95.6879 46.2781 95.4746 47.5554C95.2847 48.7015 94.291 49.5148 93.166 49.5148Z"
        fill="#995B3F" />
    <path
        d="M30.4688 30.4688V75C30.4688 75.8203 30.375 76.5938 30.1641 77.3438H0.304688C0.09375 76.5938 0 75.8203 0 75V30.4688C0 25.2891 4.19531 21.0938 9.375 21.0938H21.0938C26.2734 21.0938 30.4688 25.2891 30.4688 30.4688Z"
        fill="#A29292" />
    <path
        d="M4.6875 77.3438V30.4688C4.6875 27.8836 6.78984 25.7812 9.375 25.7812H21.0938C23.6789 25.7812 25.7812 27.8836 25.7812 30.4688V77.3438H4.6875Z"
        fill="#DAD4D4" />
    <path
        d="M7.03125 77.3438V30.5859C7.03125 29.2266 8.50078 28.125 10.3125 28.125H20.1563C21.968 28.125 23.4375 29.2266 23.4375 30.5859V77.3438H7.03125Z"
        fill="#EAEAEA" />
    <path
        d="M9.375 84.375C5.01562 84.375 1.33594 81.3984 0.304688 77.3438H30.1641C29.1328 81.3984 25.4531 84.375 21.0938 84.375H9.375Z"
        fill="#F94144" />
    <path
        d="M12.3047 14.0625H18.1641C19.7812 14.0625 21.0938 15.1172 21.0938 16.4062V21.0938H9.375V16.4062C9.375 15.1172 10.6875 14.0625 12.3047 14.0625Z"
        fill="#DFDAD4" />
    <path d="M11.7188 30.4688L23.4375 46.875L16.4062 56.25L18.75 70.3125L7.03125 56.25L14.0625 46.875L11.7188 30.4688Z"
        fill="#F94144" />
    <path
        d="M6.15234 26.6602C3.13593 26.6602 3.13124 31.3477 6.15234 31.3477C9.16874 31.3477 9.17343 26.6602 6.15234 26.6602Z"
        fill="white" />
    <path
        d="M8.78906 24.4639C7.28203 24.4639 7.27734 26.8076 8.78906 26.8076C10.2961 26.8076 10.3008 24.4639 8.78906 24.4639Z"
        fill="white" />
</svg>