<svg width="120" height="98" viewBox="0 0 120 98" fill="none" xmlns="http://www.w3.org/2000/svg">
    <path
        d="M120 2.6748C120 4.0498 118.875 5.1748 117.5 5.1748H93.425L61.625 32.2248C61.15 32.6248 60.575 32.8248 60 32.8248C59.3 32.8248 58.6 32.5248 58.1 31.9498C57.2 30.8998 57.325 29.2998 58.375 28.4248L85.7 5.1748H2.5C1.125 5.1748 0 4.0498 0 2.6748C0 1.2998 1.125 0.174805 2.5 0.174805H117.5C118.875 0.174805 120 1.2998 120 2.6748Z"
        fill="#40444F" />
    <path
        d="M89.55 32.8247H30.45C31.475 29.8997 34.25 27.8247 37.5 27.8247H82.5C85.75 27.8247 88.525 29.8997 89.55 32.8247Z"
        fill="#40444F" />
    <path
        d="M95 85.3247C95 92.2247 89.4 97.8247 82.5 97.8247C75.6 97.8247 70 92.2247 70 85.3247C70 83.9497 71.125 82.8247 72.5 82.8247H92.5C93.875 82.8247 95 83.9497 95 85.3247Z"
        fill="#40444F" />
    <path
        d="M50 85.3247C50 92.2247 44.4 97.8247 37.5 97.8247C30.6 97.8247 25 92.2247 25 85.3247C25 83.9497 26.125 82.8247 27.5 82.8247H47.5C48.875 82.8247 50 83.9497 50 85.3247Z"
        fill="#40444F" />
    <path
        d="M97.725 37.8247H22.725C14.45 37.8247 7.72501 44.5497 7.72501 52.8247V80.3247C7.72501 84.4497 11.075 87.8247 15.225 87.8247H105.225C109.35 87.8247 112.725 84.4497 112.725 80.3247V52.8247C112.725 44.5497 106 37.8247 97.725 37.8247ZM32.5 65.3247C32.5 66.6997 31.375 67.8247 30 67.8247H20C18.625 67.8247 17.5 66.6997 17.5 65.3247V55.3247C17.5 53.9497 18.625 52.8247 20 52.8247H30C31.375 52.8247 32.5 53.9497 32.5 55.3247V65.3247ZM52.5 65.3247C52.5 66.6997 51.375 67.8247 50 67.8247H40C38.625 67.8247 37.5 66.6997 37.5 65.3247V55.3247C37.5 53.9497 38.625 52.8247 40 52.8247H50C51.375 52.8247 52.5 53.9497 52.5 55.3247V65.3247ZM72.5 65.3247C72.5 66.6997 71.375 67.8247 70 67.8247H60C58.625 67.8247 57.5 66.6997 57.5 65.3247V55.3247C57.5 53.9497 58.625 52.8247 60 52.8247H70C71.375 52.8247 72.5 53.9497 72.5 55.3247V65.3247Z"
        fill="#F94144" />
    <path
        d="M117.5 97.8247H2.5C1.125 97.8247 0 96.6997 0 95.3247C0 93.9497 1.125 92.8247 2.5 92.8247H117.5C118.875 92.8247 120 93.9497 120 95.3247C120 96.6997 118.875 97.8247 117.5 97.8247Z"
        fill="#D22627" />
    <path
        d="M97.5 67.8246V87.8246H77.5V68.2496C77.5 63.0246 81.325 58.3746 86.525 57.8746C92.475 57.2996 97.5 61.9746 97.5 67.8246Z"
        fill="#F94144" />
</svg>