<svg width="120" height="120" viewBox="0 0 120 120" fill="none" xmlns="http://www.w3.org/2000/svg">
    <path
        d="M120 1.69008V88.3102C120 89.2447 119.242 90.0003 118.311 90.0003H99.3196L97.5098 87.5858L95.6995 90.0003H69.3332L67.5232 87.5858L65.7131 90.0003H39.2262C38.2945 90.0003 37.5368 89.2447 37.5368 88.3102V1.69008C37.5368 0.758204 38.2945 0 39.2262 0H118.311C119.242 0 120 0.758204 120 1.69008Z"
        fill="#F94144" />
    <path
        d="M112.503 73.1892H84.3269V67.5002C84.3269 66.4999 83.5164 65.6895 82.5168 65.6895C81.5172 65.6895 80.7068 66.5002 80.7068 67.5002V73.1892H54.3408V67.5002C54.3408 66.4999 53.5303 65.6895 52.5307 65.6895C51.5311 65.6895 50.7206 66.5002 50.7206 67.5002V73.1892H37.7009C36.7012 73.1892 35.8908 73.9999 35.8908 75C35.8908 76.0003 36.7012 76.8108 37.7009 76.8108H112.503C113.502 76.8108 114.313 76.0001 114.313 75C114.313 73.9999 113.503 73.1892 112.503 73.1892Z"
        fill="#D22627" />
    <path
        d="M37.7009 61.811H105.17C106.169 61.811 106.98 61.0003 106.98 60.0002C106.98 58.9999 106.169 58.1895 105.17 58.1895H99.3199V52.5002C99.3199 51.4999 98.5094 50.6895 97.5098 50.6895C96.5102 50.6895 95.6997 51.5002 95.6997 52.5002V58.1895H37.7009C36.7012 58.1895 35.8908 59.0002 35.8908 60.0002C35.891 61.0006 36.7012 61.811 37.7009 61.811Z"
        fill="#D22627" />
    <path
        d="M69.3333 82.4939V90.0007H65.7131V82.4939C65.7131 81.4943 66.524 80.6831 67.5232 80.6831C68.5223 80.6831 69.3333 81.4943 69.3333 82.4939Z"
        fill="#D22627" />
    <path
        d="M99.3196 90.0005V82.4939C99.3196 81.4943 98.5087 80.6831 97.5096 80.6831C96.5104 80.6831 95.6995 81.4943 95.6995 82.4939V90.0005H99.3196Z"
        fill="#D22627" />
    <path
        d="M56.1183 20.8196C55.0608 16.8716 51.1308 14.3258 46.5715 14.2201C45.4094 8.34079 38.2783 6.19063 33.165 7.56126L35.1051 14.8058C36.1767 18.8068 33.8034 22.9192 29.8043 23.9914L26.1837 24.962L28.1238 32.2063L31.7444 31.2357C35.7436 30.1637 39.8543 32.5382 40.9258 36.5389L42.866 43.7832C48.0126 42.4037 53.0676 36.9458 51.1486 31.3103C55.0443 28.9382 57.1758 24.7677 56.1183 20.8196Z"
        fill="#EDF5FF" />
    <path
        d="M21.0101 38.4386L12.5609 43.765L8.68011 29.2757L11.8964 25.352L15.4976 24.3866C16.3988 24.145 17.325 24.6801 17.5667 25.5817L18.6014 29.4447L17.2817 31.5236L19.5378 32.9432L21.0101 38.4386Z"
        fill="#EDF5FF" />
    <path
        d="M11.8964 25.3521L7.89892 26.4236C6.99775 26.6653 6.46291 27.592 6.70431 28.4936L10.1475 41.3498L12.8756 43.0331L15.777 39.8409L11.8964 25.3521Z"
        fill="#D0E4E7" />
    <path
        d="M36.5913 45.9078L2.79915 58.028C1.19181 52.0266 4.75173 43.4433 10.7503 41.8353L22.8192 38.6773C24.8829 38.1242 26.9662 37.4583 28.8771 38.0175C32.5209 39.084 35.5371 41.9708 36.5913 45.9078Z"
        fill="#6AA5D5" />
    <path
        d="M7.66688 53.6617C7.02235 48.2024 10.4627 42.9541 15.9265 41.4892L28.8771 38.0176C26.9662 37.4584 24.8829 37.3998 22.8192 37.953L8.33696 41.8351C2.33837 43.4432 -1.22155 49.612 0.385791 55.6134L4.63993 56.2502L7.66688 53.6617Z"
        fill="#4B90BF" />
    <path
        d="M50.5568 112.045L25.365 118.798C25.365 118.798 20.3269 118.13 19.3245 114.901L4.27808 58.028L7.66714 53.6616L36.5916 45.9077L53.1169 107.609C53.6341 109.541 52.488 111.527 50.5568 112.045Z"
        fill="#EDF5FF" />
    <path
        d="M7.66878 53.6606L0.386047 55.613L16.9113 117.314C17.4288 119.247 19.4138 120.393 21.345 119.875L25.3652 118.798L7.66878 53.6606Z"
        fill="#D0E4E7" />
    <path
        d="M39.36 91.7528L20.9004 96.7014C19.9992 96.9431 19.0727 96.408 18.8313 95.5063L11.9454 69.7954C11.704 68.8937 12.2388 67.967 13.14 67.7254L31.5996 62.7768C32.5008 62.5351 33.4273 63.0702 33.6687 63.9719L40.5546 89.6828C40.796 90.5845 40.2612 91.5112 39.36 91.7528Z"
        fill="#6AA5D5" />
    <path
        d="M19.538 32.9433L17.3032 33.5422C17.1488 33.5832 16.9894 33.6026 16.8349 33.6026C16.0362 33.6026 15.3049 33.069 15.0877 32.2601C14.8294 31.2943 15.4015 30.3019 16.3667 30.0437L18.6014 29.4448L19.538 32.9433Z"
        fill="#D0E4E7" />
    <path
        d="M26.1825 26.7733C25.3833 26.7733 24.652 26.2396 24.4352 25.4308C24.1765 24.4647 24.7495 23.4716 25.7151 23.2129L29.3358 22.2423C32.3643 21.4302 34.1681 18.3046 33.3567 15.2748C33.0979 14.3087 33.671 13.3157 34.6366 13.0569C35.6018 12.7977 36.5946 13.3712 36.8533 14.3373C38.1813 19.2962 35.2293 24.4119 30.2725 25.7406L26.6519 26.7111C26.4954 26.7531 26.3376 26.7733 26.1825 26.7733Z"
        fill="#D0E4E7" />
    <path
        d="M40.9247 38.3505C40.1254 38.3505 39.3942 37.8168 39.1774 37.008C38.7843 35.5401 37.8433 34.3134 36.528 33.5535C35.2127 32.7939 33.6804 32.5919 32.2129 32.9852L28.5923 33.9557C27.6269 34.2154 26.6344 33.6412 26.3756 32.6753C26.1169 31.7092 26.6899 30.7162 27.6555 30.4574L31.2762 29.4869C33.6776 28.843 36.1854 29.1735 38.3381 30.4169C40.4908 31.6605 42.0309 33.6681 42.6743 36.0705C42.933 37.0366 42.36 38.0296 41.3943 38.2884C41.2375 38.3305 41.0798 38.3505 40.9247 38.3505Z"
        fill="#D0E4E7" />
    <path
        d="M42.8651 45.5945C42.0659 45.5945 41.3346 45.0608 41.1178 44.252C40.8591 43.2859 41.4321 42.2928 42.3977 42.0341C45.0935 41.3113 47.6531 39.312 48.9183 36.9409C49.8237 35.244 49.9976 33.5459 49.4353 31.8945C49.1615 31.0909 49.4826 30.2051 50.2076 29.7636C53.5153 27.7491 55.188 24.3432 54.3698 21.2881C53.5516 18.233 50.4009 16.1201 46.5293 16.0301C45.6808 16.0102 44.9601 15.4039 44.7956 14.5712C44.4562 12.8551 43.459 11.4708 41.831 10.4567C39.5512 9.03685 36.3337 8.58685 33.6333 9.3106C32.6672 9.57099 31.6753 8.99631 31.4166 8.03021C31.1578 7.06412 31.7306 6.0713 32.6962 5.81232C36.3736 4.8263 40.6069 5.42771 43.7444 7.38216C45.7917 8.65763 47.2343 10.411 47.9744 12.5054C52.8422 13.0829 56.7326 16.1164 57.8667 20.3506C59.0006 24.5853 57.1474 29.1589 53.2204 32.0937C53.624 34.2748 53.2493 36.5148 52.1121 38.6464C50.3712 41.9094 47.0079 44.5477 43.3348 45.5323C43.1777 45.5743 43.02 45.5945 42.8651 45.5945Z"
        fill="#D0E4E7" />
    <path
        d="M98.4199 40.6065L87.8177 29.9993L98.4199 19.3922C99.8838 17.9278 99.8835 15.5534 98.4199 14.089C96.9562 12.6246 94.5829 12.6246 93.119 14.089L82.5168 24.6961L71.9147 14.089C70.451 12.6246 68.0775 12.6246 66.6138 14.089C65.1499 15.5534 65.1499 17.9278 66.6138 19.3922L77.216 29.9993L66.6138 40.6065C65.1501 42.0708 65.1501 44.4453 66.6138 45.9097C68.0777 47.374 70.451 47.374 71.9147 45.9097L82.5168 35.3025L93.119 45.9097C94.5827 47.374 96.9562 47.374 98.4199 45.9097C99.8835 44.4453 99.8838 42.0708 98.4199 40.6065Z"
        fill="#EDF5FF" />
    <path
        d="M67.3258 65.5116C66.3262 65.5116 65.5157 64.7009 65.5157 63.7008V43.4954C65.5157 42.495 66.3262 41.6846 67.3258 41.6846C68.3254 41.6846 69.1359 42.4953 69.1359 43.4954V63.7008C69.1359 64.7009 68.3254 65.5116 67.3258 65.5116Z"
        fill="#EDF5FF" />
    <path
        d="M82.5168 46.8113C81.5172 46.8113 80.7068 46.0006 80.7068 45.0005V35.303C80.7068 34.3027 81.5172 33.4922 82.5168 33.4922C83.5164 33.4922 84.3269 34.3029 84.3269 35.303V45.0005C84.3269 46.0006 83.5164 46.8113 82.5168 46.8113Z"
        fill="#EDF5FF" />
    <path
        d="M75.1019 54.3108C74.1023 54.3108 73.2918 53.5001 73.2918 52.5V40.3064C73.2918 39.3061 74.1023 38.4956 75.1019 38.4956C76.1015 38.4956 76.912 39.3063 76.912 40.3064V52.5C76.912 53.5001 76.1015 54.3108 75.1019 54.3108Z"
        fill="#EDF5FF" />
    <path
        d="M67.3258 28.0427C66.3262 28.0427 65.5157 27.232 65.5157 26.2319V16.5994C65.5157 15.599 66.3262 14.7886 67.3258 14.7886C68.3254 14.7886 69.1359 15.5993 69.1359 16.5994V26.2319C69.1359 27.2323 68.3254 28.0427 67.3258 28.0427Z"
        fill="#EDF5FF" />
    <path
        d="M97.5098 31.7817C96.5102 31.7817 95.6997 30.971 95.6997 29.9709V17.8884C95.6997 16.8881 96.5102 16.0776 97.5098 16.0776C98.5094 16.0776 99.3199 16.8883 99.3199 17.8884V29.9709C99.3199 30.971 98.5094 31.7817 97.5098 31.7817Z"
        fill="#EDF5FF" />
</svg>