<svg width="151" height="94" viewBox="0 0 151 94" fill="none" xmlns="http://www.w3.org/2000/svg">
<path d="M67.6955 29.2637L66.2035 28.4751V29.987L67.6955 29.2637Z" fill="#2EB3BD"/>
<path d="M33.9702 29.3947L29.1513 26.0045C28.4421 24.2328 27.2612 22.6581 25.9235 21.8856C23.7551 20.6338 21.9968 21.9629 21.9968 24.8539C21.9968 27.7452 23.7551 31.104 25.9235 32.3562C26.9512 32.9495 27.8866 32.9623 28.5865 32.5044L33.9702 29.3947Z" fill="#23292E"/>
<path d="M52.2306 40.0674L47.4117 36.6772C46.7025 34.9055 45.5216 33.3308 44.1838 32.5587C42.0151 31.3065 40.2572 32.6356 40.2572 35.5269C40.2572 38.4183 42.0151 41.7771 44.1838 43.0289C45.2119 43.6225 46.147 43.635 46.8468 43.1771L52.2306 40.0674Z" fill="#23292E"/>
<path d="M66.994 29.2786L66.8607 29.3556C66.4363 27.1695 65.3612 25.1437 63.7512 23.5584L60.0173 19.8817L59.238 18.4303C57.2788 14.7815 54.3382 11.753 50.7483 9.68656L38.75 2.78076L23.4718 11.6364L23.1999 14.5452C22.01 16.8425 21.3893 19.3917 21.3893 21.9787V22.5058C21.3893 24.3897 22.3935 26.1308 24.0245 27.0743L49.0496 41.5505C49.0709 41.5641 49.092 41.578 49.1141 41.5904C49.1522 41.6125 49.191 41.6335 49.2299 41.6549L49.3589 41.7294C49.4056 41.7565 49.453 41.78 49.5007 41.8017C49.5125 41.8071 49.5242 41.8121 49.536 41.8174C49.577 41.8349 49.6179 41.8505 49.6589 41.8644C49.6643 41.8662 49.6696 41.8691 49.675 41.8709C51.2137 42.5315 52.988 42.4371 54.4586 41.5872L65.9427 34.9494C67.2758 34.179 68.0969 32.7558 68.0969 31.216V29.9151C68.0969 29.3492 67.4839 28.9954 66.994 29.2786Z" fill="#63DBFF"/>
<path d="M66.994 29.2799L53.5022 37.0783C52.8668 37.4454 52.153 37.615 51.4439 37.5904C50.9486 35.6434 49.9294 33.8496 48.473 32.4157L44.7395 28.7386L43.9602 27.2876C42.0006 23.6384 39.06 20.6099 35.4705 18.5438L23.4718 11.6377L23.1995 14.5465C22.01 16.8438 21.3893 19.393 21.3893 21.98V22.507C21.3893 24.391 22.3935 26.132 24.0245 27.0756L49.0492 41.5518C49.0709 41.5653 49.092 41.5792 49.1137 41.5917C49.1522 41.6138 49.191 41.6348 49.2299 41.6562L49.3589 41.7307C49.4622 41.7905 49.5681 41.8372 49.675 41.8721C51.2137 42.5328 52.988 42.4387 54.4586 41.5885L65.9427 34.9506C67.2758 34.1802 68.0969 32.757 68.0969 31.2173V29.9163C68.0969 29.3505 67.4839 28.9966 66.994 29.2799Z" fill="#2EB3BD"/>
<path d="M48.1106 40.0614C48.1106 42.9527 46.3523 44.2819 44.184 43.0297C42.0152 41.7779 40.2573 38.4191 40.2573 35.5278C40.2573 32.6365 42.0152 31.3077 44.184 32.5595C46.3523 33.8113 48.1106 37.1701 48.1106 40.0614Z" fill="#2E373D"/>
<path d="M46.1142 38.9088C46.1142 40.3306 45.2501 40.9838 44.1839 40.3684C43.1177 39.7526 42.2532 38.1014 42.2532 36.6799C42.2532 35.2581 43.1177 34.605 44.1839 35.2204C45.2501 35.8361 46.1142 37.4874 46.1142 38.9088Z" fill="#CECECE"/>
<path d="M45.2309 38.3981C45.2309 39.1692 44.7623 39.5234 44.1839 39.1896C43.6056 38.8557 43.137 37.9602 43.137 37.1891C43.137 36.418 43.6056 36.0638 44.1839 36.3977C44.7623 36.7316 45.2309 37.627 45.2309 38.3981Z" fill="#627681"/>
<path d="M29.8501 29.3879C29.8501 32.2792 28.0918 33.6084 25.9235 32.3562C23.7551 31.1044 21.9968 27.7456 21.9968 24.8539C21.9968 21.9629 23.7551 20.6338 25.9235 21.8856C28.0922 23.1378 29.8501 26.4966 29.8501 29.3879Z" fill="#2E373D"/>
<path d="M27.8542 28.2346C27.8542 29.6561 26.9897 30.3096 25.9235 29.6942C24.8573 29.0785 23.9932 27.4272 23.9932 26.0054C23.9932 24.584 24.8573 23.9305 25.9235 24.5462C26.9897 25.1616 27.8542 26.8132 27.8542 28.2346Z" fill="#CECECE"/>
<path d="M26.9705 27.7246C26.9705 28.4954 26.5019 28.8499 25.9235 28.516C25.3452 28.1821 24.8766 27.2867 24.8766 26.5156C24.8766 25.7444 25.3452 25.3899 25.9235 25.7238C26.5019 26.0577 26.9705 26.9535 26.9705 27.7246Z" fill="#627681"/>
<path d="M45.5499 28.271L59.2804 20.3133L56.208 15.7362C55.4179 14.5585 53.8482 14.1986 52.6238 14.9138L44.0874 19.9007C42.7458 20.6846 42.2775 22.3972 43.0337 23.7545L45.5499 28.271Z" fill="#304E75"/>
<path d="M66.2188 27.2236L63.9457 28.5485C63.6146 28.7416 63.4111 29.0962 63.4111 29.4792V31.3589L66.8617 29.3666C66.7191 28.6308 66.5039 27.9128 66.2188 27.2236Z" fill="white"/>
<path d="M66.1932 29.7526L66.8614 29.3666C66.7192 28.6304 66.504 27.9128 66.2185 27.2236L65.5532 27.6113C65.8337 28.3016 66.0478 29.0181 66.1932 29.7526Z" fill="#EF9910"/>
<path d="M52.3817 37.7259L54.9011 36.2714V35.0167C54.9011 34.4558 54.2938 34.1056 53.8081 34.3856L51.6429 35.636C51.2007 35.8908 50.6566 35.8908 50.2147 35.636L48.749 34.7897C48.749 35.8851 49.3342 36.8971 50.2835 37.4441L50.7749 37.727C51.2723 38.0132 51.8846 38.0128 52.3817 37.7259Z" fill="white"/>
<path d="M50.8241 35.8148C50.6131 35.7991 50.4039 35.7464 50.2147 35.6373L48.749 34.791C48.749 35.8864 49.3342 36.8984 50.2835 37.4454L50.7749 37.7283C51.0072 37.8619 51.2645 37.9307 51.5232 37.9392C51.3621 37.2077 51.1273 36.4964 50.8241 35.8148Z" fill="#EF9910"/>
<path d="M45.5498 28.2707L53.8082 34.3861L63.9457 28.5486L59.2803 20.313L45.5498 28.2707Z" fill="#2EB3BD"/>
<path d="M33.4431 22.9836L43.4687 28.6429L40.5669 24.5151C39.7028 23.2865 38.581 22.2606 37.2799 21.5094L33.4431 19.2944V22.9836Z" fill="#243B58"/>
<path d="M58.1361 20.1072L55.234 15.9801C54.8719 15.4652 54.4625 14.9884 54.0159 14.5501C53.542 14.543 53.0609 14.6592 52.6237 14.9143L50.8116 15.973L58.1361 20.1072Z" fill="#59718B"/>
<path d="M32.099 18.5178L27.8353 16.0563C26.6715 15.3842 25.1819 15.8852 24.6606 17.1238L24.3538 17.8522L32.099 22.2244V18.5178Z" fill="#243B58"/>
<path d="M118.079 79.2611L113.513 81.8216L112.197 81.9503L110.375 80.6057L113.367 76.5405L115.331 75.8101L118.079 79.2611Z" fill="#282828"/>
<path d="M81.6179 58.5253L77.587 60.8653L75.5655 60.812L73.9143 59.8699L76.9058 55.8047L78.8702 55.0742L81.6179 58.5253Z" fill="#282828"/>
<path d="M64.346 43.7704L91.3655 28.0683C91.3869 28.056 91.4093 28.0455 91.4329 28.0371L64.4133 43.7391C64.3898 43.7476 64.3674 43.758 64.346 43.7704Z" fill="#2B2F35"/>
<path d="M64.4135 43.7395L91.4331 28.0375C91.4517 28.0308 91.4711 28.0254 91.4912 28.0215L64.4717 43.7235C64.4516 43.7275 64.4322 43.7329 64.4135 43.7395Z" fill="#2D3137"/>
<path d="M64.4715 43.7232L91.491 28.0212C91.5066 28.0181 91.5226 28.0158 91.5389 28.0142L64.5194 43.7162C64.5032 43.7176 64.4871 43.72 64.4715 43.7232Z" fill="#2E3339"/>
<path d="M64.5194 43.7162L91.539 28.0142C91.5531 28.0129 91.5675 28.0122 91.582 28.0122L64.5625 43.7142C64.548 43.7142 64.5336 43.715 64.5194 43.7162Z" fill="#30353B"/>
<path d="M64.5624 43.7142L91.582 28.0122C91.5949 28.0122 91.6078 28.0126 91.6211 28.0135L64.6016 43.7155C64.5884 43.7148 64.5753 43.7142 64.5624 43.7142Z" fill="#33383D"/>
<path d="M64.6016 43.7159L91.6211 28.0137C91.6333 28.0146 91.6455 28.0158 91.6581 28.0174L64.6385 43.7197C64.626 43.7179 64.6138 43.7166 64.6016 43.7159Z" fill="#33393F"/>
<path d="M64.6384 43.7196L91.6579 28.0176C91.67 28.0192 91.682 28.0212 91.6942 28.0235L64.6747 43.7255C64.6625 43.7232 64.6503 43.7212 64.6384 43.7196Z" fill="#353A41"/>
<path d="M64.6748 43.7255L91.6943 28.0234C91.7057 28.0256 91.717 28.0281 91.7283 28.031L64.7087 43.733C64.6974 43.7301 64.6861 43.7276 64.6748 43.7255Z" fill="#373C43"/>
<path d="M64.7087 43.7328L91.7283 28.0308C91.7396 28.0336 91.7511 28.0367 91.7626 28.0403L64.743 43.7423C64.7315 43.7387 64.7201 43.7357 64.7087 43.7328Z" fill="#393E45"/>
<path d="M64.743 43.7426L91.7626 28.0405C91.7735 28.0438 91.7846 28.0475 91.7958 28.0513L64.7762 43.7533C64.7651 43.7494 64.754 43.7458 64.743 43.7426Z" fill="#3A4047"/>
<path d="M64.7763 43.7533L91.7958 28.0513C91.807 28.0552 91.8181 28.0593 91.8292 28.0638L64.8097 43.7659C64.7986 43.7614 64.7872 43.7573 64.7763 43.7533Z" fill="#3C4249"/>
<path d="M64.8096 43.766L91.8292 28.064C91.8401 28.0683 91.8512 28.0731 91.8622 28.078L64.8426 43.78C64.8315 43.7752 64.8206 43.7705 64.8096 43.766Z" fill="#3E434B"/>
<path d="M64.8427 43.7797L91.8624 28.0776C91.8736 28.0827 91.8847 28.0879 91.896 28.0934L64.8765 43.7955C64.865 43.7899 64.8538 43.7847 64.8427 43.7797Z" fill="#40454E"/>
<path d="M64.8763 43.7958L91.8959 28.0938C91.9072 28.0993 91.9183 28.1051 91.9298 28.1113L64.9103 43.8134C64.8988 43.8073 64.8875 43.8014 64.8763 43.7958Z" fill="#424750"/>
<path d="M64.91 43.8134L91.9297 28.1113L91.9559 28.1259L64.9364 43.8281L64.91 43.8134Z" fill="#424952"/>
<path d="M64.9365 43.8277L91.9561 28.1255L92.1582 28.2424L65.1387 43.9444L64.9365 43.8277Z" fill="#484E58"/>
<path d="M65.1383 43.9457L92.1579 28.2437L132.558 51.2598L105.538 66.9618L65.1383 43.9457Z" fill="#484E58"/>
<path d="M150.263 62.4367V65.5702C150.246 65.8372 150.163 66.0203 150.013 66.1204L122.994 81.8218C123.144 81.7225 123.227 81.5385 123.227 81.2715L123.244 78.1381C123.244 77.6221 122.877 76.9717 122.41 76.7048L105.542 66.9538L132.561 51.2524L149.429 61.0035C149.896 61.2697 150.263 61.9038 150.263 62.4367Z" fill="#686868"/>
<path d="M122.417 76.7058C122.874 76.9701 123.246 77.6129 123.244 78.1391L123.235 81.2692C123.234 81.8072 122.86 82.0208 122.403 81.7566L64.9221 48.879C64.4645 48.6148 64.0933 47.9712 64.0947 47.4332L64.1035 44.3031C64.105 43.7769 64.4787 43.5642 64.9363 43.8283L65.1384 43.945L105.539 66.9611L122.417 76.7058Z" fill="#4F4D4D"/>
<path d="M74.4953 53.1751C74.4619 53.1418 74.4452 53.1247 74.412 53.0913V56.1417C74.4287 56.1417 74.4619 56.1417 74.4786 56.1253C74.4953 56.1253 74.4953 56.1253 74.512 56.1253H74.5619C74.5786 56.1253 74.5786 56.1253 74.5953 56.1253C74.612 56.1083 74.6287 56.1083 74.6619 56.1083L74.6786 56.0919C74.6953 56.0919 74.712 56.0919 74.7287 56.0749C74.7452 56.0749 74.7452 56.0749 74.7452 56.0749C74.7786 56.0586 74.7953 56.0415 74.812 56.0415L74.8287 56.0252C74.8454 56.0252 74.8619 56.0081 74.8786 55.9918C74.8786 55.9918 74.8953 55.9918 74.8953 55.9754C74.912 55.9754 74.9287 55.9584 74.9454 55.9413C74.9786 55.925 74.9953 55.8916 75.012 55.8745C75.012 55.8745 75.012 55.8746 75.012 55.8582C75.0287 55.8419 75.0454 55.8248 75.0619 55.8085C75.0619 55.8085 75.0619 55.8085 75.0619 55.7914C75.0786 55.7751 75.0953 55.758 75.112 55.7247V55.7083C75.1287 55.6913 75.1287 55.6749 75.1454 55.6415C75.1454 55.6415 75.1454 55.6415 75.1454 55.6245C75.1619 55.6081 75.1786 55.5748 75.1786 55.5415C75.1786 55.5415 75.1786 55.5415 75.1953 55.5245C75.1953 55.5082 75.1953 55.4748 75.212 55.4577C75.212 55.4414 75.212 55.4414 75.212 55.4252C75.2287 55.4082 75.2287 55.3748 75.2287 55.3414C75.2287 55.325 75.2287 55.325 75.2287 55.325C75.2287 55.2917 75.2454 55.2583 75.2454 55.2249V54.9579C75.2454 54.9245 75.2454 54.8912 75.2287 54.8578C75.2287 54.8414 75.2287 54.8414 75.2287 54.8414C75.2287 54.791 75.2287 54.7576 75.212 54.7251C75.212 54.708 75.212 54.691 75.212 54.691C75.212 54.6585 75.1953 54.6242 75.1953 54.5917C75.1953 54.5917 75.1953 54.5747 75.1786 54.5583C75.1786 54.5249 75.1619 54.4915 75.1619 54.4582C75.1619 54.4411 75.1454 54.4248 75.1454 54.4248C75.1454 54.3914 75.1287 54.358 75.1287 54.3246C75.112 54.3246 75.112 54.3083 75.112 54.2912C75.0953 54.2578 75.0786 54.2244 75.0786 54.191C75.0619 54.1747 75.0619 54.1747 75.0619 54.1576C75.0454 54.1243 75.0454 54.0909 75.0287 54.0747C75.012 54.0577 75.012 54.0413 75.012 54.0243C74.9953 53.9909 74.9786 53.9575 74.9619 53.9241V53.9078C74.9454 53.8744 74.9287 53.841 74.8953 53.8076C74.8953 53.7905 74.8953 53.7742 74.8786 53.7742C74.8619 53.7408 74.8454 53.7074 74.8287 53.674V53.6577C74.7953 53.6243 74.7786 53.5909 74.7619 53.5575C74.7452 53.5405 74.7452 53.5241 74.7452 53.5241C74.7287 53.4907 74.6953 53.4573 74.6786 53.4403C74.6786 53.424 74.6786 53.424 74.6619 53.4078C74.6452 53.3737 74.6287 53.341 74.5953 53.3076L74.5786 53.2906C74.5619 53.2572 74.5287 53.2408 74.512 53.2076C74.512 53.1915 74.4953 53.1915 74.4953 53.1751Z" fill="#929393"/>
<path d="M107.262 45.6158L134.281 29.9136L134.255 39.3172L107.235 55.0193L107.262 45.6158Z" fill="#B94234"/>
<path d="M107.335 45.4589L134.354 29.7568C134.337 29.7669 134.322 29.7814 134.31 29.7996L107.291 45.5016C107.302 45.4835 107.317 45.4691 107.335 45.4589Z" fill="#7E2C23"/>
<path d="M107.291 45.5014L134.311 29.7993L134.301 29.8166L107.281 45.5186L107.291 45.5014Z" fill="#812E24"/>
<path d="M107.281 45.5189L134.301 29.8169L134.295 29.8311L107.275 45.5331L107.281 45.5189Z" fill="#853026"/>
<path d="M107.275 45.5331L134.295 29.8311L134.291 29.844L107.271 45.546L107.275 45.5331Z" fill="#8B3227"/>
<path d="M107.271 45.5463L134.291 29.8442L134.288 29.8566L107.268 45.5587L107.271 45.5463Z" fill="#903329"/>
<path d="M107.268 45.5585L134.287 29.8564L134.285 29.8681L107.265 45.5702L107.268 45.5585Z" fill="#95352B"/>
<path d="M107.265 45.5702L134.285 29.8682L134.283 29.8795L107.264 45.5815L107.265 45.5702Z" fill="#9A362B"/>
<path d="M107.264 45.5814L134.283 29.8794L134.282 29.8907L107.263 45.5927L107.264 45.5814Z" fill="#9E382C"/>
<path d="M107.263 45.5932L134.282 29.8911L134.282 29.9019L107.262 45.6039L107.263 45.5932Z" fill="#A33A2E"/>
<path d="M107.262 45.6039L134.282 29.9019L134.281 29.9128L107.262 45.6148L107.262 45.6039Z" fill="#A83B2F"/>
<path d="M107.334 45.4589L134.354 29.7569L134.374 29.7476L107.355 45.4496L107.334 45.4589Z" fill="#24282D"/>
<path d="M107.355 45.4486L134.374 29.7465L134.392 29.7417L107.372 45.4439L107.355 45.4486Z" fill="#26292E"/>
<path d="M107.372 45.4439L134.392 29.7417L134.406 29.7397L107.386 45.4418L107.372 45.4439Z" fill="#272B30"/>
<path d="M107.386 45.4418L134.406 29.7398L134.418 29.7393L107.399 45.4413L107.386 45.4418Z" fill="#292C32"/>
<path d="M107.399 45.4413L134.418 29.7393L134.43 29.7396L107.41 45.4417L107.399 45.4413Z" fill="#2A2E34"/>
<path d="M107.411 45.4413L134.43 29.7393L134.441 29.7403L107.421 45.4424L107.411 45.4413Z" fill="#2B2F35"/>
<path d="M107.421 45.4437L134.44 29.7417L134.451 29.7433L107.431 45.4455L107.421 45.4437Z" fill="#2D3137"/>
<path d="M107.432 45.4454L134.451 29.7432L134.461 29.7455L107.442 45.4475L107.432 45.4454Z" fill="#2E3239"/>
<path d="M107.442 45.4472L134.461 29.7451L134.471 29.7478L107.451 45.4498L107.442 45.4472Z" fill="#30343A"/>
<path d="M107.451 45.4501L134.471 29.748L134.481 29.7511L107.461 45.4533L107.451 45.4501Z" fill="#31353C"/>
<path d="M107.461 45.4527L134.481 29.7505L134.49 29.7543L107.471 45.4563L107.461 45.4527Z" fill="#32373E"/>
<path d="M107.471 45.4564L134.49 29.7544L134.5 29.7583L107.48 45.4604L107.471 45.4564Z" fill="#343940"/>
<path d="M107.48 45.4613L134.499 29.7593L134.509 29.7639L107.49 45.466L107.48 45.4613Z" fill="#353A41"/>
<path d="M107.49 45.4652L134.51 29.7632L134.519 29.7682L107.5 45.4702L107.49 45.4652Z" fill="#383C44"/>
<path d="M107.5 45.4711L134.519 29.769L134.527 29.7734L107.507 45.4754L107.5 45.4711Z" fill="#383D46"/>
<path d="M132.628 24.7156L132.561 51.2513L105.542 66.953L105.609 40.4173C105.609 39.5845 105.147 38.6133 104.503 37.9595L131.522 22.2578C132.166 22.9107 132.628 23.8828 132.628 24.7156Z" fill="#D7D7D7"/>
<path d="M92.7302 0.620017C93.0469 0.436909 93.4635 0.453604 93.9468 0.737601L130.944 21.7835C131.15 21.9045 131.34 22.0745 131.522 22.2585L104.503 37.9602C104.322 37.7762 104.131 37.606 103.925 37.4852L66.9278 16.4384C66.4445 16.1553 66.011 16.1386 65.711 16.3226L92.7302 0.620017Z" fill="#E8E8E8"/>
<path d="M103.927 37.4921C104.863 38.0328 105.616 39.3494 105.613 40.4256L105.538 66.9612L65.1383 43.945L65.2135 17.4095C65.2166 16.3334 65.9747 15.8893 66.9218 16.4361L103.927 37.4921Z" fill="#BFBFBF"/>
<path d="M107.479 55.4291L134.498 39.7271L146.013 46.3749L118.994 62.077L107.479 55.4291Z" fill="#CE493A"/>
<path d="M118.994 62.0765L146.013 46.3745L146.036 46.3876L119.017 62.0897L118.994 62.0765Z" fill="#C04335"/>
<path d="M119.017 62.0902L146.037 46.3882C146.047 46.3936 146.057 46.3988 146.066 46.4036L119.047 62.1057C119.037 62.1008 119.027 62.0956 119.017 62.0902Z" fill="#BB4234"/>
<path d="M119.046 62.1054L146.066 46.4033C146.076 46.4082 146.086 46.4128 146.095 46.4171L119.076 62.1192C119.066 62.1149 119.056 62.1102 119.046 62.1054Z" fill="#B64033"/>
<path d="M119.076 62.119L146.095 46.417C146.105 46.4213 146.115 46.4254 146.124 46.4292L119.105 62.1312C119.095 62.1275 119.086 62.1233 119.076 62.119Z" fill="#B13E32"/>
<path d="M119.105 62.1317L146.124 46.4297C146.134 46.4335 146.143 46.437 146.153 46.4405L119.133 62.1425C119.124 62.1391 119.114 62.1355 119.105 62.1317Z" fill="#AC3C30"/>
<path d="M119.133 62.1417L146.153 46.4395C146.162 46.4429 146.172 46.4459 146.182 46.4488L119.162 62.1508C119.152 62.1481 119.143 62.1451 119.133 62.1417Z" fill="#A83B2F"/>
<path d="M119.162 62.1508L146.181 46.4487C146.191 46.4516 146.201 46.4543 146.21 46.4566L119.191 62.1587C119.181 62.1563 119.172 62.1536 119.162 62.1508Z" fill="#A33A2E"/>
<path d="M119.191 62.1596L146.211 46.4575C146.22 46.4599 146.23 46.462 146.239 46.4638L119.219 62.1658C119.21 62.164 119.201 62.1621 119.191 62.1596Z" fill="#9E382C"/>
<path d="M119.22 62.1649L146.239 46.4629C146.249 46.4649 146.26 46.4667 146.27 46.4679L119.251 62.1699C119.24 62.1687 119.23 62.1671 119.22 62.1649Z" fill="#9A362B"/>
<path d="M119.251 62.1713L146.27 46.4692C146.28 46.4707 146.29 46.4716 146.3 46.4723L119.281 62.1743C119.271 62.1736 119.261 62.1725 119.251 62.1713Z" fill="#95352B"/>
<path d="M119.281 62.1737L146.3 46.4717C146.312 46.4724 146.323 46.4728 146.334 46.4728L119.315 62.1748C119.304 62.1748 119.292 62.1744 119.281 62.1737Z" fill="#903329"/>
<path d="M119.314 62.1753L146.334 46.4733C146.345 46.4733 146.357 46.4728 146.368 46.4717L119.348 62.1737C119.337 62.1746 119.326 62.1753 119.314 62.1753Z" fill="#8B3227"/>
<path d="M119.349 62.1725L146.368 46.4705C146.382 46.4692 146.396 46.4672 146.41 46.4644L119.39 62.1664C119.377 62.1693 119.363 62.1712 119.349 62.1725Z" fill="#853026"/>
<path d="M119.39 62.167L146.41 46.465C146.427 46.4616 146.443 46.4569 146.459 46.4512L119.44 62.1532C119.424 62.159 119.407 62.1636 119.39 62.167Z" fill="#812E24"/>
<path d="M119.44 62.154L146.459 46.4519C146.479 46.4449 146.497 46.4363 146.514 46.4263L119.495 62.1283C119.477 62.1384 119.459 62.147 119.44 62.154Z" fill="#7E2C23"/>
<path d="M119.625 61.2426L146.644 45.5405L146.653 45.5649L119.633 61.267L119.625 61.2426Z" fill="#424751"/>
<path d="M119.633 61.267L146.653 45.5649C146.657 45.5784 146.662 45.5915 146.666 45.6048L119.646 61.3068C119.642 61.2937 119.638 61.2804 119.633 61.267Z" fill="#404650"/>
<path d="M119.646 61.307L146.666 45.605C146.67 45.6181 146.674 45.6312 146.677 45.6443L119.658 61.3463C119.654 61.3334 119.65 61.3203 119.646 61.307Z" fill="#40444D"/>
<path d="M119.657 61.3461L146.677 45.644C146.681 45.6573 146.684 45.6704 146.688 45.6834L119.668 61.3854C119.665 61.3725 119.661 61.3594 119.657 61.3461Z" fill="#3E434C"/>
<path d="M119.668 61.3856L146.687 45.6836C146.691 45.6967 146.694 45.7094 146.696 45.7224L119.677 61.4244C119.674 61.4117 119.671 61.3987 119.668 61.3856Z" fill="#3D414A"/>
<path d="M119.677 61.4242L146.697 45.7222C146.699 45.7349 146.702 45.7475 146.704 45.7599L119.685 61.4619C119.682 61.4495 119.68 61.4369 119.677 61.4242Z" fill="#3B4048"/>
<path d="M119.685 61.4618L146.704 45.7598C146.706 45.7722 146.709 45.7844 146.71 45.7964L119.691 61.4984C119.689 61.4864 119.687 61.4742 119.685 61.4618Z" fill="#393E47"/>
<path d="M119.691 61.4986L146.71 45.7964C146.712 45.8084 146.714 45.8204 146.716 45.8323L119.696 61.5343C119.695 61.5227 119.693 61.5106 119.691 61.4986Z" fill="#383D46"/>
<path d="M119.696 61.5341L146.716 45.832C146.717 45.8439 146.718 45.8555 146.719 45.867L119.7 61.5691C119.699 61.5576 119.697 61.5459 119.696 61.5341Z" fill="#383C44"/>
<path d="M119.7 61.5697L146.719 45.8677C146.721 45.8792 146.721 45.8907 146.722 45.902L119.703 61.604C119.702 61.5927 119.701 61.5814 119.7 61.5697Z" fill="#353A41"/>
<path d="M119.703 61.6039L146.722 45.9019C146.723 45.9133 146.723 45.9247 146.724 45.9358L119.704 61.6378C119.704 61.6267 119.703 61.6154 119.703 61.6039Z" fill="#343940"/>
<path d="M119.704 61.6381L146.724 45.936C146.724 45.9473 146.724 45.9587 146.724 45.9698L119.705 61.6718C119.705 61.6607 119.705 61.6496 119.704 61.6381Z" fill="#32373E"/>
<path d="M119.705 61.6718L146.724 45.9697C146.724 45.9809 146.724 45.9918 146.723 46.0026L119.704 61.7046C119.704 61.6938 119.705 61.6829 119.705 61.6718Z" fill="#31353C"/>
<path d="M119.704 61.7051L146.723 46.0029C146.723 46.0144 146.722 46.0259 146.721 46.0372L119.702 61.7393C119.703 61.7281 119.703 61.7166 119.704 61.7051Z" fill="#30343A"/>
<path d="M119.702 61.7387L146.721 46.0366C146.72 46.0479 146.719 46.0591 146.718 46.07L119.698 61.7721C119.7 61.7611 119.701 61.75 119.702 61.7387Z" fill="#2E3239"/>
<path d="M119.698 61.7714L146.718 46.0693C146.716 46.0812 146.715 46.0927 146.713 46.104L119.693 61.806C119.695 61.7947 119.697 61.7832 119.698 61.7714Z" fill="#2D3137"/>
<path d="M119.693 61.806L146.713 46.104C146.71 46.1159 146.708 46.1277 146.706 46.139L119.686 61.841C119.689 61.8297 119.691 61.8181 119.693 61.806Z" fill="#2B2F35"/>
<path d="M119.686 61.8419L146.705 46.1396C146.703 46.1522 146.699 46.1646 146.696 46.1764L119.676 61.8785C119.68 61.8666 119.683 61.8544 119.686 61.8419Z" fill="#2A2E34"/>
<path d="M119.676 61.8788L146.696 46.1768C146.692 46.1897 146.688 46.2024 146.683 46.2146L119.664 61.9167C119.668 61.9045 119.672 61.8917 119.676 61.8788Z" fill="#292C32"/>
<path d="M119.664 61.9166L146.683 46.2144C146.678 46.2294 146.672 46.2438 146.665 46.2578L119.646 61.9598C119.652 61.946 119.658 61.9315 119.664 61.9166Z" fill="#272B30"/>
<path d="M119.645 61.9594L146.665 46.2573C146.656 46.2749 146.647 46.2914 146.637 46.307L119.618 62.0091C119.628 61.9935 119.637 61.977 119.645 61.9594Z" fill="#26292E"/>
<path d="M119.618 62.0097L146.637 46.3076C146.604 46.3584 146.563 46.3988 146.515 46.427L119.495 62.129C119.543 62.1009 119.585 62.0606 119.618 62.0097Z" fill="#24282D"/>
<path d="M149.18 48.1854L149.146 60.8363L122.127 76.5376L122.161 63.8867C122.161 63.6197 122.111 63.3528 122.01 63.0534L149.03 47.3521C149.13 47.6515 149.18 47.9184 149.18 48.1854Z" fill="#EF5A5A"/>
<path d="M107.507 45.4755L134.527 29.7734L142.242 34.2278L115.223 49.93L107.507 45.4755Z" fill="#3D414A"/>
<path d="M115.86 50.7387L142.88 35.0366L146.645 45.5395L119.625 61.2415L115.86 50.7387Z" fill="#424851"/>
<path d="M115.223 49.9293L142.242 34.2271L142.249 34.2312L115.23 49.9332L115.223 49.9293Z" fill="#383D46"/>
<path d="M115.23 49.933L142.249 34.231C142.259 34.2367 142.269 34.2428 142.279 34.2489L115.259 49.9509C115.249 49.9448 115.24 49.9387 115.23 49.933Z" fill="#393E47"/>
<path d="M115.259 49.9515L142.279 34.2495C142.289 34.256 142.299 34.2626 142.309 34.2694L115.289 49.9715C115.279 49.9647 115.269 49.958 115.259 49.9515Z" fill="#3B4048"/>
<path d="M115.289 49.9718L142.309 34.2695C142.319 34.2765 142.33 34.2839 142.34 34.2914L115.32 49.9935C115.31 49.9861 115.3 49.9788 115.289 49.9718Z" fill="#3D414A"/>
<path d="M115.32 49.9931L142.34 34.291C142.35 34.2987 142.361 34.3068 142.371 34.3149L115.352 50.0169C115.341 50.0089 115.331 50.001 115.32 49.9931Z" fill="#3E434C"/>
<path d="M115.352 50.017L142.371 34.3149C142.382 34.3234 142.392 34.3322 142.403 34.341L115.384 50.043C115.373 50.034 115.362 50.0254 115.352 50.017Z" fill="#40444D"/>
<path d="M115.384 50.0429L142.403 34.3408C142.414 34.35 142.425 34.3593 142.435 34.369L115.416 50.071C115.405 50.0614 115.394 50.052 115.384 50.0429Z" fill="#404650"/>
<path d="M115.416 50.0718L142.435 34.3696C142.446 34.3793 142.457 34.3892 142.467 34.3993L115.448 50.1013C115.437 50.0912 115.426 50.0814 115.416 50.0718Z" fill="#424751"/>
<path d="M115.448 50.1007L142.467 34.3984C142.477 34.4083 142.488 34.4185 142.498 34.429L115.478 50.131C115.468 50.1208 115.458 50.1105 115.448 50.1007Z" fill="#434953"/>
<path d="M115.478 50.1312L142.498 34.4292C142.508 34.4394 142.518 34.4498 142.528 34.4603L115.508 50.1623C115.498 50.1519 115.488 50.1415 115.478 50.1312Z" fill="#454A55"/>
<path d="M115.508 50.1627L142.528 34.4604C142.537 34.4709 142.547 34.4815 142.556 34.4922L115.537 50.1943C115.527 50.1835 115.518 50.1729 115.508 50.1627Z" fill="#464C56"/>
<path d="M115.537 50.1947L142.556 34.4927C142.565 34.5034 142.575 34.5142 142.584 34.5253L115.564 50.2274C115.555 50.2163 115.546 50.2055 115.537 50.1947Z" fill="#5C626B"/>
<path d="M115.565 50.2271L142.584 34.5249C142.594 34.5362 142.603 34.5479 142.612 34.5596L115.593 50.2616C115.583 50.2499 115.574 50.2384 115.565 50.2271Z" fill="#656A73"/>
<path d="M115.592 50.2623L142.612 34.5601C142.623 34.5732 142.633 34.5866 142.643 34.6003L115.623 50.3023C115.613 50.2888 115.603 50.2754 115.592 50.2623Z" fill="#6D7279"/>
<path d="M115.623 50.3013L142.643 34.5991C142.658 34.6194 142.673 34.6402 142.687 34.6616L115.667 50.3636C115.653 50.3424 115.638 50.3216 115.623 50.3013Z" fill="#72777F"/>
<path d="M115.667 50.3637L142.687 34.6616C142.708 34.6927 142.728 34.7246 142.747 34.7573L115.728 50.4593C115.708 50.4267 115.688 50.3947 115.667 50.3637Z" fill="#787C83"/>
<path d="M115.727 50.4603L142.747 34.7583C142.759 34.7795 142.771 34.801 142.783 34.8227L115.764 50.5248C115.752 50.5031 115.74 50.4815 115.727 50.4603Z" fill="#72777F"/>
<path d="M115.764 50.5238L142.783 34.8218C142.791 34.8361 142.798 34.8505 142.806 34.865L115.786 50.5671C115.779 50.5525 115.771 50.5382 115.764 50.5238Z" fill="#6D7279"/>
<path d="M115.786 50.5673L142.806 34.8652C142.812 34.8778 142.818 34.8905 142.824 34.9033L115.804 50.6053C115.798 50.5926 115.792 50.58 115.786 50.5673Z" fill="#656A73"/>
<path d="M115.804 50.6058L142.824 34.9038C142.83 34.9157 142.835 34.9277 142.84 34.9397L115.821 50.6417C115.815 50.6297 115.81 50.6177 115.804 50.6058Z" fill="#5C626B"/>
<path d="M115.821 50.641L142.84 34.939C142.846 34.9506 142.851 34.9623 142.855 34.9742L115.836 50.6762C115.831 50.6643 115.826 50.6527 115.821 50.641Z" fill="#464C56"/>
<path d="M115.836 50.6762L142.855 34.9741C142.86 34.986 142.865 34.998 142.87 35.0098L115.85 50.7119C115.846 50.6999 115.841 50.688 115.836 50.6762Z" fill="#454A55"/>
<path d="M115.85 50.7123L142.87 35.0103L142.88 35.0365L115.86 50.7385L115.85 50.7123Z" fill="#434953"/>
<path d="M117.354 50.2779C117.121 49.6411 116.664 49.0591 116.175 48.7766L105.607 42.6753L105.538 66.9611L122.129 76.54L122.165 63.8835C122.166 63.6268 122.113 63.3512 122.007 63.0575L117.354 50.2779ZM118.994 62.077L107.479 55.4289C107.341 55.349 107.235 55.1656 107.235 55.0182L107.262 45.6145C107.262 45.4679 107.369 45.3946 107.507 45.4745L115.223 49.9291C115.489 50.0827 115.733 50.3951 115.86 50.7383L119.625 61.2412C119.868 61.9327 119.526 62.3843 118.994 62.077Z" fill="#DD454D"/>
<path d="M115.86 50.7385C115.733 50.3958 115.489 50.0832 115.223 49.9296L107.961 45.7373L107.936 54.6843C107.935 54.8317 108.041 55.0155 108.18 55.0954L119.693 61.7424C119.707 61.5984 119.692 61.4331 119.625 61.2419L115.86 50.7385Z" fill="#39414D"/>
<path d="M144.379 34.5839L117.36 50.2852C117.127 49.6357 116.66 49.0521 116.176 48.7681L105.609 42.6681L132.628 26.9668L143.196 33.0668C143.679 33.3501 144.146 33.9335 144.379 34.5839Z" fill="#EF5A5A"/>
<path d="M117.354 50.2777L144.373 34.5757L149.027 47.3554L122.008 63.0574L117.354 50.2777Z" fill="#BC2B3B"/>
<path d="M142.442 37.627L119.396 51.0184L122.483 59.4925L145.529 46.1009L142.442 37.627Z" fill="#39414D"/>
<path d="M145.529 46.0996L122.483 59.4913L122.892 60.6152L146.984 46.6148L145.529 46.0996Z" fill="#EF5A5A"/>
<path d="M143.488 37.0171L142.442 37.6258L145.529 46.0998L146.984 46.615L143.488 37.0171Z" fill="#DD454D"/>
<path d="M106.751 72.9741C106.745 75.1874 108.304 77.8758 110.22 78.9818C112.146 80.0939 113.705 79.2057 113.711 76.9924C113.718 74.7912 112.169 72.0961 110.243 70.9841C108.327 69.8781 106.758 70.7729 106.751 72.9741ZM110.227 76.6704C110.011 76.5456 109.805 76.3727 109.62 76.169C109.114 75.6092 108.761 74.8161 108.763 74.1354C108.765 73.4541 109.121 73.0703 109.629 73.0972C109.814 73.1066 110.02 73.1707 110.236 73.2956C111.045 73.7625 111.702 74.9018 111.7 75.8313C111.697 76.7599 111.035 77.1373 110.227 76.6704Z" fill="#686868"/>
<path d="M108.759 74.0212V74.2541C108.759 74.2541 108.759 74.2711 108.776 74.2882V74.3874V74.4045C108.776 74.4379 108.793 74.4713 108.793 74.5208V74.5379C108.809 74.5876 108.809 74.6208 108.826 74.6542V74.6705C108.843 74.7046 108.843 74.7544 108.859 74.7878V74.8041C108.876 74.8545 108.876 74.8879 108.893 74.9213C108.893 74.9213 108.893 74.9377 108.909 74.9377C108.909 74.971 108.926 75.0206 108.943 75.0549C108.943 75.0712 108.943 75.0712 108.959 75.0712C108.959 75.1217 108.976 75.1542 108.993 75.1875C108.993 75.1875 108.993 75.2046 109.009 75.2046C109.026 75.238 109.043 75.2875 109.059 75.3382C109.076 75.3716 109.109 75.4049 109.126 75.4545V75.4715C109.176 75.5383 109.226 75.6213 109.276 75.7044V75.7214C109.326 75.7882 109.376 75.8712 109.426 75.9379C109.443 75.955 109.443 75.955 109.443 75.955C109.493 76.0209 109.559 76.0877 109.609 76.1544C109.609 76.1715 109.609 76.1715 109.626 76.1715V76.1878L109.676 76.2383C109.693 76.2383 109.693 76.2546 109.709 76.2546C109.709 76.2709 109.726 76.288 109.743 76.305C109.759 76.305 109.759 76.3214 109.776 76.3214L109.893 76.4377C109.909 76.4377 109.909 76.4548 109.926 76.4548C109.943 76.4711 109.959 76.4882 109.976 76.4882C109.976 76.5045 109.993 76.5045 109.993 76.5215C110.009 76.5215 110.026 76.5379 110.043 76.5549C110.059 76.5549 110.059 76.5713 110.076 76.5713C110.093 76.5883 110.109 76.5883 110.126 76.6047L110.143 76.6217C110.176 76.6381 110.193 76.6551 110.226 76.6714C111.043 77.1385 111.693 76.7544 111.693 75.8381C111.709 74.9046 111.043 73.7708 110.243 73.3046C110.209 73.2883 110.176 73.2712 110.159 73.2549C110.143 73.2549 110.143 73.2378 110.126 73.2378C110.109 73.2378 110.093 73.2215 110.076 73.2215C110.076 73.2044 110.059 73.2044 110.059 73.2044C110.043 73.2044 110.026 73.1881 110.009 73.1881C109.993 73.1881 109.993 73.171 109.976 73.171C109.959 73.171 109.943 73.1547 109.926 73.1547H109.909C109.893 73.1376 109.876 73.1376 109.843 73.1376C109.809 73.1213 109.793 73.1213 109.776 73.1213C109.726 73.1042 109.676 73.1042 109.626 73.1042C109.509 73.0879 109.393 73.1042 109.276 73.1547C109.226 73.171 109.176 73.2044 109.126 73.2376C109.109 73.2547 109.093 73.271 109.059 73.2881C109.043 73.3044 109.026 73.3215 109.009 73.354C108.993 73.371 108.976 73.3881 108.959 73.4207H108.943C108.926 73.4548 108.926 73.4712 108.909 73.5046H108.893C108.893 73.538 108.876 73.5543 108.859 73.5714V73.5877C108.843 73.6211 108.843 73.6545 108.826 73.6879C108.809 73.7213 108.809 73.7383 108.809 73.7708C108.809 73.7879 108.793 73.7878 108.793 73.7878C108.793 73.8212 108.793 73.8546 108.776 73.888V74.0043L108.759 74.0212Z" fill="#888888"/>
<path d="M104.825 71.8624C104.815 75.2983 107.223 79.4809 110.214 81.2073C113.204 82.9339 115.638 81.547 115.648 78.111C115.658 74.6871 113.239 70.4977 110.249 68.7713C107.259 67.0447 104.835 68.4384 104.825 71.8624ZM110.22 78.9822C108.304 77.8762 106.745 75.1878 106.751 72.9745C106.758 70.7732 108.327 69.8785 110.243 70.9844C112.169 72.0965 113.717 74.7914 113.711 76.9926C113.705 79.2061 112.146 80.0943 110.22 78.9822Z" fill="#3D3D3D"/>
<path d="M68.3735 51.1258C68.3638 54.5618 70.7822 58.7505 73.762 60.4708C76.7524 62.1972 79.1867 60.8105 79.1964 57.3745C79.2061 53.9506 76.7876 49.7612 73.7972 48.0347C70.8174 46.3142 68.3831 47.7017 68.3735 51.1258ZM73.7683 58.2457C71.8527 57.1397 70.304 54.4573 70.3103 52.2441C70.3166 50.0428 71.8753 49.1418 73.7909 50.2478C75.7172 51.3599 77.2657 54.0549 77.2596 56.2561C77.2533 58.4694 75.6945 59.3576 73.7683 58.2457Z" fill="#3D3D3D"/>
<path d="M70.3118 52.2418C70.3118 54.4588 71.8452 57.1421 73.7621 58.2425C75.6955 59.3591 77.2456 58.4761 77.2623 56.259C77.2623 54.0583 75.7122 51.3579 73.7955 50.2413C71.8786 49.1417 70.3118 50.0411 70.3118 52.2418Z" fill="#686868"/>
<path d="M107.936 54.6842L107.961 45.7372L107.507 45.4751C107.369 45.3954 107.262 45.4687 107.262 45.6151L107.235 55.0186C107.235 55.096 107.267 55.1814 107.314 55.2586L107.988 54.8565C107.962 54.7989 107.936 54.7395 107.936 54.6842Z" fill="#BC2B3B"/>
<path d="M108.18 55.0958C108.093 55.0461 108.031 54.9542 107.988 54.8574L107.315 55.2595C107.358 55.3287 107.414 55.3922 107.479 55.4297L118.994 62.0783C119.379 62.3006 119.656 62.1182 119.693 61.743L108.18 55.0958Z" fill="#EF5A5A"/>
<path d="M72.3199 53.2922V53.5251C72.3199 53.5251 72.3199 53.5421 72.3366 53.5592V53.6584V53.6755C72.3366 53.7089 72.3531 53.7423 72.3531 53.7918V53.8089C72.3698 53.8586 72.3698 53.8918 72.3865 53.9252V53.9415C72.4032 53.9756 72.4032 54.0254 72.4199 54.0588V54.0751C72.4366 54.1255 72.4366 54.1589 72.4532 54.1923C72.4532 54.1923 72.4533 54.2087 72.4698 54.2087C72.4698 54.242 72.4865 54.2916 72.5032 54.3259C72.5032 54.3422 72.5032 54.3422 72.5199 54.3422C72.5199 54.3927 72.5365 54.4252 72.5532 54.4585C72.5532 54.4585 72.5532 54.4756 72.5698 54.4756C72.5864 54.509 72.6031 54.5585 72.6198 54.6092C72.6365 54.6426 72.6698 54.6759 72.6864 54.7255V54.7425C72.7365 54.8093 72.7864 54.8923 72.8365 54.9754V54.9924C72.8864 55.0592 72.9365 55.1421 72.9864 55.2089C73.0031 55.226 73.0031 55.226 73.0031 55.226C73.0532 55.2919 73.1198 55.3586 73.1699 55.4254C73.1699 55.4425 73.1699 55.4425 73.1864 55.4425V55.4588L73.2365 55.5093C73.2532 55.5093 73.2532 55.5256 73.2699 55.5256C73.2699 55.5419 73.2866 55.559 73.3031 55.576C73.3198 55.576 73.3198 55.5924 73.3365 55.5924L73.4532 55.7087C73.4699 55.7087 73.4699 55.7258 73.4866 55.7258C73.5031 55.7421 73.5198 55.7592 73.5365 55.7592C73.5365 55.7755 73.5532 55.7755 73.5532 55.7925C73.5699 55.7925 73.5865 55.8089 73.6031 55.8259C73.6198 55.8259 73.6198 55.8423 73.6364 55.8423C73.6531 55.8593 73.6698 55.8593 73.6865 55.8757L73.7032 55.8927C73.7364 55.909 73.7531 55.9261 73.7865 55.9424C74.6033 56.4095 75.2534 56.0254 75.2534 55.1091C75.2699 54.1756 74.6033 53.0418 73.8032 52.5756C73.7698 52.5593 73.7364 52.5422 73.7197 52.5259C73.7032 52.5259 73.7032 52.5088 73.6865 52.5088C73.6698 52.5088 73.6531 52.4925 73.6364 52.4925C73.6364 52.4754 73.6198 52.4754 73.6198 52.4754C73.6031 52.4754 73.5865 52.4591 73.5699 52.4591C73.5532 52.4591 73.5532 52.442 73.5365 52.442C73.5198 52.442 73.5031 52.4257 73.4866 52.4257H73.4699C73.4532 52.4086 73.4365 52.4086 73.4031 52.4086C73.3699 52.3923 73.3532 52.3923 73.3365 52.3923C73.2866 52.3752 73.2365 52.3752 73.1864 52.3752C73.0699 52.3589 72.9532 52.3752 72.8363 52.4257C72.7863 52.442 72.7363 52.4754 72.6863 52.5086C72.6696 52.5257 72.6531 52.542 72.6197 52.5591C72.603 52.5754 72.5863 52.5925 72.5696 52.625C72.5531 52.642 72.5364 52.6591 72.5197 52.6917H72.503C72.4863 52.7258 72.4863 52.7422 72.4696 52.7756H72.4531C72.4531 52.809 72.4364 52.8253 72.4197 52.8423V52.8587C72.403 52.8921 72.403 52.9255 72.3863 52.9589C72.3696 52.9922 72.3696 53.0093 72.3696 53.0418C72.3696 53.0588 72.3529 53.0588 72.3529 53.0588C72.3529 53.0922 72.3529 53.1256 72.3364 53.159V53.2753L72.3199 53.2922Z" fill="#888888"/>
<path d="M145.057 59.1766C144.291 59.6189 143.676 60.6846 143.679 61.5649C143.681 62.4578 144.3 62.8108 145.067 62.3684C145.833 61.9261 146.448 60.8605 146.445 59.9674C146.443 59.087 145.824 58.7343 145.057 59.1766Z" fill="#FEE44B"/>
<path d="M142.758 60.2344C142.524 60.3695 142.333 60.6997 142.334 60.9691L142.342 63.7204C142.342 63.9899 142.534 64.0988 142.769 63.9637L147.366 61.3093C147.6 61.1741 147.791 60.844 147.79 60.5745L147.783 57.8233C147.782 57.5538 147.59 57.4448 147.356 57.58L142.758 60.2344ZM145.066 62.3678C144.3 62.8101 143.681 62.4573 143.678 61.5642C143.676 60.6839 144.291 59.6183 145.057 59.1759C145.824 58.7336 146.443 59.0863 146.445 59.9669C146.448 60.8598 145.833 61.9254 145.066 62.3678Z" fill="white"/>
<path d="M126.878 69.7052C126.111 70.1475 125.496 71.2132 125.499 72.0935C125.501 72.9864 126.121 73.3394 126.887 72.897C127.653 72.4547 128.279 71.383 128.276 70.4899C128.274 69.6095 127.644 69.2629 126.878 69.7052Z" fill="#FEE44B"/>
<path d="M124.578 70.7642C124.344 70.8993 124.153 71.2295 124.154 71.4989L124.162 74.2502C124.162 74.5197 124.355 74.6286 124.589 74.4934L129.186 71.8391C129.42 71.7039 129.611 71.3738 129.611 71.1043L129.603 68.3531C129.602 68.0836 129.41 67.9746 129.176 68.1098L124.578 70.7642ZM126.887 72.8975C126.121 73.3399 125.501 72.9871 125.499 72.094C125.496 71.2137 126.111 70.148 126.878 69.7057C127.644 69.2634 128.274 69.61 128.276 70.4904C128.279 71.3833 127.653 72.455 126.887 72.8975Z" fill="white"/>
<path d="M2.98569 35.4727L2.76294 35.699L0.5 38.3453L1.06851 38.7389L4.68567 36.6505L2.98569 35.4727Z" fill="#23292E"/>
<path d="M3.85148 36.3776L2.27238 37.3407L1.06851 38.7396L0.5 38.346L2.76294 35.6997L3.85148 36.3776Z" fill="#2E373D"/>
<path d="M24.5896 52.6681C24.3246 52.6681 24.0816 52.4919 24.0083 52.2239L20.1833 38.231C20.0956 37.9096 20.2848 37.5781 20.606 37.4902C20.9272 37.4026 21.2589 37.5916 21.3468 37.913L25.1718 51.9059C25.2596 52.2271 25.0704 52.5588 24.7489 52.6465C24.6958 52.6613 24.6424 52.6681 24.5896 52.6681Z" fill="#CECECE"/>
<path d="M7.60712 35.8553C6.6969 35.33 5.86805 35.3148 5.24551 35.7146L3.62732 36.6346C2.80296 37.0126 2.27246 38.0405 2.27246 39.5401C2.27246 42.1176 3.83961 45.1122 5.7728 46.2283C6.67255 46.7477 7.49286 46.7686 8.11305 46.3829L9.8267 45.4129C10.6086 45.0084 11.1075 43.9979 11.1075 42.5437C11.1075 39.966 9.54031 36.9716 7.60712 35.8553Z" fill="#23292E"/>
<path d="M9.27335 43.5815C9.27335 46.1592 7.70621 47.3439 5.7728 46.2278C3.83961 45.1117 2.27246 42.1171 2.27246 39.5396C2.27246 36.9619 3.83961 35.7771 5.7728 36.8932C7.70621 38.0094 9.27335 41.0038 9.27335 43.5815Z" fill="#2E373D"/>
<path d="M7.93164 42.8064C7.93164 44.3962 6.96504 45.127 5.7727 44.4384C4.58037 43.7501 3.61377 41.9032 3.61377 40.3135C3.61377 38.7237 4.58037 37.9931 5.7727 38.6814C6.96504 39.3699 7.93164 41.2166 7.93164 42.8064Z" fill="#CECECE"/>
<path d="M13.5707 44.2212L6.83436 40.332C6.44653 40.1082 5.97049 40.1014 5.57646 40.3137C5.23882 40.3777 4.95691 40.6695 4.95691 41.0592C4.95691 41.7922 5.34795 42.4696 5.98245 42.8365L13.5709 47.2231L13.5707 44.2212Z" fill="#23292E"/>
<path d="M8.82251 38.6748V40.8382C8.82251 41.2944 9.06597 41.7162 9.46107 41.9442L11.8376 43.3164C12.4627 43.7051 12.8427 44.3889 12.8427 45.1249V46.2535C12.8427 46.9495 13.2141 47.5928 13.8167 47.9407L15.7452 49.0542C15.9938 49.1977 16.2734 49.1796 16.4906 49.054L20.483 46.7563C20.5007 46.7469 20.5182 46.7368 20.5353 46.7262H20.5355C20.7395 46.5974 20.8832 46.3727 20.8832 46.0972C20.8832 45.4151 20.9972 44.7377 21.2206 44.0929L21.8882 42.1653L8.82251 38.6748Z" fill="#CECECE"/>
<path d="M11.8376 40.9959L8.82251 39.2549V40.8387C8.82251 41.2948 9.06597 41.7166 9.46107 41.9447L11.8376 43.3169V40.9959Z" fill="#525E65"/>
<path d="M14.8221 45.4488L6.09436 40.4036C5.58906 40.1116 4.95691 40.4762 4.95691 41.0599C4.95691 41.793 5.34795 42.4702 5.98245 42.8371L14.8221 47.9471V45.4488Z" fill="#525E65"/>
<path d="M10.8634 33.4732L10.2827 32.4673C10.0047 31.9857 9.60489 31.586 9.12351 31.3081L7.45215 30.3432C7.05492 30.1139 6.60365 30.1711 6.27903 30.4075L2.41585 32.5963C2.05535 32.762 1.78711 33.1215 1.78711 33.5744C1.78711 34.5756 2.32124 35.5008 3.18831 36.0014L9.82764 39.8344L14.8223 35.8337L10.8634 33.4732Z" fill="#627681"/>
<path d="M10.7711 38.1335L6.8124 35.7728L6.2315 34.7669C5.95365 34.2855 5.55386 33.8857 5.07227 33.6077L3.40112 32.6428C2.68375 32.2287 1.78699 32.7464 1.78699 33.5746C1.78699 34.5758 2.32111 35.5009 3.18819 36.0015L9.82752 39.8348L10.7711 38.1335Z" fill="#2E373D"/>
<path d="M6.81226 35.7726L10.8632 33.4731L14.822 35.8339L10.7709 38.1333L6.81226 35.7726Z" fill="#525E65"/>
<path d="M19.137 35.8943C17.7614 35.0813 16.0544 35.0725 14.6704 35.8714C14.6329 35.8932 11.1396 37.9204 10.7983 38.1183C10.7485 38.1446 10.6992 38.1715 10.6503 38.1999C10.1412 38.4938 9.82764 39.0369 9.82764 39.6246V39.8352L17.8682 44.4774L21.8883 42.1491V40.6961C21.8883 38.7206 20.8412 36.8931 19.137 35.8943Z" fill="#E33400"/>
<path d="M9.82739 39.8345L17.8679 44.4768V43.0239C17.8679 41.0484 16.8208 39.221 15.1163 38.2221C13.7408 37.4089 12.0337 37.4001 10.65 38.1991C10.1409 38.4931 9.82739 39.0362 9.82739 39.624V39.8345Z" fill="#872E02"/>
<path d="M11.8374 40.9951L17.8679 44.4766L17.2 46.4043C16.9769 47.0488 16.8628 47.7264 16.8628 48.4085C16.8628 48.9822 16.2418 49.3405 15.7452 49.0539L13.8167 47.9404C13.2138 47.5923 12.8424 46.9493 12.8424 46.2531V45.1244C12.8424 44.3884 12.4625 43.7046 11.8374 43.3161V40.9951Z" fill="#82A5B9"/>
<path d="M24.5145 47.397C23.6045 46.8714 22.7754 46.8563 22.1529 47.2561L20.5347 48.1761C19.7103 48.5541 19.1798 49.582 19.1798 51.0816C19.1798 53.6591 20.747 56.6537 22.6801 57.7698C23.5799 58.2892 24.4002 58.3101 25.0202 57.9244L26.7341 56.9546C27.5161 56.5501 28.015 55.5396 28.015 54.0852C28.015 51.5075 26.4479 48.5131 24.5145 47.397Z" fill="#23292E"/>
<path d="M24.916 46.4904C23.8373 45.8676 22.8589 45.8749 22.1416 46.3894L20.0211 47.6137C19.1356 48.0765 18.5712 49.2249 18.5712 50.8748C18.5712 52.128 18.8977 53.4673 19.4421 54.6899L19.6832 54.5725C20.1979 54.3218 20.4567 53.7396 20.304 53.188C20.1714 52.7098 20.0975 52.2233 20.0975 51.756C20.0975 49.9473 21.1974 49.1159 22.554 49.8991C22.8301 50.0586 23.0953 50.2732 23.3426 50.5289C23.7499 50.9498 24.4393 50.9065 24.8137 50.456L24.9416 50.3023L26.4144 49.4457C26.6973 49.4412 26.9797 49.3182 27.1755 49.0824L27.3034 48.9286C26.6382 47.8792 25.8117 47.0074 24.916 46.4904Z" fill="#E33400"/>
<path d="M26.1807 55.1244C26.1807 57.7021 24.6136 58.887 22.6804 57.7707C20.7472 56.6546 19.1798 53.6602 19.1798 51.0825C19.1798 48.5048 20.7472 47.3199 22.6804 48.4362C24.6136 49.5523 26.1807 52.5467 26.1807 55.1244Z" fill="#2E373D"/>
<path d="M24.8391 54.3494C24.8391 55.9391 23.8725 56.6699 22.6802 55.9814C21.4878 55.2931 20.5212 53.4462 20.5212 51.8564C20.5212 50.2667 21.4878 49.5361 22.6802 50.2244C23.8725 50.9129 24.8391 52.7596 24.8391 54.3494Z" fill="#CECECE"/>
<path d="M23.6138 53.6412C23.6138 54.3285 23.1959 54.6443 22.6803 54.3468C22.1648 54.0491 21.7468 53.2506 21.7468 52.5632C21.7468 51.8759 22.1648 51.5601 22.6803 51.8576C23.1959 52.1553 23.6138 52.9538 23.6138 53.6412Z" fill="#627681"/>
<path d="M20.0974 51.7562C20.0974 49.9476 21.1973 49.1161 22.5538 49.8993C22.8302 50.0588 23.0952 50.2735 23.3427 50.5291C23.75 50.95 24.4392 50.9067 24.8138 50.4563L24.9415 50.3025C24.2762 49.2528 23.4497 48.3813 22.5538 47.8642C20.3543 46.5942 18.571 47.9422 18.571 50.8751C18.571 52.1282 18.8976 53.4675 19.442 54.6902L19.6831 54.5727C20.1978 54.322 20.4566 53.74 20.3039 53.1882C20.1713 52.71 20.0974 52.2235 20.0974 51.7562Z" fill="#872E02"/>
<path d="M22.6365 53.8502C22.3715 53.8502 22.1284 53.6741 22.0552 53.406L18.2302 39.4131C18.1424 39.0919 18.3317 38.7603 18.6531 38.6723C18.9743 38.5847 19.3059 38.7737 19.3937 39.0951L23.2187 53.088C23.3065 53.4092 23.1172 53.7409 22.796 53.8287C22.7426 53.8434 22.6893 53.8502 22.6365 53.8502Z" fill="#CECECE"/>
<path d="M20.8838 33.4523C20.6753 33.4523 20.4726 33.344 20.361 33.1505C20.1944 32.8622 20.2933 32.4934 20.5816 32.3268L22.1318 31.432C22.4202 31.2654 22.789 31.3643 22.9556 31.6526C23.1221 31.9411 23.0233 32.3097 22.7347 32.4763L21.1847 33.3714C21.0896 33.4263 20.9858 33.4523 20.8838 33.4523Z" fill="#2E373D"/>
<path d="M23.1847 33.2491H21.1802C21.0006 33.2491 20.8547 33.1032 20.8547 32.9236C20.8547 32.7438 21.0006 32.5981 21.1802 32.5981H23.1847C23.3646 32.5981 23.5102 32.7438 23.5102 32.9236C23.5102 33.1032 23.3646 33.2491 23.1847 33.2491Z" fill="#2E373D"/>
<path d="M17.5753 40.2089C16.7431 40.2089 15.9204 39.882 15.3068 39.2551L13.4335 37.3416C13.2005 37.1035 13.2043 36.7219 13.4424 36.4889C13.6803 36.2559 14.0622 36.2599 14.2952 36.4978L16.1688 38.4114C16.7973 39.0535 17.7802 39.1883 18.5584 38.739L20.4764 37.6316C20.9129 37.3794 21.1351 36.879 21.0287 36.3861L20.2938 32.9753C20.2238 32.6498 20.4307 32.3291 20.7564 32.2588C21.0819 32.1885 21.4026 32.3957 21.4729 32.7214L22.2078 36.132C22.4248 37.1387 21.9712 38.1611 21.0793 38.676L19.1613 39.7833C18.6656 40.0697 18.1184 40.2089 17.5753 40.2089Z" fill="#CECECE"/>
<path d="M11.8708 38.6742C11.6624 38.6742 11.4597 38.5661 11.348 38.3726C11.1814 38.0841 11.2803 37.7155 11.5686 37.5489L13.5625 36.3978C13.8508 36.2312 14.2196 36.3301 14.3862 36.6186C14.5528 36.9069 14.4539 37.2758 14.1654 37.4423L12.1717 38.5935C12.0769 38.6483 11.9731 38.6742 11.8708 38.6742Z" fill="#2E373D"/>
<path d="M23.3588 37.716L22.3241 37.1185C21.3445 36.553 20.1376 36.553 19.1582 37.1185C17.3525 38.1611 17.3525 40.7672 19.1582 41.8098L21.0154 42.9033C21.3471 43.1224 21.7911 43.1173 22.2793 42.8354C23.3061 42.2425 24.1384 40.6523 24.1384 39.2834C24.1384 38.4513 23.8306 37.8933 23.3588 37.716Z" fill="#82A5B9"/>
<path d="M24.1385 39.2843C24.1385 40.6533 23.3062 42.2435 22.2794 42.8363C21.2526 43.429 20.4203 42.7998 20.4203 41.4309C20.4203 40.0619 21.2526 38.4715 22.2794 37.8789C23.3062 37.286 24.1385 37.9154 24.1385 39.2843Z" fill="#CECECE"/>
<path d="M23.5973 39.5956C23.5973 40.5662 23.0073 41.6938 22.2792 42.1139C21.5514 42.5342 20.9613 42.0881 20.9613 41.1176C20.9613 40.147 21.5514 39.0194 22.2792 38.5991C23.0073 38.1788 23.5973 38.6249 23.5973 39.5956Z" fill="white"/>
<path d="M13.6824 45.8573C13.6824 46.6966 14.1926 47.6715 14.8222 48.0348C15.4516 48.3983 15.9618 48.0126 15.9618 47.1733C15.9618 46.334 15.4516 45.3591 14.8222 44.9956C14.1926 44.6323 13.6824 45.018 13.6824 45.8573Z" fill="white"/>
<path d="M13.5713 39.7013C13.5467 39.7013 13.5217 39.6985 13.4968 39.6925C13.3218 39.6517 13.2131 39.4766 13.2539 39.3015L13.7742 37.0781C13.8152 36.9031 13.9901 36.7944 14.1652 36.8352C14.3403 36.8762 14.449 37.0514 14.408 37.2265L13.8878 39.4499C13.8528 39.5998 13.7191 39.7013 13.5713 39.7013Z" fill="#2E373D"/>
<path d="M86.1984 65.025C86.1617 65.0029 86.1029 65.0029 86.0441 65.0396L84.2579 66.0761C84.1403 66.1422 84.0448 66.3039 84.0448 66.4362V66.4803L83.3612 66.8773L82.8912 66.6056L83.5748 66.2087V66.1646C83.5748 66.025 83.6704 65.8633 83.788 65.7971L85.5741 64.768C85.6329 64.7313 85.6917 64.7313 85.7284 64.7534L86.1984 65.025Z" fill="#434240"/>
<path d="M86.0448 65.0406C86.1621 64.9729 86.2609 65.0238 86.2613 65.1586L86.2644 66.2479C86.2648 66.3882 86.1666 66.5529 86.0492 66.6206L84.2612 67.653C84.1439 67.7207 84.0497 67.667 84.0493 67.5268L84.0472 66.7611L83.362 67.1567L83.3612 66.8763L84.0464 66.4807L84.0463 66.4375C84.0459 66.3027 84.1394 66.1407 84.2568 66.0729L86.0448 65.0406Z" fill="#2D2C2B"/>
<path d="M93.9452 84.837C93.056 85.9947 91.9038 86.9213 90.727 87.7851C88.3998 89.4933 85.9076 91.0139 83.1921 91.9934C80.4766 92.9729 77.2454 93.7521 74.4034 93.2452C79.0806 89.4618 84.2945 85.6458 89.4506 82.5467C90.7159 81.7862 92.0471 81.0347 93.5108 80.7442C93.9084 80.6653 95.1249 80.3859 95.3767 80.8182C95.6329 81.2582 95.2484 82.2998 95.0985 82.734C94.8363 83.4931 94.4335 84.2011 93.9452 84.837Z" fill="#0074D1"/>
<path d="M42.0049 77.5577L44.7029 75.9898C45.3468 75.6155 45.7463 74.8202 45.7495 73.6901C45.7527 71.4022 44.1522 68.6394 42.1745 67.4976L39.4764 69.0655C41.4542 70.2074 43.0546 72.9701 43.0515 75.258C43.0483 76.3881 42.6488 77.1835 42.0049 77.5577Z" fill="#21201F"/>
<path d="M69.2279 93.3233L71.9259 91.7554C72.5698 91.3812 72.9693 90.5858 72.9725 89.4557C72.9757 87.1678 71.3752 84.4051 69.3975 83.2632L66.6995 84.8311C68.6772 85.973 70.2776 88.7358 70.2745 91.0236C70.2713 92.1537 69.8718 92.9491 69.2279 93.3233Z" fill="#21201F"/>
<path d="M33.4198 66.3848L52.9805 55.0171L51.4064 55.2045L31.8457 66.5721L33.4198 66.3848Z" fill="#434240"/>
<path d="M52.4262 47.9902C46.2048 48.1902 39.7393 51.323 32.8656 59.3579C33.6981 58.8743 36.6241 58.2339 36.7851 58.1987L56.3458 46.8311C56.1848 46.8663 53.2589 47.5066 52.4262 47.9902Z" fill="#21201F"/>
<path d="M59.167 49.1093C59.156 49.0817 59.1467 49.0557 59.1394 49.0312C52.6191 52.8205 46.0991 56.6097 39.5787 60.399C39.586 60.4234 39.5953 60.4494 39.6063 60.477C45.4745 57.0667 53.2988 52.5196 59.167 49.1093Z" fill="#0074D1"/>
<path d="M58.5235 49.3793C52.2079 53.0496 45.8926 56.7198 39.5769 60.3901C39.5775 60.3922 39.5781 60.3944 39.5787 60.3965C46.0991 56.6072 52.6191 52.818 59.1394 49.0288C59.1388 49.0267 59.1382 49.0246 59.1376 49.0225C58.9329 49.1414 58.7282 49.2604 58.5235 49.3793Z" fill="#0074D1"/>
<path d="M53.917 51.8904C49.1507 54.6604 44.3845 57.4303 39.6182 60.2002C39.5563 60.2373 39.552 60.3032 39.5771 60.3913C46.0975 56.6021 52.6174 52.8129 59.1378 49.0237C59.1127 48.9355 59.117 48.8696 59.1789 48.8325C57.4249 49.8518 55.671 50.8711 53.917 51.8904Z" fill="#0074D1"/>
<path d="M59.1785 48.833C59.1791 48.8327 59.1796 48.8324 59.1802 48.832L39.6195 60.1997C39.6189 60.2 39.6183 60.2004 39.6178 60.2007C44.2676 57.4985 48.9172 54.7963 53.5671 52.0941C55.4376 51.0071 57.3153 49.9326 59.1785 48.833Z" fill="#0074D1"/>
<path d="M59.8804 82.7663L79.4411 71.3986L52.9806 55.0171L33.4199 66.3848L59.8804 82.7663Z" fill="#434240"/>
<path d="M61.6317 51.7682C61.0515 51.3348 59.4352 49.3958 59.2892 49.0444L39.7285 60.4121C39.8744 60.7634 41.4908 62.7024 42.071 63.1359C47.9392 59.7256 55.7635 55.1785 61.6317 51.7682Z" fill="#21201F"/>
<path d="M42.3943 63.5123L61.955 52.1447L62.0147 52.0688L42.4539 63.4365L42.3943 63.5123Z" fill="#21201F"/>
<path d="M44.068 64.7951L63.6287 53.4275L61.9554 52.145L42.3947 63.5127L44.068 64.7951Z" fill="#21201F"/>
<path d="M65.6499 54.9818C64.3666 54.2409 62.1991 52.3916 61.6068 51.9512C55.0865 55.7404 48.5665 59.5296 42.0461 63.3188C42.6384 63.7592 44.8059 65.6086 46.0892 66.3495C52.6095 62.5602 59.1295 58.7711 65.6499 54.9818Z" fill="#0074D1"/>
<path d="M62.015 52.0704C61.8548 51.9421 61.7236 51.8392 61.632 51.7695L42.0713 63.1372C42.1629 63.2069 42.2941 63.3097 42.4543 63.4381C48.3225 60.0278 56.1468 55.4807 62.015 52.0704Z" fill="#21201F"/>
<path d="M43.9229 61.5676L63.4836 50.2L63.5212 50.1519L43.9605 61.5195L43.9229 61.5676Z" fill="#21201F"/>
<path d="M44.0678 64.7952L63.6285 53.4275C63.6362 53.4117 63.6432 53.3933 63.6496 53.3725C63.8221 52.8216 63.5778 50.6331 63.5295 50.2195C63.5243 50.1757 63.5215 50.153 63.5214 50.1519L43.9607 61.5195C43.9608 61.5207 43.9636 61.5433 43.9688 61.5872C44.0171 62.0008 44.2614 64.1893 44.0889 64.7402C44.0825 64.7609 44.0755 64.7794 44.0678 64.7952Z" fill="#21201F"/>
<path d="M59.305 49.0295L39.7443 60.3972C39.952 60.2764 41.6278 60.7688 42.4504 61.0122L62.0111 49.6445C61.1885 49.4011 59.5127 48.9088 59.305 49.0295Z" fill="#434240"/>
<path d="M43.9227 61.5677L63.4835 50.2C62.9197 49.9561 62.4177 49.7644 62.0109 49.6455L42.4502 61.0132C42.8569 61.132 43.3589 61.3238 43.9227 61.5677Z" fill="#434240"/>
<path d="M63.1358 49.8589C62.693 49.6753 62.2988 49.53 61.9692 49.4326L42.4084 60.8003C42.7381 60.8977 43.1323 61.043 43.5751 61.2265C50.0955 57.4373 56.6155 53.6481 63.1358 49.8589Z" fill="#21201F"/>
<path d="M50.561 69.2616L70.1217 57.8939L70.1188 57.7461L50.5581 69.1138L50.561 69.2616Z" fill="#21201F"/>
<path d="M50.558 69.1146L70.1187 57.7469C67.8984 56.2498 66.1471 55.0727 65.6505 54.7859C65.0867 54.4605 64.3505 53.9179 63.6496 53.3735L44.0889 64.7412C44.7898 65.2855 45.526 65.8281 46.0898 66.1536C46.5864 66.4403 48.3377 67.6175 50.558 69.1146Z" fill="#21201F"/>
<path d="M52.3512 70.4379L71.9119 59.0702L70.122 57.896L50.5613 69.2637L52.3512 70.4379Z" fill="#21201F"/>
<path d="M52.351 70.4386L71.9117 59.0709L71.8902 58.9395L52.3295 70.3071L52.351 70.4386Z" fill="#21201F"/>
<path d="M61.6491 76.3811L81.2098 65.0135C79.01 63.7018 75.176 61.1436 71.89 58.937L52.3293 70.3047C55.6153 72.5113 59.4493 75.0695 61.6491 76.3811Z" fill="#21201F"/>
<path d="M50.558 69.1126L70.1187 57.745L70.0387 53.6265L50.478 64.9941L50.558 69.1126Z" fill="#434240"/>
<path d="M52.3293 70.3051L71.89 58.9374L71.1282 54.2749L51.5675 65.6426L52.3293 70.3051Z" fill="#21201F"/>
<path d="M62.0002 75.5434L81.5609 64.1757C79.8598 61.9207 76.456 57.9442 74.5078 56.4818C73.7638 55.9252 72.5532 55.1351 71.1282 54.2749L51.5675 65.6426C52.9925 66.5027 54.2031 67.2928 54.9471 67.8495C56.8952 69.3119 60.2991 73.2883 62.0002 75.5434Z" fill="#434240"/>
<path d="M75.9116 57.502C69.3913 61.2912 62.8715 65.0808 56.3507 68.8694C58.5187 70.9533 61.3714 74.375 62.5889 76.1026C64.5739 74.949 66.5589 73.7955 68.5439 72.6419C73.0792 70.0062 77.6142 67.3706 82.1495 64.7348C80.932 63.0071 78.0795 59.5858 75.9116 57.502Z" fill="#21201F"/>
<path d="M61.7776 76.4762L81.3383 65.1085L81.351 64.9541L61.7903 76.3218L61.7776 76.4762Z" fill="#434240"/>
<path d="M65.6504 54.9824C65.8259 55.0837 66.1657 55.3017 66.6319 55.6085L50.4786 64.996L50.5585 69.1145L51.9986 68.2776L52.3298 70.305C55.6158 72.5116 59.4498 75.0698 61.6495 76.3815L62.4539 75.914C62.4868 75.9595 62.5186 76.004 62.5495 76.0476C62.2427 76.2259 61.9401 76.4017 61.6428 76.5745C57.427 74.0561 47.3728 67.0909 46.0897 66.3501C52.6101 62.5608 59.1301 58.7717 65.6504 54.9824Z" fill="#0074D1"/>
<path d="M50.0964 64.7733L69.6571 53.4056C67.7075 52.28 65.3166 50.9957 63.5296 50.2192L43.9689 61.5869C45.7559 62.3634 48.1468 63.6477 50.0964 64.7733Z" fill="#434240"/>
<path d="M63.1356 49.8594C56.6153 53.6486 50.0953 57.4378 43.575 61.2271C45.0941 61.8568 47.186 62.9366 49.2098 64.076C55.7302 60.2868 62.2502 56.4976 68.7705 52.7084C66.7467 51.5689 64.6548 50.4891 63.1356 49.8594Z" fill="#21201F"/>
<path d="M50.0964 64.7757C48.1468 63.6501 45.7559 62.3658 43.9689 61.5894C44.0172 62.003 44.2615 64.1915 44.0889 64.7424C44.7898 65.2867 45.5261 65.8293 46.0898 66.1548C46.5864 66.4415 48.3378 67.6187 50.5581 69.1158L50.4781 64.9973C50.3518 64.9236 50.2247 64.8498 50.0964 64.7757Z" fill="#434240"/>
<path d="M51.5385 65.4655L71.0992 54.0978L70.036 53.4912L50.4753 64.8589L51.5385 65.4655Z" fill="#21201F"/>
<path d="M50.4779 64.9951L70.0386 53.6274L70.036 53.4912L50.4753 64.8589L50.4779 64.9951Z" fill="#21201F"/>
<path d="M50.4783 64.9959L70.039 53.6283C69.9127 53.5546 69.7856 53.4808 69.6573 53.4067L50.0966 64.7744C50.2249 64.8485 50.352 64.9223 50.4783 64.9959Z" fill="#434240"/>
<path d="M51.5676 65.6434L71.1283 54.2758L71.0994 54.0996L51.5387 65.4673L51.5676 65.6434Z" fill="#21201F"/>
<path d="M71.385 54.2343C71.2208 54.1346 71.0537 54.0339 70.8843 53.9326C64.364 57.722 57.8441 61.5111 51.3237 65.3004C51.4931 65.4017 51.6601 65.5023 51.8243 65.602C58.3447 61.8128 64.8647 58.0236 71.385 54.2343Z" fill="#21201F"/>
<path d="M74.5329 56.2991C73.8166 55.7629 72.6905 55.0281 71.3853 54.2354C64.8649 58.0246 58.3449 61.8138 51.8246 65.603C53.1298 66.3958 54.2559 67.1305 54.9722 67.6668C55.3745 67.969 55.8439 68.383 56.3507 68.8702C62.8715 65.0816 69.3913 61.292 75.9117 57.5028C75.4048 57.0155 74.9353 56.6014 74.5329 56.2991Z" fill="#21201F"/>
<path d="M61.7771 76.4767L81.3379 65.1091C81.2646 65.0595 81.2157 65.0244 81.2096 65.0137L61.6489 76.3814C61.655 76.3921 61.7039 76.4272 61.7771 76.4767Z" fill="#21201F"/>
<path d="M82.129 65.8389C81.6928 65.587 81.2279 65.2251 81.2034 65.2061L61.6427 76.5737C61.6672 76.5928 62.1321 76.9547 62.5683 77.2066C68.4365 73.7963 76.2608 69.2492 82.129 65.8389Z" fill="#0074D1"/>
<path d="M61.7904 76.3211L81.3511 64.9534C81.3947 64.6692 81.4688 64.4166 81.5613 64.1743L62.0007 75.542C61.9081 75.7843 61.834 76.0368 61.7904 76.3211Z" fill="#434240"/>
<path d="M61.9691 49.433C60.5899 49.0262 59.847 48.838 59.47 48.8047C52.9496 52.594 46.4297 56.3831 39.9093 60.1724C40.2863 60.2056 41.0292 60.3939 42.4084 60.8006C48.2766 57.3903 56.1009 52.8433 61.9691 49.433Z" fill="#21201F"/>
<path d="M60.5319 83.9229L80.0926 72.5553L79.4411 71.3984L59.8804 82.7661L60.5319 83.9229Z" fill="#434240"/>
<path d="M69.6703 53.2211C69.3733 53.0496 69.0727 52.8781 68.7705 52.708C62.2502 56.4973 55.7302 60.2864 49.2098 64.0757C49.512 64.2458 49.8126 64.4172 50.1096 64.5887C50.5234 64.8276 50.93 65.0665 51.3238 65.302C57.8442 61.5128 64.3641 57.7236 70.8844 53.9342C70.4906 53.6988 70.084 53.4599 69.6703 53.2211Z" fill="#21201F"/>
<path d="M82.7468 66.0406C82.6439 66.1004 82.3962 65.9943 82.1287 65.8398L62.568 77.2075C62.8355 77.362 63.0832 77.4681 63.1861 77.4083C69.0543 73.998 76.8786 69.4509 82.7468 66.0406Z" fill="#0074D1"/>
<path d="M82.1538 64.7402C81.2497 65.2657 80.3456 65.7911 79.4414 66.3166C73.8252 69.5804 68.2093 72.8441 62.593 76.1077C62.8343 76.4504 63.0109 76.726 63.1045 76.9107C63.2587 77.2133 63.2664 77.3601 63.1863 77.4066L82.7471 66.039C82.8271 65.9925 82.8194 65.8456 82.6652 65.543C82.5716 65.3583 82.3951 65.0828 82.1538 64.7402Z" fill="#21201F"/>
<path d="M59.4698 48.8043C59.3233 48.7913 59.232 48.8018 59.1801 48.832L39.6194 60.1996C39.6713 60.1695 39.7626 60.159 39.9091 60.1719C46.4295 56.3827 52.9495 52.5935 59.4698 48.8043Z" fill="#21201F"/>
<path d="M82.1538 64.7433C82.1524 64.7413 82.151 64.7393 82.1496 64.7373C80.1645 65.891 78.1795 67.0447 76.1944 68.1984C71.6592 70.834 67.1242 73.4696 62.589 76.1052C62.5903 76.107 62.5916 76.1089 62.5929 76.1108C69.1135 72.3217 75.6334 68.5325 82.1538 64.7433Z" fill="#21201F"/>
<path d="M65.0256 78.082C69.5236 80.7045 74.1842 85.8818 75.5625 87.2987C75.8302 87.5664 75.9644 87.9683 75.9644 88.2842L93.7364 77.9675L93.9852 77.8236L94.6647 77.4217L95.5259 76.924C95.5259 76.6847 95.0761 76.0053 94.7413 75.5651C94.6263 75.4216 94.5306 75.3066 94.4637 75.2398C93.8224 74.5795 92.6069 73.2491 91.0279 71.756C90.9417 71.6701 90.8461 71.5836 90.7503 71.4976C89.0085 69.842 86.8552 68.0428 84.5872 66.7124L65.0256 78.082Z" fill="#3F9AE0"/>
<path d="M84.5901 66.7122L65.0295 78.0799C64.7584 77.6911 59.8345 70.6357 55.4373 67.2178L74.9981 55.8501C79.3951 59.268 84.319 66.3234 84.5901 66.7122Z" fill="#006CB5"/>
<path d="M56.2783 67.2775C59.427 69.9094 62.7095 74.111 64.3747 76.3503C64.8628 77.0111 65.7051 77.3073 66.4993 77.0971C74.2417 74.982 80.2039 72.0726 83.1517 67.7944C83.6398 67.0864 83.611 66.1485 83.0942 65.4592C81.4386 63.2391 78.242 59.1618 75.2179 56.6356C75.1317 56.5683 75.0457 56.4916 74.9595 56.4248C71.1505 61.1815 64.3843 64.3587 56.7856 67.0958C56.623 67.1532 56.4505 67.2201 56.2783 67.2775Z" fill="#21201F"/>
<path d="M82.9622 67.6519C81.423 69.8944 78.9814 71.8318 75.5978 73.5169C74.7088 73.9549 73.7667 74.3796 72.745 74.7909C71.4578 75.3084 70.0779 75.7861 68.5785 76.2505C67.8884 76.4629 67.1852 76.6619 66.4422 76.8608C66.2961 76.9007 66.1369 76.9272 65.9777 76.9272C65.4204 76.9272 64.9029 76.6619 64.5712 76.2106C64.0669 75.5339 63.43 74.6848 62.687 73.7558C61.015 71.6726 58.8654 69.2044 56.7556 67.3733C60.4975 66.0198 64.4385 64.4541 67.9017 62.4372C70.675 60.858 73.1431 58.987 74.9875 56.7578C75.5845 57.2488 76.1817 57.8061 76.7788 58.3899C77.5882 59.1861 78.3844 60.0486 79.1274 60.911C79.6449 61.4949 80.1358 62.0656 80.6003 62.6361C81.5159 63.7641 82.312 64.799 82.9091 65.6084C83.3603 66.2187 83.3735 67.0416 82.9622 67.6519Z" fill="#434240"/>
<g opacity="0.1">
<path d="M76.7788 58.3899L68.5785 76.2505C67.8885 76.4629 67.1853 76.6619 66.4422 76.8608C66.2962 76.9007 66.137 76.9272 65.9777 76.9272C65.4205 76.9272 64.9029 76.6619 64.5712 76.2106C64.067 75.5339 63.4301 74.6848 62.687 73.7558L67.9018 62.4372C70.6751 60.858 73.1431 58.987 74.9875 56.7578C75.5846 57.2488 76.1817 57.8061 76.7788 58.3899Z" fill="white"/>
<path d="M80.6002 62.6367L75.5977 73.5176C74.7087 73.9556 73.7665 74.3803 72.7449 74.7915L79.1273 60.9116C79.6448 61.4956 80.1357 62.0662 80.6002 62.6367Z" fill="white"/>
</g>
<path d="M56.7477 67.3643C59.8103 70.0149 62.9396 74.0155 64.5665 76.2072C64.892 76.6572 65.428 76.9249 65.9831 76.9249C66.1362 76.9249 66.2892 76.9058 66.4425 76.8675C74.8737 74.5707 80.2714 71.5561 82.9607 67.6606C83.3818 67.0386 83.3626 66.2157 82.9032 65.603C82.7789 65.4311 82.6352 65.2493 82.4918 65.0483C82.7789 65.6222 82.75 66.3115 82.3768 66.8377C79.6971 70.7327 74.29 73.7477 65.8682 76.0445C65.7151 76.0829 65.5618 76.102 65.4088 76.102C64.8537 76.102 64.3179 75.8338 63.9924 75.3842C62.509 73.3842 59.7814 69.8906 56.9869 67.2779C56.9103 67.3068 56.8243 67.3353 56.7477 67.3643Z" fill="#21201F"/>
<path d="M49.4348 63.3744C44.8913 60.751 39.5126 58.0764 36.5249 57.2324C42.2287 50.27 48.6968 46.1381 56.0855 45.8647C59.0734 46.7087 64.4521 49.3838 68.9954 52.0067C71.055 53.1956 72.9427 54.3741 74.3581 55.3671C74.5691 55.5148 74.7834 55.6821 74.9976 55.8485L55.4368 67.2162C55.2228 67.0498 55.0085 66.8825 54.7975 66.7348C53.3818 65.7418 51.4942 64.5633 49.4348 63.3744Z" fill="#3F9AE0"/>
<path d="M36.7855 58.1995L36.5251 57.2334C39.5127 58.0778 44.8916 60.7521 49.435 63.3754C51.4945 64.5644 53.3822 65.7428 54.7977 66.7356C59.3422 69.9218 64.7449 77.6714 65.0292 78.0793C69.5263 80.7036 74.1875 85.8844 75.5667 87.2996C75.8291 87.5636 75.9625 87.9714 75.9618 88.2873C76.5314 89.7145 76.4807 91.216 75.9489 92.774L60.5325 83.9223L59.881 82.7655L33.4205 66.384L31.8466 66.5711C31.7786 63.2411 32.0314 60.7275 32.7608 59.4274C33.4111 58.9377 36.6168 58.2364 36.7855 58.1995ZM39.6066 60.4754C39.7767 60.8972 41.4542 62.8715 42.0467 63.3189C42.639 63.7593 44.8065 65.6086 46.0897 66.3495C47.3728 67.0903 57.427 74.0556 61.6428 76.5739C61.6673 76.593 62.1322 76.9549 62.5684 77.2068C63.0441 77.4815 63.457 77.6031 63.1047 76.9116C62.4291 75.5792 57.4399 69.5198 54.9725 67.6664C53.9566 66.9059 52.1164 65.7461 50.1101 64.5878C47.244 62.9329 44.0382 61.2809 42.4088 60.7995C39.6446 59.9842 39.4364 60.0468 39.6066 60.4754Z" fill="#006CB5"/>
<path d="M41.3376 65.3774C40.7526 65.0396 40.2752 65.0241 40.2743 65.3442C40.2734 65.6678 40.7493 66.2025 41.3343 66.5403C41.9192 66.878 42.3934 66.8918 42.3943 66.5683C42.3952 66.2482 41.9225 65.7151 41.3376 65.3774Z" fill="#006CB5"/>
<path d="M52.7519 72.2031C52.1669 71.8653 51.6895 71.8498 51.6886 72.1699C51.6877 72.4935 52.1636 73.0282 52.7486 73.3659C53.3335 73.7036 53.8077 73.7175 53.8086 73.3939C53.8095 73.0739 53.3368 72.5408 52.7519 72.2031Z" fill="#006CB5"/>
<path d="M62.0003 75.5434C60.2992 73.2883 56.8954 69.3119 54.9472 67.8495C54.2032 67.2928 52.9927 66.5027 51.5676 65.6426L52.3294 70.3051C55.6154 72.5117 59.4494 75.0699 61.6492 76.3815C61.6553 76.3923 61.7041 76.4274 61.7774 76.4769L61.7901 76.3225C61.8337 76.0382 61.9078 75.7857 62.0003 75.5434Z" fill="#434240"/>
<path d="M50.1101 64.59C52.1163 65.7483 53.9565 66.9081 54.9724 67.6686C57.4398 69.522 62.429 75.5814 63.1046 76.9138C63.4569 77.6053 63.0441 77.4837 62.5684 77.209C62.1321 76.9571 61.6672 76.5952 61.6427 76.5762C57.4269 74.0578 47.3727 67.0925 46.0896 66.3517C44.8064 65.6108 42.6389 63.7615 42.0466 63.3211C41.4542 62.8737 39.7766 60.8994 39.6065 60.4776C39.4364 60.049 39.6446 59.9864 42.4087 60.8017C44.0382 61.2831 47.2439 62.9351 50.1101 64.59ZM42.0715 63.1386C42.1631 63.2083 42.2943 63.3111 42.4545 63.4395L42.3949 63.5153L44.0682 64.7978C44.0759 64.782 44.0829 64.7635 44.0893 64.7428C44.7902 65.2871 45.5265 65.8297 46.0902 66.1552C46.5868 66.4419 48.3381 67.619 50.5584 69.1162L50.5613 69.264L52.3512 70.4382L52.3297 70.3067C55.6157 72.5133 59.4497 75.0715 61.6494 76.3831C61.6556 76.3939 61.7044 76.429 61.7777 76.4785L61.7904 76.3241C61.834 76.0398 61.9081 75.7873 62.0006 75.545C60.2995 73.29 56.8956 69.3136 54.9475 67.8511C54.2035 67.2945 52.9929 66.5044 51.5679 65.6442L51.539 65.468L50.4759 64.8615L50.4785 64.9977C50.3522 64.924 50.225 64.8502 50.0968 64.7761C48.1472 63.6505 45.7563 62.3662 43.9692 61.5897C43.964 61.5459 43.9613 61.5233 43.9611 61.5221L43.9235 61.5702C43.3597 61.3263 42.8577 61.1345 42.4509 61.0157C41.6009 60.7642 39.8397 60.2468 39.729 60.4148C39.8749 60.7662 41.4913 62.7052 42.0715 63.1386Z" fill="#21201F"/>
<path d="M39.7286 60.4137L39.7701 60.3896C39.7696 60.3898 39.7689 60.3898 39.7684 60.39C39.7683 60.39 39.7684 60.39 39.7684 60.39C39.7594 60.3925 39.7516 60.3956 39.7452 60.3992C39.738 60.4034 39.7323 60.4082 39.7286 60.4137ZM43.2112 62.4749C42.824 62.6999 42.4436 62.921 42.0711 63.1375L43.2112 62.4749Z" fill="#0074D1"/>
<path d="M39.7447 60.3995L40.0944 60.1963C40.0964 60.1966 40.0983 60.1969 40.1003 60.1972C40.1018 60.1975 40.1032 60.1977 40.1047 60.198C39.9783 60.2698 39.8527 60.3417 39.7289 60.4137C39.7325 60.4083 39.7377 60.4036 39.7447 60.3995Z" fill="#21201F"/>
<path d="M42.4512 61.0137C41.6012 60.7621 39.84 60.2448 39.7292 60.4128C39.8752 60.7641 41.4916 62.7032 42.0718 63.1366C42.1634 63.2063 42.2946 63.3091 42.4547 63.4375L43.9237 61.5682C43.3599 61.3243 42.8579 61.1325 42.4512 61.0137Z" fill="#434240"/>
<path d="M51.5389 65.4659L50.4757 64.8594L50.4783 64.9956L50.5583 69.1141L50.5612 69.2619L52.3511 70.4361L52.3295 70.3046L51.5677 65.6421L51.5389 65.4659Z" fill="#21201F"/>
<path d="M75.9449 92.7725C85.1993 90.9542 91.2573 87.2121 94.7219 82.4651C94.8653 82.2642 94.9992 82.0535 95.1046 81.8334C95.363 81.3357 95.5065 80.7903 95.5161 80.2258V79.0772L95.5256 78.3402V76.9238L94.6644 77.4215L93.985 77.814V77.8234L93.7361 77.9673L75.9641 88.2841C76.5295 89.6804 76.4826 91.1832 75.9449 92.7725Z" fill="#0074D1"/>
<path d="M42.395 63.5157L44.0698 64.798C44.0794 64.7788 44.0794 64.7596 44.089 64.7405C44.1848 64.4344 44.156 63.64 44.0986 62.9222L44.931 61.9843L43.9647 61.5151L43.9264 61.5633L42.4525 63.439L42.395 63.5157Z" fill="#21201F"/>
<path d="M33.4203 66.3853L31.8462 66.5726L31.834 66.7777C31.8308 67.887 32.6105 69.2372 33.5758 69.7946L73.7632 92.9972C74.2581 93.283 74.7414 93.351 75.1152 93.1872L75.6621 92.9281L75.9487 92.7752L60.5323 83.9236L59.8808 82.7667L33.4203 66.3853Z" fill="#2D2C2B"/>
<path d="M32.8871 59.3916C32.8871 59.3916 32.7518 60.354 33.4435 60.7901C34.1352 61.2262 36.3306 62.2036 35.7442 62.5795C35.1577 62.9555 32.9924 62.9104 32.2706 62.0833C31.5488 61.2562 32.6917 59.4518 32.8871 59.3916Z" fill="#F25A5A"/>
<path d="M39.4767 69.0653C37.493 67.92 35.8821 68.8287 35.8723 71.1055C35.8657 73.3875 37.4674 76.1617 39.4533 77.3083C41.433 78.4513 43.0452 77.5327 43.0517 75.2578C43.0549 72.9699 41.4544 70.2072 39.4767 69.0653Z" fill="#434240"/>
<path d="M39.4726 68.3244C38.1773 67.5765 37.0206 67.5836 36.2477 68.1855C35.6159 68.6716 35.2401 69.5447 35.2367 70.7382L35.8724 71.1052C35.8821 68.8284 37.493 67.9197 39.4767 69.065C41.4544 70.2069 43.0549 72.9696 43.0517 75.2503L43.6934 75.6207C43.6964 74.5537 43.3937 73.3873 42.8826 72.2902C42.1223 70.6417 40.8719 69.1323 39.4726 68.3244Z" fill="#434240"/>
<path d="M66.7815 84.7884C64.7978 83.6431 63.1869 84.5518 63.1771 86.8286C63.1705 89.1107 64.7722 91.8848 66.7581 93.0314C68.7379 94.1744 70.3501 93.2559 70.3565 90.9809C70.3597 88.6931 68.7592 85.9303 66.7815 84.7884Z" fill="#434240"/>
<path d="M66.7773 84.0475C65.482 83.2996 64.3253 83.3068 63.5524 83.9087C62.9206 84.3948 62.5448 85.2679 62.5414 86.4613L63.177 86.8283C63.1868 84.5515 64.7977 83.6428 66.7814 84.7881C68.7591 85.93 70.3596 88.6928 70.3564 90.9734L70.998 91.3439C71.0011 90.2769 70.6984 89.1105 70.1873 88.0134C69.427 86.3648 68.1766 84.8554 66.7773 84.0475Z" fill="#434240"/>
<path d="M36.5022 71.4662C36.4936 73.3317 37.8121 75.6304 39.4255 76.5674C39.4342 76.5674 39.4429 76.5759 39.4516 76.5848C39.4689 76.5932 39.4776 76.5932 39.495 76.6017C41.0999 77.5302 42.4271 76.7754 42.4271 74.893C42.4271 73.0106 41.117 70.7292 39.4776 69.7833C37.8208 68.8205 36.5196 69.6101 36.5022 71.4662ZM37.4131 70.9287L37.4911 71.0935C37.4565 71.1799 37.4303 71.2841 37.361 71.3103C37.3437 71.3277 37.3176 71.3277 37.2916 71.3103C37.2481 71.2841 37.2134 71.2146 37.2134 71.1367C37.2397 71.0761 37.2742 70.9893 37.3089 70.894C37.3176 70.8503 37.3437 70.8419 37.361 70.8503C37.3784 70.8677 37.3958 70.894 37.4131 70.9287ZM38.6883 70.3302C38.9484 70.8245 39.0439 71.3015 39.0352 71.7441C39.0352 72.0389 38.8531 72.1778 38.5754 72.0215C38.4714 71.9262 38.3672 71.8394 38.2719 71.7441C37.9682 71.4578 37.6906 71.1367 37.4737 70.7377L37.465 70.6161C37.7079 70.2866 38.0464 70.1218 38.4888 70.1565C38.5235 70.1565 38.5494 70.165 38.5667 70.1739C38.6188 70.2086 38.6449 70.2518 38.6883 70.3302ZM39.2607 70.4513C39.2607 70.5818 39.1826 70.564 39.0786 70.5293C39.0352 70.5123 39.0005 70.495 38.9746 70.4861C38.9052 70.4429 38.8878 70.3908 38.8183 70.1997C38.9573 70.2433 39.0873 70.2866 39.2173 70.3471L39.2607 70.4513ZM40.9002 71.9783C40.7528 72.3947 40.4493 72.568 40.0327 72.5336C39.9895 72.5336 39.9374 72.5074 39.8853 72.4811C39.7032 72.3773 39.5297 72.1342 39.4776 71.8915C39.4255 71.6136 39.391 71.3362 39.3563 71.0935C39.3821 70.894 39.3995 70.7377 39.4342 70.5818C39.4516 70.5208 39.4689 70.4687 39.5558 70.5208C39.5558 70.5208 39.5644 70.5208 39.5644 70.5293C40.0501 70.833 40.4927 71.2667 40.8743 71.8305L40.9002 71.9783ZM41.4034 72.7327H41.3254V72.7243C41.2212 72.6637 41.0565 72.3773 41.0738 72.3079L41.1433 72.1952L41.2473 72.3337L41.3686 72.5768L41.4034 72.7327ZM41.7676 74.8235L41.7071 74.8667C41.6029 74.8235 41.4989 74.7803 41.4034 74.7282C41.386 74.7193 41.3686 74.7108 41.3513 74.6935C41.1086 74.5372 40.883 74.3029 40.6575 74.0429C40.3625 73.6959 40.2585 73.3054 40.4146 73.1059C40.458 73.0538 40.5359 73.0191 40.6054 72.9932C40.857 72.889 41.1344 72.8632 41.4642 72.9759C41.4728 72.9843 41.4815 72.9843 41.4989 72.9932C41.5423 73.0191 41.5681 73.0627 41.5942 73.1317C41.7418 73.5744 41.8197 73.9908 41.8284 74.3987C41.8111 74.5461 41.7939 74.6846 41.7676 74.8235ZM41.577 75.4741C41.5076 75.4136 41.4642 75.2662 41.4902 75.2052L41.5249 75.1183C41.5336 75.0319 41.5855 75.0057 41.6463 75.0404C41.655 75.0404 41.655 75.0493 41.6637 75.0578C41.681 75.0578 41.6897 75.0666 41.6984 75.0751C41.7592 75.1099 41.785 75.1361 41.7592 75.1967C41.7244 75.292 41.6897 75.3788 41.6463 75.4657L41.577 75.4741ZM40.2669 76.0036C39.9895 75.4657 39.894 74.9624 39.92 74.5024C39.9374 74.2424 40.1456 74.1555 40.3538 74.2771C40.3798 74.2856 40.3972 74.3029 40.4232 74.3203C40.8483 74.6761 41.2299 75.1099 41.5249 75.6825C41.4815 75.7342 41.4381 75.7778 41.4034 75.821C41.1433 76.0727 40.8136 76.1857 40.4059 76.1247C40.3885 76.1247 40.3711 76.1247 40.3538 76.1163C40.319 76.09 40.293 76.0553 40.2669 76.0036ZM39.7292 75.9689C39.7205 75.7431 39.7639 75.7257 40.0069 75.8384H40.0155C40.0761 75.8731 40.1369 75.9947 40.1543 76.1247C40.0155 76.0727 39.8766 76.0294 39.7292 75.9689ZM39.5037 73.4791C39.3649 73.4011 39.2434 73.2012 39.2521 73.0453C39.2521 72.8979 39.3736 72.8196 39.5037 72.8979C39.6337 72.9759 39.7553 73.1754 39.7553 73.3317C39.7639 73.4964 39.6424 73.5655 39.5037 73.4791ZM38.1156 74.2597L38.1417 74.2161C38.2806 73.9476 38.5235 73.826 38.8096 73.7912C38.8965 73.7824 38.9918 73.8086 39.0786 73.8518C39.2781 73.9734 39.4516 74.225 39.5037 74.4766C39.5558 74.7456 39.5818 75.0145 39.6252 75.2662C39.599 75.4483 39.5644 75.6042 39.5471 75.7605C39.5297 75.8558 39.4863 75.8473 39.4084 75.8037C38.9831 75.5436 38.6015 75.1793 38.2459 74.7193C38.0551 74.4677 38.0464 74.4419 38.1156 74.2597ZM37.6213 73.6697L37.7861 73.7218C37.9335 73.8692 37.9856 74.1034 37.8903 74.2424C37.8034 74.095 37.734 73.9649 37.6645 73.8349L37.6213 73.6697ZM37.1268 71.6052C37.1268 71.501 37.1789 71.4925 37.2481 71.5183C37.3523 71.5531 37.4476 71.5967 37.5432 71.6484C37.8295 71.8136 38.0983 72.0736 38.3585 72.3773C38.6015 72.6637 38.6883 73.0885 38.532 73.2275C38.2719 73.4528 37.9509 73.5396 37.5432 73.4354C37.5258 73.427 37.5171 73.427 37.4997 73.4181C37.465 73.3922 37.4476 73.3575 37.4218 73.2969C37.2223 72.7937 37.1268 72.3168 37.1268 71.8652C37.1268 71.7788 37.1355 71.7005 37.1268 71.6052Z" fill="white"/>
<path d="M63.7626 87.1962C63.7539 89.0616 65.0725 91.3604 66.6859 92.2974C66.6946 92.2974 66.7033 92.3058 66.7119 92.3147C66.7293 92.3232 66.738 92.3232 66.7554 92.3317C68.3603 93.2602 69.6875 92.5053 69.6875 90.623C69.6875 88.7406 68.3774 86.4592 66.738 85.5133C65.0812 84.5505 63.78 85.3401 63.7626 87.1962ZM64.6735 86.6587L64.7514 86.8235C64.7169 86.9099 64.6907 87.0141 64.6214 87.0403C64.604 87.0577 64.578 87.0577 64.5519 87.0403C64.5085 87.0141 64.4738 86.9446 64.4738 86.8667C64.5001 86.8061 64.5346 86.7193 64.5693 86.6239C64.578 86.5803 64.604 86.5718 64.6214 86.5803C64.6388 86.5977 64.6561 86.6239 64.6735 86.6587ZM65.9487 86.0602C66.2087 86.5545 66.3043 87.0314 66.2956 87.4741C66.2956 87.7689 66.1134 87.9078 65.8358 87.7515C65.7318 87.6562 65.6276 87.5694 65.5323 87.4741C65.2286 87.1877 64.9509 86.8667 64.7341 86.4676L64.7254 86.3461C64.9683 86.0165 65.3067 85.8518 65.7492 85.8865C65.7839 85.8865 65.8097 85.895 65.8271 85.9039C65.8792 85.9386 65.9053 85.9818 65.9487 86.0602ZM66.5211 86.1813C66.5211 86.3118 66.443 86.294 66.339 86.2592C66.2956 86.2423 66.2608 86.2249 66.235 86.216C66.1655 86.1728 66.1482 86.1207 66.0787 85.9297C66.2176 85.9733 66.3477 86.0165 66.4777 86.0771L66.5211 86.1813ZM68.1606 87.7083C68.0132 88.1247 67.7097 88.2979 67.2931 88.2636C67.2499 88.2636 67.1978 88.2374 67.1457 88.2111C66.9635 88.1073 66.7901 87.8642 66.738 87.6215C66.6859 87.3436 66.6514 87.0662 66.6166 86.8235C66.6425 86.6239 66.6598 86.4676 66.6946 86.3118C66.7119 86.2508 66.7293 86.1987 66.8161 86.2508C66.8161 86.2508 66.8248 86.2508 66.8248 86.2592C67.3104 86.563 67.7531 86.9967 68.1347 87.5605L68.1606 87.7083ZM68.6638 88.4627H68.5858V88.4542C68.4816 88.3937 68.3168 88.1073 68.3342 88.0379L68.4037 87.9252L68.5077 88.0637L68.629 88.3068L68.6638 88.4627ZM69.028 90.5535L68.9675 90.5967C68.8633 90.5535 68.7593 90.5103 68.6638 90.4582C68.6464 90.4493 68.629 90.4408 68.6117 90.4235C68.369 90.2672 68.1434 90.0329 67.9178 89.7728C67.6228 89.4259 67.5188 89.0354 67.6749 88.8359C67.7183 88.7838 67.7963 88.749 67.8657 88.7232C68.1173 88.619 68.3948 88.5932 68.7245 88.7058C68.7332 88.7143 68.7419 88.7143 68.7593 88.7232C68.8027 88.749 68.8285 88.7927 68.8546 88.8617C69.0022 89.3044 69.0801 89.7207 69.0888 90.1286C69.0714 90.276 69.0543 90.4146 69.028 90.5535ZM68.8374 91.2041C68.768 91.1435 68.7245 90.9961 68.7506 90.9351L68.7853 90.8483C68.794 90.7619 68.8459 90.7356 68.9067 90.7704C68.9154 90.7704 68.9154 90.7793 68.924 90.7877C68.9414 90.7877 68.9501 90.7966 68.9588 90.8051C69.0196 90.8398 69.0454 90.8661 69.0196 90.9267C68.9848 91.022 68.9501 91.1088 68.9067 91.1956L68.8374 91.2041ZM67.5273 91.7336C67.2499 91.1956 67.1544 90.6924 67.1804 90.2324C67.1978 89.9723 67.406 89.8855 67.6141 90.0071C67.6402 90.0155 67.6576 90.0329 67.6836 90.0503C68.1087 90.4061 68.4903 90.8398 68.7853 91.4125C68.7419 91.4642 68.6985 91.5078 68.6638 91.551C68.4037 91.8026 68.0739 91.9157 67.6662 91.8547C67.6489 91.8547 67.6315 91.8547 67.6141 91.8463C67.5794 91.82 67.5534 91.7853 67.5273 91.7336ZM66.9896 91.6989C66.9809 91.4731 67.0243 91.4557 67.2672 91.5684H67.2759C67.3365 91.6031 67.3973 91.7247 67.4146 91.8547C67.2759 91.8026 67.137 91.7594 66.9896 91.6989ZM66.764 89.2091C66.6253 89.1311 66.5038 88.9312 66.5124 88.7753C66.5124 88.6279 66.634 88.5495 66.764 88.6279C66.8941 88.7058 67.0156 88.9053 67.0156 89.0616C67.0243 89.2264 66.9028 89.2955 66.764 89.2091ZM65.376 89.9897L65.402 89.9461C65.541 89.6775 65.7839 89.556 66.07 89.5212C66.1569 89.5123 66.2522 89.5386 66.339 89.5818C66.5385 89.7034 66.7119 89.955 66.764 90.2066C66.8161 90.4756 66.8422 90.7445 66.8856 90.9961C66.8593 91.1783 66.8248 91.3342 66.8075 91.4905C66.7901 91.5858 66.7467 91.5773 66.6687 91.5337C66.2435 91.2736 65.8618 90.9093 65.5062 90.4493C65.3154 90.1977 65.3067 90.1718 65.376 89.9897ZM64.8817 89.3997L65.0465 89.4518C65.1939 89.5992 65.246 89.8334 65.1507 89.9723C65.0638 89.8249 64.9944 89.6949 64.9249 89.5649L64.8817 89.3997ZM64.3872 87.3351C64.3872 87.2309 64.4393 87.2225 64.5085 87.2483C64.6127 87.283 64.708 87.3267 64.8035 87.3783C65.0899 87.5435 65.3586 87.8036 65.6189 88.1073C65.8618 88.3937 65.9487 88.8185 65.7924 88.9574C65.5323 89.1828 65.2112 89.2696 64.8035 89.1654C64.7862 89.157 64.7775 89.157 64.7601 89.1481C64.7254 89.1222 64.708 89.0875 64.6822 89.0269C64.4827 88.5237 64.3872 88.0468 64.3872 87.5952C64.3872 87.5088 64.3959 87.4304 64.3872 87.3351Z" fill="white"/>
<path d="M89.9415 85.5859C90.0183 85.5252 90.1204 85.3742 90.2405 85.1714L83.9651 88.7945C84.1139 88.8421 84.2442 88.859 84.3262 88.8281C86.1883 88.2227 89.0321 86.405 89.9415 85.5859Z" fill="#21201F"/>
<path d="M83.702 88.7038C83.8016 88.7377 83.8879 88.7716 83.9652 88.7935L90.2406 85.1703C90.2975 85.071 90.3579 84.9524 90.4173 84.8267L83.702 88.7038Z" fill="#434240"/>
<path d="M90.4174 84.8256C90.5287 84.6111 90.647 84.3591 90.7581 84.103L83.218 88.4564C83.388 88.5501 83.5507 88.6399 83.7021 88.7027L90.4174 84.8256Z" fill="#21201F"/>
<path d="M83.0171 88.3396C83.085 88.3842 83.1513 88.4205 83.2179 88.4572L90.7579 84.1039L90.881 83.7993L83.0171 88.3396Z" fill="#434240"/>
<path d="M90.8813 83.7992C90.9765 83.5691 91.0597 83.3459 91.1365 83.1265L82.5884 88.0618C82.7252 88.158 82.8696 88.2583 83.0174 88.3396L90.8813 83.7992Z" fill="#21201F"/>
<path d="M82.4045 87.9257L82.5884 88.0616L91.1366 83.1263L91.2522 82.8174L82.4045 87.9257Z" fill="#434240"/>
<path d="M91.2519 82.8167C91.3276 82.5897 91.3958 82.3585 91.4461 82.1792L82.0424 87.6086C82.151 87.6961 82.2721 87.818 82.4042 87.9251L91.2519 82.8167Z" fill="#21201F"/>
<path d="M81.9087 87.4536L82.0424 87.6099L91.4461 82.1805L91.5201 81.9043L81.9087 87.4536Z" fill="#434240"/>
<path d="M82.6244 85.2544C82.6185 85.2632 82.5065 85.4306 82.3512 85.6623L90.6002 80.8997C90.4011 80.8725 90.2577 80.8526 90.2501 80.8516L82.6244 85.2544Z" fill="#21201F"/>
<path d="M82.3514 85.6635C82.2822 85.77 82.2095 85.8952 82.1368 86.0209L90.8867 80.9691C90.7822 80.9457 90.69 80.9157 90.6004 80.9009L82.3514 85.6635Z" fill="#434240"/>
<path d="M81.7137 87.0909C81.7107 87.1927 81.7852 87.3162 81.9089 87.4534L91.5203 81.9041C91.5738 81.6646 91.5911 81.4881 91.5635 81.404L91.5423 81.3579L81.717 87.0306L81.7137 87.0909Z" fill="#21201F"/>
<path d="M81.7789 86.7599C81.749 86.8609 81.7163 86.9463 81.7171 87.0296L91.5423 81.3568C91.5111 81.2911 91.4703 81.2481 91.4025 81.2036L81.7789 86.7599Z" fill="#434240"/>
<path d="M82.1367 86.0201C81.996 86.2598 81.8531 86.526 81.7788 86.7603L91.4024 81.204C91.2692 81.0895 91.082 81.0138 90.8866 80.9683L82.1367 86.0201Z" fill="#21201F"/>
<path d="M80.3213 86.9046C80.3213 86.9046 80.1908 88.3273 79.3491 88.5051C78.5074 88.6829 76.5275 88.4814 76.243 88.5051C75.9584 88.5288 73.0182 85.7071 72.6152 85.1025C72.2121 84.4978 72.4729 83.8813 72.4729 83.8813C72.4729 83.8813 78.2584 87.0587 80.3213 86.9046Z" fill="#E9E8E6"/>
<path d="M93.9849 77.8225C93.9658 78.1959 93.8987 78.5403 93.7457 78.8754C93.7457 78.8754 94.5494 79.2104 94.7599 78.9805C94.8749 78.8562 95.2768 78.3585 95.5256 77.8323V76.9229C95.5256 76.6837 95.0758 76.0042 94.741 75.564C94.6261 75.4206 94.5303 75.3056 94.4634 75.2388C93.8221 74.5785 92.6066 73.248 91.0276 71.755C91.0085 71.7457 90.9797 71.7358 90.9606 71.7358C91.1423 71.9368 94.0805 75.2196 93.9849 77.8132V77.8225Z" fill="#E9E8E6"/>
<path d="M77.7181 89.4847C76.9496 90.1747 76.5995 90.9588 76.9851 91.9295C77.6048 91.8039 78.2309 91.6464 78.8642 91.4351C78.9455 91.408 79.0272 91.3799 79.1088 91.3511C79.2695 91.2975 79.4372 91.2337 79.5993 91.1342C80.0724 90.8466 80.4416 90.3124 80.7834 89.8026L80.825 89.5524C80.3734 89.2234 79.7362 89.2835 79.1319 89.3483C78.6607 89.391 78.1893 89.4417 77.7181 89.4847Z" fill="#0074D1"/>
<path d="M92.9418 81.738L93.0088 81.9679C93.3724 82.188 93.7743 82.4081 94.2243 82.2932C94.3773 82.2455 94.5303 82.1689 94.674 82.0829C94.7504 82.0446 94.8271 81.9969 94.9037 81.9586C94.9705 81.9203 95.0376 81.8819 95.1047 81.8338C95.3631 81.3361 95.5065 80.7908 95.5161 80.2263V79.0776C95.143 79.4127 94.76 79.7379 94.3869 80.073C93.8509 80.523 93.2864 81.0202 92.9418 81.738Z" fill="#0074D1"/>
<path d="M78.8353 87.1103C78.6154 87.2373 78.4735 87.5642 78.5201 87.8406C78.5662 88.1142 78.7839 88.2367 79.0038 88.1097C79.226 87.9815 79.3696 87.6504 79.3235 87.3767C79.2769 87.1003 79.0575 86.982 78.8353 87.1103Z" fill="#FFD651"/>
<path d="M94.5529 77.4604C94.333 77.5874 94.1911 77.9143 94.2377 78.1907C94.2839 78.4643 94.5015 78.5868 94.7214 78.4598C94.9436 78.3316 95.0873 78.0005 95.0411 77.7268C94.9945 77.4504 94.7751 77.3321 94.5529 77.4604Z" fill="#FFD651"/>
<path d="M76.9301 86.4957C76.5271 86.7283 76.2671 87.3273 76.3525 87.8338C76.4371 88.3353 76.8359 88.5598 77.2389 88.3271C77.646 88.092 77.9093 87.4854 77.8247 86.9839C77.7393 86.4774 77.3373 86.2606 76.9301 86.4957Z" fill="#FFD651"/>
<path d="M63.4204 78.2587L62.9493 77.9849L63.6345 77.5894L64.1055 77.8631L63.4204 78.2587Z" fill="#434240"/>
<path d="M63.3563 78.0774C63.3195 78.0554 63.2681 78.0627 63.2019 78.0995L61.4158 79.1285C61.2982 79.1947 61.2026 79.3564 61.2026 79.496L61.21 80.5839C61.21 80.6501 61.232 80.7015 61.2688 80.7236L60.7988 80.452C60.7621 80.4299 60.74 80.3784 60.74 80.3123L60.7327 79.217C60.7327 79.0847 60.8282 78.9231 60.9458 78.8569L62.7319 77.8205C62.7981 77.7911 62.8496 77.7837 62.8863 77.8058L63.3563 78.0774Z" fill="#434240"/>
<path d="M63.2037 78.0972C63.3257 78.0268 63.4199 78.0804 63.4203 78.2152L63.4204 78.2584L64.1056 77.8628L64.1064 78.1432L63.4212 78.5388L63.4234 79.3046C63.4237 79.4448 63.3302 79.6068 63.2082 79.6773L61.4202 80.7096C61.3029 80.7773 61.2087 80.7237 61.2083 80.5835L61.2052 79.4941C61.2048 79.3593 61.2984 79.1973 61.4157 79.1295L63.2037 78.0972Z" fill="#2D2C2B"/>
</svg>
