<svg width="150" height="150" viewBox="0 0 150 150" fill="none" xmlns="http://www.w3.org/2000/svg">
    <path
        d="M37.0588 13.7075H17.8883C15.835 13.7075 14.1704 15.3594 14.1704 17.397V36.4211C14.1704 38.4587 15.835 40.1106 17.8883 40.1106C19.9415 40.1106 21.6061 38.4587 21.6061 36.4211V21.0864H37.0588C39.112 21.0864 40.7766 19.4345 40.7766 17.397C40.7766 15.3594 39.112 13.7075 37.0588 13.7075Z"
        fill="#2880BD" />
    <path
        d="M133.111 13.7075H113.941C111.888 13.7075 110.223 15.3594 110.223 17.397C110.223 19.4345 111.888 21.0864 113.941 21.0864H129.394V36.4211C129.394 38.4587 131.058 40.1106 133.111 40.1106C135.165 40.1106 136.829 38.4587 136.829 36.4211V17.397C136.829 15.3592 135.165 13.7075 133.111 13.7075Z"
        fill="#0D4D73" />
    <path
        d="M133.111 109.255C131.058 109.255 129.394 110.907 129.394 112.945V128.28H113.941C111.888 128.28 110.223 129.931 110.223 131.969C110.223 134.007 111.888 135.658 113.941 135.658H133.111C135.165 135.658 136.829 134.007 136.829 131.969V112.945C136.829 110.907 135.165 109.255 133.111 109.255Z"
        fill="#0D4D73" />
    <path
        d="M37.0588 128.28H21.6061V112.945C21.6061 110.907 19.9415 109.255 17.8883 109.255C15.835 109.255 14.1704 110.907 14.1704 112.945V131.969C14.1704 134.007 15.835 135.658 17.8883 135.658H37.0588C39.112 135.658 40.7766 134.007 40.7766 131.969C40.7766 129.931 39.112 128.28 37.0588 128.28Z"
        fill="#2880BD" />
    <path
        d="M60.7371 82.301L41.8748 101.163C40.7873 102.251 40.1764 103.726 40.1764 105.264C40.1764 106.802 40.7873 108.277 41.8748 109.364C42.9623 110.452 44.4372 111.062 45.9751 111.062C47.513 111.062 48.988 110.452 50.0755 109.364L67.7038 91.7357L60.7371 82.301Z"
        fill="#6AA5D5" />
    <path d="M53.1436 89.8836L55.6035 87.4238L63.803 95.6233L61.3431 98.0831L53.1436 89.8836Z" fill="#4B90BF" />
    <path d="M46.7881 96.2376L49.248 93.7777L57.4475 101.977L54.9876 104.437L46.7881 96.2376Z" fill="#4B90BF" />
    <path
        d="M92.1191 66.0331C92.4199 66.1218 92.739 66.1276 93.0428 66.0498C93.3466 65.972 93.6237 65.8136 93.8448 65.5912L103.138 56.2969C103.29 56.1461 103.412 55.9683 103.499 55.7727L110.057 41.0217C110.171 40.7667 110.222 40.4878 110.206 40.2089C110.19 39.9299 110.106 39.659 109.963 39.419C109.82 39.1791 109.621 38.9772 109.383 38.8304C109.145 38.6836 108.876 38.5963 108.597 38.5758C105.004 38.2999 101.394 38.8045 98.0144 40.0551C94.6348 41.3057 91.5658 43.2726 89.0179 45.8208L56.6362 78.2013C56.3101 78.5275 56.1269 78.9699 56.1269 79.4312C56.1269 79.8925 56.3101 80.3349 56.6362 80.6611L67.7073 91.7322L72.5238 86.9169C72.7453 86.6953 72.9029 86.418 72.9799 86.1142C73.0568 85.8104 73.0503 85.4915 72.961 85.1912C72.7568 84.5046 72.7419 83.7756 72.9178 83.0813C73.0938 82.387 73.454 81.7531 73.9605 81.2466C74.467 80.7401 75.1009 80.3799 75.7952 80.2039C76.4895 80.028 77.2185 80.0429 77.9051 80.2471C78.2054 80.3363 78.5243 80.3428 78.828 80.2657C79.1317 80.1887 79.4089 80.0311 79.6305 79.8096C79.852 79.588 80.0096 79.3108 80.0867 79.0071C80.1637 78.7034 80.1572 78.3845 80.068 78.0842C79.8638 77.3976 79.8489 76.6686 80.0248 75.9743C80.2008 75.28 80.561 74.6461 81.0675 74.1396C81.574 73.6331 82.2079 73.2728 82.9022 73.0969C83.5966 72.921 84.3255 72.9359 85.0121 73.1401C85.3124 73.2293 85.6313 73.2357 85.935 73.1587C86.2387 73.0817 86.516 72.9241 86.7375 72.7026C86.959 72.481 87.1166 72.2038 87.1937 71.9001C87.2707 71.5964 87.2642 71.2775 87.175 70.9771C86.9708 70.2906 86.9559 69.5616 87.1318 68.8673C87.3078 68.173 87.668 67.539 88.1745 67.0326C88.681 66.5261 89.3149 66.1658 90.0092 65.9899C90.7036 65.814 91.4325 65.8289 92.1191 66.0331Z"
        fill="#E6E9EE" />
</svg>